<?xml version="1.0" encoding="UTF-8" standalone="no"?>
<!-- Created with Inkscape (http://www.inkscape.org/) -->

<svg
   xmlns:dc="http://purl.org/dc/elements/1.1/"
   xmlns:cc="http://creativecommons.org/ns#"
   xmlns:rdf="http://www.w3.org/1999/02/22-rdf-syntax-ns#"
   xmlns:svg="http://www.w3.org/2000/svg"
   xmlns="http://www.w3.org/2000/svg"
   xmlns:sodipodi="http://sodipodi.sourceforge.net/DTD/sodipodi-0.dtd"
   xmlns:inkscape="http://www.inkscape.org/namespaces/inkscape"
   width="159.83662mm"
   height="106.80688mm"
   viewBox="0 0 159.83662 106.80688"
   version="1.1"
   id="svg1487"
   inkscape:version="0.92.5 (2060ec1f9f, 2020-04-08)"
   sodipodi:docname="daily-fees.svg">
  <defs
     id="defs1481" />
  <sodipodi:namedview
     id="base"
     pagecolor="#ffffff"
     bordercolor="#666666"
     borderopacity="1.0"
     inkscape:pageopacity="0.0"
     inkscape:pageshadow="2"
     inkscape:zoom="0.7"
     inkscape:cx="315.21271"
     inkscape:cy="175.25557"
     inkscape:document-units="mm"
     inkscape:current-layer="layer1"
     showgrid="false"
     fit-margin-top="0"
     fit-margin-left="0"
     fit-margin-right="0"
     fit-margin-bottom="0"
     inkscape:window-width="1920"
     inkscape:window-height="1043"
     inkscape:window-x="0"
     inkscape:window-y="0"
     inkscape:window-maximized="1" />
  <metadata
     id="metadata1484">
    <rdf:RDF>
      <cc:Work
         rdf:about="">
        <dc:format>image/svg+xml</dc:format>
        <dc:type
           rdf:resource="http://purl.org/dc/dcmitype/StillImage" />
        <dc:title></dc:title>
      </cc:Work>
    </rdf:RDF>
  </metadata>
  <g
     inkscape:label="Layer 1"
     inkscape:groupmode="layer"
     id="layer1"
     transform="translate(-28.560853,-81.066804)">
    <rect
       style="fill:#191b1f;fill-opacity:1;stroke:none;stroke-width:0.2752668;stroke-linecap:round;stroke-linejoin:miter;stroke-miterlimit:4;stroke-dasharray:none;stroke-opacity:1"
       id="rect867"
       width="159.56136"
       height="106.53161"
       x="28.698486"
       y="81.204437"
       rx="4.6402149"
       ry="4.6402149" />
    <path
       style="fill:none;stroke:#26ad5f;stroke-width:0.66500002;stroke-linecap:round;stroke-linejoin:miter;stroke-miterlimit:4;stroke-dasharray:none;stroke-opacity:1"
       d="m 43.63716,149.73576 c 0,0 0.755953,6.89806 1.700893,6.89806 0.944941,0 0.566964,-2.55134 2.078869,-1.41741 1.511906,1.13392 1.13393,1.88989 2.362353,3.40178 1.228421,1.51191 2.267855,2.17337 2.740327,4.34674 0.472469,2.17335 1.795385,5.76413 1.795385,1.79538 0,-3.96875 -0.566962,-46.39658 0.472472,-44.79018 1.039433,1.6064 1.795385,6.23661 1.795385,6.99256 0,0.75595 0,29.00968 1.13393,27.40327 1.133928,-1.60639 1.700893,-11.24478 2.645836,-8.97693 0.94494,2.26786 2.83482,17.10343 3.49628,14.74107 0.66145,-2.36235 0.28348,-10.48883 1.13393,-7.9375 0.85044,2.55134 1.13392,4.34673 1.5119,5.76414 0.37798,1.41741 1.6064,10.77232 1.79539,7.27604 0.18898,-3.49628 -0.0945,-10.9613 1.32291,-9.63839 1.41741,1.32291 1.98438,1.03943 2.64584,2.55134 0.66146,1.51191 1.13393,12.94568 2.17336,9.54389 1.03943,-3.40178 0,-12.18973 1.32292,-8.69344 1.32291,3.49628 0.75595,9.73288 2.17336,5.10267 1.41741,-4.63021 0.75595,-17.10343 2.55134,-13.98512 1.79539,3.1183 3.30729,20.59971 4.34673,15.30803 1.03943,-5.29166 1.60639,-12.47321 3.02381,-10.29984 1.41741,2.17336 2.36235,3.96875 2.55133,0.66145 0.18899,-3.30728 0,-6.23661 0.66146,-4.44121 0.66146,1.79539 2.07887,15.59152 2.92932,12.66219 0.85044,-2.9293 0.94494,-4.53571 1.70089,-5.00817 0.75595,-0.47247 1.32292,-2.07888 1.88988,-0.28349 0.56697,1.79539 1.32292,3.02381 1.70089,3.11831 0.37798,0.0945 0.64375,-0.0413 0.85045,-0.66147 0.94494,-2.36234 0.94494,-5.85862 1.5119,-2.26786 0.56697,3.59079 0.18899,8.40998 1.51191,5.0082 1.32292,-3.40179 1.41741,-5.19718 1.79539,-4.15775 0.37797,1.03944 0.75595,14.64658 1.03943,0.56697 0.28348,-14.07961 1.13393,-24.85193 1.41741,-20.97769 0.28349,3.87427 1.44104,17.10344 2.008,12.23699 0.74052,-6.35614 1.39379,-18.09561 1.48828,-5.62239 0.0945,12.47321 -0.56696,28.5372 0.66146,21.82812 1.22842,-6.70907 1.13393,-15.49702 1.98437,-10.01637 0.85045,5.48066 0.79335,14.34253 1.77345,11.72824 1.15064,-3.06918 1.62509,-1.29361 2.83482,-3.11831 0.86516,-1.30497 0.90782,-10.18089 2.32523,-10.0864 1.41741,0.0945 1.01582,-0.4134 1.2993,-3.74432 0.27537,-3.23566 0.10529,-17.27265 1.02762,-14.28043 0.76605,2.48523 1.99404,23.28142 2.83483,21.01313 0.86243,-2.39974 2.06257,-2.20686 2.51588,-1.85445 0.78555,0.70706 1.70215,8.96527 2.45686,7.26422 0.75487,-1.70136 2.68127,-3.89787 2.87026,-3.3309 1.51351,0.56696 0.94971,11.31632 2.71988,8.37636 2.33861,-2.93997 3.27405,-11.09169 4.34313,-9.95579 1.06908,1.13589 2.05567,8.2885 2.85887,5.45368 0.80319,-2.83482 1.84263,-10.72508 1.93713,-8.7407 0.0945,1.98437 0.41575,8.73263 1.55165,8.9999 1.1359,0.26727 1.77066,-0.36749 2.20497,0.86863 0.43432,1.23612 1.33635,1.13588 1.67044,0.83521 0.33408,-0.30067 0.66817,-0.53453 1.57021,0.43432 0.90203,0.96885 1.03567,2.63928 1.77066,2.7061 0.73499,0.0668 0.96885,-1.50339 1.77066,-1.10248 0.80181,0.4009 1.63702,0.63476 2.13815,0.16704 0.50113,-0.46772 0,-1.5368 0.96885,-0.23386 0.96886,1.30294 1.06908,3.24064 1.80407,1.70384 0.735,-1.5368 2.83974,-5.87993 2.87315,-7.21627 0.0334,-1.33635 0.50113,-11.526 1.1359,-9.72194 0.63476,1.80408 -0.0668,9.75533 1.67043,8.51921 1.73726,-1.23612 2.82509,-4.77852 3.39206,-2.79414 0.56696,1.98437 0.89769,5.4334 0.89769,5.4334"
       id="path869"
       inkscape:connector-curvature="0"
       sodipodi:nodetypes="cscssscsccscssccssscsssscccscsscssssscsssssccsccccsscccccsccccccc" />
    <path
       style="fill:none;stroke:#206fde;stroke-width:0.66500002;stroke-linecap:round;stroke-linejoin:miter;stroke-miterlimit:4;stroke-dasharray:none;stroke-opacity:1"
       d="m 44.251373,148.50734 c 1.694135,0.054 3.154499,20.792 3.023809,15.07179 -0.138278,-6.0523 1.370164,-18.04835 1.937129,-12.94567 0.566962,5.10268 1.937127,16.30022 2.456843,13.08741 0.519719,-3.21279 3.212798,-38.7898 4.157738,-35.57701 0.944941,3.21281 2.655727,28.64269 3.189174,24.54484 0.519719,-3.99238 1.393784,-16.08761 1.582774,-12.49685 0.18899,3.59079 0.66146,19.79651 1.74814,17.81214 1.08668,-1.98438 1.65365,-3.73251 1.65365,-3.73251 0,0 0.94494,-34.82106 1.18117,-31.79726 0.23624,3.02382 0.8032,33.54539 1.41741,30.42709 0.61421,-3.1183 1.32292,-22.72582 1.41742,-19.22955 0.0945,3.49629 1.37016,29.71839 1.88987,27.21429 0.51972,-2.50408 0.62707,-9.38258 1.90274,-9.85505 1.27567,-0.47247 1.12108,0.16942 1.73529,1.58683 0.61421,1.41741 2.4096,5.4334 2.50409,2.83482 0.0945,-2.59859 0.8032,-12.47322 1.41741,-10.20536 0.61421,2.26786 3.02381,24.80469 3.1183,22.82031 0.0945,-1.98437 0.0473,-14.64657 0.85045,-12.94568 0.8032,1.70089 2.92931,12.61496 4.15774,11.71726 1.22842,-0.89769 2.64583,-1.22842 2.83482,-2.88207 0.18899,-1.65365 0.61421,-13.32366 0.75595,-15.0718 0.14174,-1.74815 0.0472,-2.40959 0.89769,-0.99218 0.85045,1.41741 1.30543,14.92616 2.07383,13.79025 0.7684,-1.13588 1.43658,-3.74176 2.37202,-2.87315 0.93545,0.86864 1.87089,4.10927 2.23838,1.67045 0.3675,-2.43884 1.80407,-7.98468 1.97112,-8.98694 0.16704,-1.00226 0.70158,-6.61492 1.50339,-4.14268 0.80181,2.47224 2.13815,11.22531 2.83973,9.25421 0.70159,-1.97111 0.735,-7.08264 1.30295,-2.47224 0.56794,4.61039 1.73725,17.60638 2.00452,13.99824 0.26726,-3.60814 0.80181,-21.98292 1.13589,-19.54408 0.33409,2.43883 1.16931,11.89349 1.60362,8.98693 0.43431,-2.90655 1.06908,-13.83121 1.30294,-10.35669 0.23386,3.4745 3.00678,13.49711 3.77518,10.4235 0.7684,-3.07359 0.80181,-18.60864 2.00452,-16.37026 1.20271,2.23838 3.20724,21.14771 3.64155,18.7757 0.43431,-2.37202 1.80407,-34.67823 1.80407,-34.67823 0,0 1.36976,-6.31424 1.30294,-1.57022 -0.0668,4.74404 0.30067,29.43307 1.10249,26.89401 0.8018,-2.53906 1.80407,-19.71112 1.87088,-14.83346 0.0668,4.87767 1.13589,32.47325 1.60362,27.92967 0.46772,-4.54358 2.80633,-11.4926 2.87315,-9.35443 0.0668,2.13815 2.20497,12.82892 2.93996,8.55262 0.73499,-4.27631 1.33635,-14.69982 1.40317,-12.49485 0.0668,2.20497 1.13589,21.98291 1.5368,18.04069 0.4009,-3.94222 1.26953,-12.82893 1.67043,-9.82215 0.4009,3.00678 1.14261,4.89109 1.14261,4.89109 0.17513,0.89254 1.7199,0.4289 2.13955,-0.52909 0,0 0.82949,-4.96673 1.29721,-3.29628 0.46772,1.67043 0.76602,2.74287 1.23374,2.4756 0.46773,-0.26727 1.60362,-2.33861 2.00452,-0.0668 0.40091,2.27179 -0.0668,4.07586 1.1359,4.27631 1.20271,0.20046 2.00452,-1.40316 1.9377,-3.27405 -0.0668,-1.87088 -0.53454,-11.49259 0.66818,-8.0849 1.20271,3.40769 0.53454,14.49937 1.67043,15.23436 1.1359,0.73499 2.13816,1.10249 2.10475,0.10023 -0.0334,-1.00226 1.26953,-6.1472 2.57247,-5.84652 1.30294,0.30068 0.23386,8.58603 1.30294,7.61718 1.06908,-0.96885 1.63702,-0.90203 1.70384,-3.04019 0.0668,-2.13816 1.08736,-18.06102 1.60708,-19.10045 0.51972,-1.03943 1.7009,-11.90625 1.74814,-13.74889 0.0472,-1.84263 0.23624,-13.74888 1.03944,-10.67782 0.80319,3.07105 0.80319,29.3404 1.79538,26.31659 0.99219,-3.02381 1.20235,-7.13112 1.37016,-4.11049 0.18899,3.40179 0.70871,11.10305 1.55916,11.9535 0.85045,0.85044 3.07105,3.54352 3.07105,3.54352"
       id="path871"
       inkscape:connector-curvature="0"
       sodipodi:nodetypes="cssssssccsscssscsccccccccscssssssssssccccscsccsccccccccccsscsccsscc" />
    <text
       xml:space="preserve"
       style="font-style:normal;font-variant:normal;font-weight:bold;font-stretch:normal;font-size:4.24598408px;line-height:1.25;font-family:sans-serif;-inkscape-font-specification:'sans-serif Bold';letter-spacing:0px;word-spacing:0px;fill:#77787c;fill-opacity:1;stroke:none;stroke-width:0.10614961"
       x="44.25499"
       y="177.27477"
       id="text875"><tspan
         sodipodi:role="line"
         id="tspan873"
         x="44.25499"
         y="177.27477"
         style="font-style:normal;font-variant:normal;font-weight:normal;font-stretch:normal;font-family:sans-serif;-inkscape-font-specification:sans-serif;fill:#77787c;fill-opacity:1;stroke-width:0.10614961">16</tspan></text>
    <text
       id="text879"
       y="177.27477"
       x="51.671722"
       style="font-style:normal;font-variant:normal;font-weight:bold;font-stretch:normal;font-size:4.24598408px;line-height:1.25;font-family:sans-serif;-inkscape-font-specification:'sans-serif Bold';letter-spacing:0px;word-spacing:0px;fill:#77787c;fill-opacity:1;stroke:none;stroke-width:0.10614961"
       xml:space="preserve"><tspan
         style="font-style:normal;font-variant:normal;font-weight:normal;font-stretch:normal;font-family:sans-serif;-inkscape-font-specification:sans-serif;fill:#77787c;fill-opacity:1;stroke-width:0.10614961"
         y="177.27477"
         x="51.671722"
         id="tspan877"
         sodipodi:role="line">21</tspan></text>
    <text
       xml:space="preserve"
       style="font-style:normal;font-variant:normal;font-weight:bold;font-stretch:normal;font-size:4.24598408px;line-height:1.25;font-family:sans-serif;-inkscape-font-specification:'sans-serif Bold';letter-spacing:0px;word-spacing:0px;fill:#77787c;fill-opacity:1;stroke:none;stroke-width:0.10614961"
       x="59.355721"
       y="177.27477"
       id="text883"><tspan
         sodipodi:role="line"
         id="tspan881"
         x="59.355721"
         y="177.27477"
         style="font-style:normal;font-variant:normal;font-weight:normal;font-stretch:normal;font-family:sans-serif;-inkscape-font-specification:sans-serif;fill:#77787c;fill-opacity:1;stroke-width:0.10614961">26</tspan></text>
    <text
       id="text887"
       y="177.27477"
       x="67.240173"
       style="font-style:normal;font-variant:normal;font-weight:bold;font-stretch:normal;font-size:4.24598408px;line-height:1.25;font-family:sans-serif;-inkscape-font-specification:'sans-serif Bold';letter-spacing:0px;word-spacing:0px;fill:#77787c;fill-opacity:1;stroke:none;stroke-width:0.10614961"
       xml:space="preserve"><tspan
         style="font-style:normal;font-variant:normal;font-weight:normal;font-stretch:normal;font-family:sans-serif;-inkscape-font-specification:sans-serif;fill:#77787c;fill-opacity:1;stroke-width:0.10614961"
         y="177.27477"
         x="67.240173"
         id="tspan885"
         sodipodi:role="line">01</tspan></text>
    <text
       xml:space="preserve"
       style="font-style:normal;font-variant:normal;font-weight:bold;font-stretch:normal;font-size:4.24598408px;line-height:1.25;font-family:sans-serif;-inkscape-font-specification:'sans-serif Bold';letter-spacing:0px;word-spacing:0px;fill:#77787c;fill-opacity:1;stroke:none;stroke-width:0.10614961"
       x="74.623489"
       y="177.27477"
       id="text891"><tspan
         sodipodi:role="line"
         id="tspan889"
         x="74.623489"
         y="177.27477"
         style="font-style:normal;font-variant:normal;font-weight:normal;font-stretch:normal;font-family:sans-serif;-inkscape-font-specification:sans-serif;fill:#77787c;fill-opacity:1;stroke-width:0.10614961">06</tspan></text>
    <text
       id="text895"
       y="177.27477"
       x="82.073624"
       style="font-style:normal;font-variant:normal;font-weight:bold;font-stretch:normal;font-size:4.24598408px;line-height:1.25;font-family:sans-serif;-inkscape-font-specification:'sans-serif Bold';letter-spacing:0px;word-spacing:0px;fill:#77787c;fill-opacity:1;stroke:none;stroke-width:0.10614961"
       xml:space="preserve"><tspan
         style="font-style:normal;font-variant:normal;font-weight:normal;font-stretch:normal;font-family:sans-serif;-inkscape-font-specification:sans-serif;fill:#77787c;fill-opacity:1;stroke-width:0.10614961"
         y="177.27477"
         x="82.073624"
         id="tspan893"
         sodipodi:role="line">11</tspan></text>
    <text
       xml:space="preserve"
       style="font-style:normal;font-variant:normal;font-weight:bold;font-stretch:normal;font-size:4.24598408px;line-height:1.25;font-family:sans-serif;-inkscape-font-specification:'sans-serif Bold';letter-spacing:0px;word-spacing:0px;fill:#77787c;fill-opacity:1;stroke:none;stroke-width:0.10614961"
       x="89.423538"
       y="177.27477"
       id="text899"><tspan
         sodipodi:role="line"
         id="tspan897"
         x="89.423538"
         y="177.27477"
         style="font-style:normal;font-variant:normal;font-weight:normal;font-stretch:normal;font-family:sans-serif;-inkscape-font-specification:sans-serif;fill:#77787c;fill-opacity:1;stroke-width:0.10614961">16</tspan></text>
    <text
       id="text903"
       y="177.27477"
       x="97.266556"
       style="font-style:normal;font-variant:normal;font-weight:bold;font-stretch:normal;font-size:4.24598408px;line-height:1.25;font-family:sans-serif;-inkscape-font-specification:'sans-serif Bold';letter-spacing:0px;word-spacing:0px;fill:#77787c;fill-opacity:1;stroke:none;stroke-width:0.10614961"
       xml:space="preserve"><tspan
         style="font-style:normal;font-variant:normal;font-weight:normal;font-stretch:normal;font-family:sans-serif;-inkscape-font-specification:sans-serif;fill:#77787c;fill-opacity:1;stroke-width:0.10614961"
         y="177.27477"
         x="97.266556"
         id="tspan901"
         sodipodi:role="line">21</tspan></text>
    <text
       xml:space="preserve"
       style="font-style:normal;font-variant:normal;font-weight:bold;font-stretch:normal;font-size:4.24598408px;line-height:1.25;font-family:sans-serif;-inkscape-font-specification:'sans-serif Bold';letter-spacing:0px;word-spacing:0px;fill:#77787c;fill-opacity:1;stroke:none;stroke-width:0.10614961"
       x="106.00725"
       y="177.27477"
       id="text907"><tspan
         sodipodi:role="line"
         id="tspan905"
         x="106.00725"
         y="177.27477"
         style="font-style:normal;font-variant:normal;font-weight:normal;font-stretch:normal;font-family:sans-serif;-inkscape-font-specification:sans-serif;fill:#77787c;fill-opacity:1;stroke-width:0.10614961">27</tspan></text>
    <text
       id="text911"
       y="177.27477"
       x="113.70851"
       style="font-style:normal;font-variant:normal;font-weight:bold;font-stretch:normal;font-size:4.24598408px;line-height:1.25;font-family:sans-serif;-inkscape-font-specification:'sans-serif Bold';letter-spacing:0px;word-spacing:0px;fill:#77787c;fill-opacity:1;stroke:none;stroke-width:0.10614961"
       xml:space="preserve"><tspan
         style="font-style:normal;font-variant:normal;font-weight:normal;font-stretch:normal;font-family:sans-serif;-inkscape-font-specification:sans-serif;fill:#77787c;fill-opacity:1;stroke-width:0.10614961"
         y="177.27477"
         x="113.70851"
         id="tspan909"
         sodipodi:role="line">16</tspan></text>
    <text
       xml:space="preserve"
       style="font-style:normal;font-variant:normal;font-weight:bold;font-stretch:normal;font-size:4.24598408px;line-height:1.25;font-family:sans-serif;-inkscape-font-specification:'sans-serif Bold';letter-spacing:0px;word-spacing:0px;fill:#77787c;fill-opacity:1;stroke:none;stroke-width:0.10614961"
       x="121.40976"
       y="177.27477"
       id="text915"><tspan
         sodipodi:role="line"
         id="tspan913"
         x="121.40976"
         y="177.27477"
         style="font-style:normal;font-variant:normal;font-weight:normal;font-stretch:normal;font-family:sans-serif;-inkscape-font-specification:sans-serif;fill:#77787c;fill-opacity:1;stroke-width:0.10614961">06</tspan></text>
    <text
       id="text919"
       y="177.27477"
       x="128.73306"
       style="font-style:normal;font-variant:normal;font-weight:bold;font-stretch:normal;font-size:4.24598408px;line-height:1.25;font-family:sans-serif;-inkscape-font-specification:'sans-serif Bold';letter-spacing:0px;word-spacing:0px;fill:#77787c;fill-opacity:1;stroke:none;stroke-width:0.10614961"
       xml:space="preserve"><tspan
         style="font-style:normal;font-variant:normal;font-weight:normal;font-stretch:normal;font-family:sans-serif;-inkscape-font-specification:sans-serif;fill:#77787c;fill-opacity:1;stroke-width:0.10614961"
         y="177.27477"
         x="128.73306"
         id="tspan917"
         sodipodi:role="line">11</tspan></text>
    <text
       xml:space="preserve"
       style="font-style:normal;font-variant:normal;font-weight:bold;font-stretch:normal;font-size:4.24598408px;line-height:1.25;font-family:sans-serif;-inkscape-font-specification:'sans-serif Bold';letter-spacing:0px;word-spacing:0px;fill:#77787c;fill-opacity:1;stroke:none;stroke-width:0.10614961"
       x="136.19809"
       y="177.27477"
       id="text923"><tspan
         sodipodi:role="line"
         id="tspan921"
         x="136.19809"
         y="177.27477"
         style="font-style:normal;font-variant:normal;font-weight:normal;font-stretch:normal;font-family:sans-serif;-inkscape-font-specification:sans-serif;fill:#77787c;fill-opacity:1;stroke-width:0.10614961">16</tspan></text>
    <text
       id="text927"
       y="177.27477"
       x="144.23007"
       style="font-style:normal;font-variant:normal;font-weight:bold;font-stretch:normal;font-size:4.24598408px;line-height:1.25;font-family:sans-serif;-inkscape-font-specification:'sans-serif Bold';letter-spacing:0px;word-spacing:0px;fill:#77787c;fill-opacity:1;stroke:none;stroke-width:0.10614961"
       xml:space="preserve"><tspan
         style="font-style:normal;font-variant:normal;font-weight:normal;font-stretch:normal;font-family:sans-serif;-inkscape-font-specification:sans-serif;fill:#77787c;fill-opacity:1;stroke-width:0.10614961"
         y="177.27477"
         x="144.23007"
         id="tspan925"
         sodipodi:role="line">21</tspan></text>
    <text
       xml:space="preserve"
       style="font-style:normal;font-variant:normal;font-weight:bold;font-stretch:normal;font-size:4.24598408px;line-height:1.25;font-family:sans-serif;-inkscape-font-specification:'sans-serif Bold';letter-spacing:0px;word-spacing:0px;fill:#77787c;fill-opacity:1;stroke:none;stroke-width:0.10614961"
       x="153.11252"
       y="177.27477"
       id="text931"><tspan
         sodipodi:role="line"
         id="tspan929"
         x="153.11252"
         y="177.27477"
         style="font-style:normal;font-variant:normal;font-weight:normal;font-stretch:normal;font-family:sans-serif;-inkscape-font-specification:sans-serif;fill:#77787c;fill-opacity:1;stroke-width:0.10614961">27</tspan></text>
    <text
       id="text935"
       y="177.27477"
       x="160.66289"
       style="font-style:normal;font-variant:normal;font-weight:bold;font-stretch:normal;font-size:4.24598408px;line-height:1.25;font-family:sans-serif;-inkscape-font-specification:'sans-serif Bold';letter-spacing:0px;word-spacing:0px;fill:#77787c;fill-opacity:1;stroke:none;stroke-width:0.10614961"
       xml:space="preserve"><tspan
         style="font-style:normal;font-variant:normal;font-weight:normal;font-stretch:normal;font-family:sans-serif;-inkscape-font-specification:sans-serif;fill:#77787c;fill-opacity:1;stroke-width:0.10614961"
         y="177.27477"
         x="160.66289"
         id="tspan933"
         sodipodi:role="line">01</tspan></text>
    <text
       xml:space="preserve"
       style="font-style:normal;font-variant:normal;font-weight:bold;font-stretch:normal;font-size:4.24598408px;line-height:1.25;font-family:sans-serif;-inkscape-font-specification:'sans-serif Bold';letter-spacing:0px;word-spacing:0px;fill:#77787c;fill-opacity:1;stroke:none;stroke-width:0.10614961"
       x="168.34689"
       y="177.27477"
       id="text939"><tspan
         sodipodi:role="line"
         id="tspan937"
         x="168.34689"
         y="177.27477"
         style="font-style:normal;font-variant:normal;font-weight:normal;font-stretch:normal;font-family:sans-serif;-inkscape-font-specification:sans-serif;fill:#77787c;fill-opacity:1;stroke-width:0.10614961">06</tspan></text>
    <text
       id="text911-9"
       y="93.037697"
       x="150.843"
       style="font-style:normal;font-variant:normal;font-weight:bold;font-stretch:normal;font-size:3.97589469px;line-height:1.25;font-family:sans-serif;-inkscape-font-specification:'sans-serif Bold';letter-spacing:0px;word-spacing:0px;fill:#80889f;fill-opacity:1;stroke:none;stroke-width:0.09939738"
       xml:space="preserve"><tspan
         style="font-style:normal;font-variant:normal;font-weight:normal;font-stretch:normal;font-family:sans-serif;-inkscape-font-specification:sans-serif;fill:#80889f;fill-opacity:1;stroke-width:0.09939738"
         y="93.037697"
         x="150.843"
         id="tspan909-4"
         sodipodi:role="line">Daily Average</tspan></text>
    <text
       xml:space="preserve"
       style="font-style:normal;font-variant:normal;font-weight:bold;font-stretch:normal;font-size:3.97589469px;line-height:1.25;font-family:sans-serif;-inkscape-font-specification:'sans-serif Bold';letter-spacing:0px;word-spacing:0px;fill:#cfd1d7;fill-opacity:1;stroke:none;stroke-width:0.09939738"
       x="162.11255"
       y="101.22283"
       id="text961"><tspan
         sodipodi:role="line"
         id="tspan959"
         x="162.11255"
         y="101.22283"
         style="font-style:normal;font-variant:normal;font-weight:normal;font-stretch:normal;font-family:sans-serif;-inkscape-font-specification:sans-serif;fill:#cfd1d7;fill-opacity:1;stroke-width:0.09939738">0.00048</tspan></text>
    <text
       id="text965"
       y="107.80434"
       x="164.73726"
       style="font-style:normal;font-variant:normal;font-weight:bold;font-stretch:normal;font-size:3.97589469px;line-height:1.25;font-family:sans-serif;-inkscape-font-specification:'sans-serif Bold';letter-spacing:0px;word-spacing:0px;fill:#cfd1d7;fill-opacity:1;stroke:none;stroke-width:0.09939738"
       xml:space="preserve"><tspan
         style="font-style:normal;font-variant:normal;font-weight:normal;font-stretch:normal;font-family:sans-serif;-inkscape-font-specification:sans-serif;fill:#cfd1d7;fill-opacity:1;stroke-width:0.09939738"
         y="107.80434"
         x="164.73726"
         id="tspan963"
         sodipodi:role="line">0.0071</tspan></text>
    <text
       xml:space="preserve"
       style="font-style:normal;font-variant:normal;font-weight:bold;font-stretch:normal;font-size:3.97589469px;line-height:1.25;font-family:sans-serif;-inkscape-font-specification:'sans-serif Bold';letter-spacing:0px;word-spacing:0px;fill:#80889f;fill-opacity:1;stroke:none;stroke-width:0.09939738"
       x="38.584068"
       y="93.037697"
       id="text969"><tspan
         sodipodi:role="line"
         id="tspan967"
         x="38.584068"
         y="93.037697"
         style="font-style:normal;font-variant:normal;font-weight:normal;font-stretch:normal;font-family:sans-serif;-inkscape-font-specification:sans-serif;fill:#80889f;fill-opacity:1;stroke-width:0.09939738">Daily Fees</tspan></text>
    <circle
       style="fill:#206fde;fill-opacity:1;stroke:none;stroke-width:1.32568967;stroke-linecap:round;stroke-linejoin:miter;stroke-miterlimit:4;stroke-dasharray:none;stroke-opacity:1"
       id="path971"
       cx="39.845589"
       cy="106.63465"
       r="1.1693637" />
    <circle
       r="1.1693637"
       cy="99.712967"
       cx="39.845589"
       id="circle973"
       style="fill:#26ad5f;fill-opacity:1;stroke:none;stroke-width:1.32568967;stroke-linecap:round;stroke-linejoin:miter;stroke-miterlimit:4;stroke-dasharray:none;stroke-opacity:1" />
    <g
       style="fill:#f5a623"
       id="g989"
       transform="matrix(0.04003177,0,0,0.04003177,42.919461,97.711377)">
      <g
         id="g827">
        <path
           style="fill:#ffffff;stroke-width:0.39092636"
           id="path821"
           d="M 50.000439,0 C 22.386078,0 -5e-7,22.38544 -5e-7,50 c 0,27.61412 22.3860785,50 50.0004395,50 27.61437,0 49.99956,-22.38588 49.99956,-50 0,-27.61456 -22.38519,-50 -49.99956,-50 z"
           inkscape:connector-curvature="0"
           sodipodi:nodetypes="sssss" />
        <path
           inkscape:connector-curvature="0"
           d="m 59.832734,53.89329 c -1.152436,-0.57753 -3.719626,-1.35522 -6.775296,-1.55758 -3.056999,-0.20192 -6.978098,0 -6.978098,0 v 13.23482 c 0,0 4.094362,0.0873 6.834815,-0.11463 2.737802,-0.20192 5.564224,-0.89364 6.977214,-1.67309 1.412107,-0.77857 3.113868,-1.98963 3.113868,-5.01662 0,-3.02831 -2.018745,-4.29624 -3.172503,-4.8729 z"
           id="path2"
           style="fill:#000000;stroke-width:0.39092636" />
        <path
           inkscape:connector-curvature="0"
           d="m 51.211511,46.19356 c 2.250205,-0.0868 4.643248,-0.60531 6.371901,-1.55714 1.730416,-0.95139 2.710473,-2.4499 2.654042,-4.69964 -0.05908,-2.2493 -1.557156,-4.15208 -4.094366,-4.93153 -2.538089,-0.77857 -4.238086,-0.83633 -6.171304,-0.86498 -1.931892,-0.0282 -3.892886,0.1446 -3.892886,0.1446 v 11.90869 c 3.91e-4,0 2.883732,0.0868 5.132613,0 z"
           id="path4"
           style="fill:#000000;stroke-width:0.39092636" />
        <path
           inkscape:connector-curvature="0"
           d="M 50.000439,0 C 22.386079,0 0,22.38544 0,50 c 0,27.61412 22.386079,50 50.000439,50 27.614363,0 49.999559,-22.38588 49.999559,-50 0,-27.61456 -22.385196,-50 -49.999559,-50 z m 20.358519,69.11774 c -3.720948,2.59538 -7.699802,3.05741 -9.458877,3.2871 -0.868075,0.11418 -2.35513,0.23454 -3.949757,0.328 v 10.02443 h -6.171305 v -9.86219 c -1.152878,0 -2.804377,0 -4.699679,0 v 9.86219 h -6.170866 v -9.86219 c -6.106936,0 -12.139807,0 -12.139807,0 l 1.268825,-7.41185 c 0,0 2.450799,0 3.690526,0 1.24061,0 1.758632,-0.11506 2.277537,-0.60487 0.518905,-0.49068 0.634413,-1.23971 0.634413,-1.84635 0,-0.6053 0,-23.93288 0,-25.53322 0,-1.59947 -0.130057,-2.0324 -0.865429,-2.85373 -0.735372,-0.8231 -2.464907,-0.93111 -3.438789,-0.93111 -0.973002,0 -3.567083,0 -3.567083,0 v -6.40712 c 0,0 5.83977,0 12.139369,0 v -9.8904 h 6.170421 v 9.8904 c 1.714544,0 3.322842,0 4.699679,0 v -9.8904 h 6.171304 v 10.009 c 4.600485,0.28524 8.025168,1.16168 11.014266,3.37042 3.864673,2.85461 3.661871,7.81392 3.57546,8.99632 -0.08597,1.18241 -0.604871,3.46081 -1.644005,4.93022 -1.036929,1.47117 -3.574576,2.9419 -3.574576,2.9419 0,0 2.99836,0.63397 5.104395,2.2202 2.103396,1.58624 3.662312,4.38266 3.573696,8.47743 -0.08465,4.09476 -0.920538,8.16088 -4.639718,10.75582 z"
           id="path6"
           style="fill:#000000;stroke-width:0.39092636" />
      </g>
    </g>
    <g
       transform="matrix(0.15130112,0,0,0.15130112,28.069633,85.202577)"
       id="layer1-7"
       inkscape:label="Layer 1">
      <circle
         r="13.229167"
         cy="141.65179"
         cx="111.50297"
         id="path815"
         style="fill:#496ee3;fill-opacity:1;stroke:none;stroke-width:0.00174725;stroke-miterlimit:4;stroke-dasharray:none;stroke-opacity:1" />
      <polygon
         transform="matrix(0.07702969,0,0,0.07702969,105.44997,131.7942)"
         id="polygon828"
         points="78.556455,176.77997 157.11346,130.34513 78.556455,0 76.840579,5.8321343 76.840579,175.06716 "
         style="fill:#c0ccf9;fill-opacity:1" />
      <polygon
         transform="matrix(0.07702969,0,0,0.07702969,105.44997,131.7942)"
         id="polygon830"
         points="78.557007,94.638964 78.557007,0 0,130.34513 78.557007,176.78059 "
         style="fill:#ffffff;fill-opacity:1" />
      <polygon
         transform="matrix(0.07702969,0,0,0.07702969,105.44997,131.7942)"
         id="polygon832"
         points="78.556455,255.94266 157.16012,145.24261 78.556455,191.65412 77.589548,192.83283 77.589548,253.11807 "
         style="fill:#c0ccf9;fill-opacity:1" />
      <polygon
         transform="matrix(0.07702969,0,0,0.07702969,105.44997,131.7942)"
         id="polygon834"
         points="78.557007,191.65326 0,145.24175 78.557007,255.9418 "
         style="fill:#ffffff;fill-opacity:1" />
      <polygon
         transform="matrix(0.07702969,0,0,0.07702969,105.44997,131.7942)"
         id="polygon836"
         points="157.11223,130.34556 78.556455,94.639394 78.556455,176.77979 "
         style="fill:#8196f1;fill-opacity:1" />
      <polygon
         transform="matrix(0.07702969,0,0,0.07702969,105.44997,131.7942)"
         id="polygon838"
         points="78.556332,176.77985 78.556332,94.639455 0.00055251799,130.34562 "
         style="fill:#c0ccf9;fill-opacity:1" />
    </g>
    <text
       id="text1013"
       y="101.16025"
       x="48.624626"
       style="font-style:normal;font-variant:normal;font-weight:bold;font-stretch:normal;font-size:3.97589469px;line-height:1.25;font-family:sans-serif;-inkscape-font-specification:'sans-serif Bold';letter-spacing:0px;word-spacing:0px;fill:#cfd1d7;fill-opacity:1;stroke:none;stroke-width:0.09939738"
       xml:space="preserve"><tspan
         style="font-style:normal;font-variant:normal;font-weight:normal;font-stretch:normal;font-family:sans-serif;-inkscape-font-specification:sans-serif;fill:#cfd1d7;fill-opacity:1;stroke-width:0.09939738"
         y="101.16025"
         x="48.624626"
         id="tspan1011"
         sodipodi:role="line">WBTC</tspan></text>
    <text
       xml:space="preserve"
       style="font-style:normal;font-variant:normal;font-weight:bold;font-stretch:normal;font-size:3.97589469px;line-height:1.25;font-family:sans-serif;-inkscape-font-specification:'sans-serif Bold';letter-spacing:0px;word-spacing:0px;fill:#cfd1d7;fill-opacity:1;stroke:none;stroke-width:0.09939738"
       x="48.624626"
       y="108.08387"
       id="text1017"><tspan
         sodipodi:role="line"
         id="tspan1015"
         x="48.624626"
         y="108.08387"
         style="font-style:normal;font-variant:normal;font-weight:normal;font-stretch:normal;font-family:sans-serif;-inkscape-font-specification:sans-serif;fill:#cfd1d7;fill-opacity:1;stroke-width:0.09939738">WETH</tspan></text>
    <text
       xml:space="preserve"
       style="font-style:normal;font-variant:normal;font-weight:bold;font-stretch:normal;font-size:3.97589469px;line-height:1.25;font-family:sans-serif;-inkscape-font-specification:'sans-serif Bold';letter-spacing:0px;word-spacing:0px;fill:#cfd1d7;fill-opacity:1;stroke:none;stroke-width:0.09939738"
       x="75.880074"
       y="101.22283"
       id="text1021"><tspan
         sodipodi:role="line"
         id="tspan1019"
         x="75.880074"
         y="101.22283"
         style="font-style:normal;font-variant:normal;font-weight:normal;font-stretch:normal;font-family:sans-serif;-inkscape-font-specification:sans-serif;fill:#cfd1d7;fill-opacity:1;stroke-width:0.09939738">0.00051</tspan></text>
    <text
       id="text1025"
       y="107.80434"
       x="78.361107"
       style="font-style:normal;font-variant:normal;font-weight:bold;font-stretch:normal;font-size:3.97589469px;line-height:1.25;font-family:sans-serif;-inkscape-font-specification:'sans-serif Bold';letter-spacing:0px;word-spacing:0px;fill:#cfd1d7;fill-opacity:1;stroke:none;stroke-width:0.09939738"
       xml:space="preserve"><tspan
         style="font-style:normal;font-variant:normal;font-weight:normal;font-stretch:normal;font-family:sans-serif;-inkscape-font-specification:sans-serif;fill:#cfd1d7;fill-opacity:1;stroke-width:0.09939738"
         y="107.80434"
         x="78.361107"
         id="tspan1023"
         sodipodi:role="line">0.0083</tspan></text>
    <text
       id="text1029"
       y="115.44355"
       x="39.043533"
       style="font-style:normal;font-variant:normal;font-weight:bold;font-stretch:normal;font-size:3.22385931px;line-height:1.25;font-family:sans-serif;-inkscape-font-specification:'sans-serif Bold';letter-spacing:0px;word-spacing:0px;fill:#cfd1d7;fill-opacity:1;stroke:none;stroke-width:0.08059648"
       xml:space="preserve"><tspan
         style="font-style:normal;font-variant:normal;font-weight:normal;font-stretch:normal;font-family:sans-serif;-inkscape-font-specification:sans-serif;fill:#cfd1d7;fill-opacity:1;stroke-width:0.08059648"
         y="115.44355"
         x="39.043533"
         id="tspan1027"
         sodipodi:role="line">Jun 15, 2021</tspan></text>
  </g>
</svg>
