<?xml version="1.0" encoding="UTF-8" standalone="no"?>
<!-- Created with Inkscape (http://www.inkscape.org/) -->

<svg
   xmlns:dc="http://purl.org/dc/elements/1.1/"
   xmlns:cc="http://creativecommons.org/ns#"
   xmlns:rdf="http://www.w3.org/1999/02/22-rdf-syntax-ns#"
   xmlns:svg="http://www.w3.org/2000/svg"
   xmlns="http://www.w3.org/2000/svg"
   xmlns:sodipodi="http://sodipodi.sourceforge.net/DTD/sodipodi-0.dtd"
   xmlns:inkscape="http://www.inkscape.org/namespaces/inkscape"
   width="179.60512mm"
   height="44.106152mm"
   viewBox="0 0 179.60512 44.106151"
   version="1.1"
   id="svg8014"
   inkscape:version="0.92.5 (2060ec1f9f, 2020-04-08)"
   sodipodi:docname="landing-page-text-christmas.svg">
  <defs
     id="defs8008" />
  <sodipodi:namedview
     id="base"
     pagecolor="#ffffff"
     bordercolor="#666666"
     borderopacity="1.0"
     inkscape:pageopacity="0.0"
     inkscape:pageshadow="2"
     inkscape:zoom="1.4142136"
     inkscape:cx="385.77754"
     inkscape:cy="111.57432"
     inkscape:document-units="mm"
     inkscape:current-layer="layer1"
     showgrid="false"
     fit-margin-top="0"
     fit-margin-left="0"
     fit-margin-right="0"
     fit-margin-bottom="0"
     inkscape:window-width="1848"
     inkscape:window-height="1016"
     inkscape:window-x="72"
     inkscape:window-y="1107"
     inkscape:window-maximized="1"
     inkscape:snap-nodes="false"
     showguides="true"
     inkscape:guide-bbox="true">
    <sodipodi:guide
       position="79.896049,31.63614"
       orientation="1,0"
       id="guide975"
       inkscape:locked="false" />
  </sodipodi:namedview>
  <metadata
     id="metadata8011">
    <rdf:RDF>
      <cc:Work
         rdf:about="">
        <dc:format>image/svg+xml</dc:format>
        <dc:type
           rdf:resource="http://purl.org/dc/dcmitype/StillImage" />
        <dc:title></dc:title>
      </cc:Work>
    </rdf:RDF>
  </metadata>
  <g
     inkscape:label="Layer 1"
     inkscape:groupmode="layer"
     id="layer1"
     transform="translate(79.564499,-100.54385)">
    <g
       id="g1466"
       transform="translate(0,104.75421)">
      <path
         inkscape:connector-curvature="0"
         id="path1135"
         style="font-style:normal;font-variant:normal;font-weight:bold;font-stretch:normal;font-size:13.94157696px;line-height:1.25;font-family:'TT Hoves';-inkscape-font-specification:'TT Hoves Bold';letter-spacing:-0.18124057px;word-spacing:0px;fill:#002236;fill-opacity:1;stroke:none;stroke-width:0.34853938"
         d="m -54.354286,20.169604 v -9.75911 h 3.62481 q 1.993646,0 3.35992,1.4081 1.380216,1.39416 1.380216,3.47146 0,2.07729 -1.380216,3.48539 -1.366274,1.39416 -3.35992,1.39416 z m 2.230652,-2.16095 h 1.394158 q 1.05956,0 1.784522,-0.76678 0.724962,-0.76679 0.724962,-1.95182 0,-1.18504 -0.724962,-1.95183 -0.724962,-0.76678 -1.784522,-0.76678 h -1.394158 z" />
      <path
         inkscape:connector-curvature="0"
         id="path1137"
         style="font-style:normal;font-variant:normal;font-weight:bold;font-stretch:normal;font-size:13.94157696px;line-height:1.25;font-family:'TT Hoves';-inkscape-font-specification:'TT Hoves Bold';letter-spacing:-0.18124057px;word-spacing:0px;fill:#002236;fill-opacity:1;stroke:none;stroke-width:0.34853938"
         d="m -38.781558,19.277344 q -1.031676,1.03167 -2.648899,1.03167 -1.617223,0 -2.662841,-1.03167 -1.031677,-1.04562 -1.031677,-2.66285 0,-1.61722 1.031677,-2.64889 1.045618,-1.04562 2.662841,-1.04562 1.617223,0 2.648899,1.04562 1.045619,1.03167 1.045619,2.64889 0,1.61723 -1.045619,2.66285 z m -3.80605,-1.39416 q 0.460072,0.47401 1.157151,0.47401 0.697079,0 1.143209,-0.47401 0.460072,-0.48796 0.460072,-1.26869 0,-0.78072 -0.460072,-1.25474 -0.44613,-0.48795 -1.143209,-0.48795 -0.697079,0 -1.157151,0.48795 -0.446131,0.47402 -0.446131,1.25474 0,0.78073 0.446131,1.26869 z" />
      <path
         inkscape:connector-curvature="0"
         id="path1139"
         style="font-style:normal;font-variant:normal;font-weight:bold;font-stretch:normal;font-size:13.94157696px;line-height:1.25;font-family:'TT Hoves';-inkscape-font-specification:'TT Hoves Bold';letter-spacing:-0.18124057px;word-spacing:0px;fill:#002236;fill-opacity:1;stroke:none;stroke-width:0.34853938"
         d="m -36.592752,20.169604 v -7.11021 h 1.812405 l 0.139415,0.62737 h 0.06971 q 0.167299,-0.19518 0.474014,-0.37642 0.599488,-0.39036 1.477807,-0.39036 1.254742,0 2.049412,0.82255 0.808611,0.80861 0.808611,2.10518 v 4.32189 h -2.091236 v -3.90364 q 0,-0.58555 -0.376423,-0.94803 -0.362481,-0.37642 -0.948027,-0.37642 -0.585546,0 -0.961969,0.37642 -0.362481,0.36248 -0.362481,0.94803 v 3.90364 z" />
      <path
         inkscape:connector-curvature="0"
         id="path1141"
         style="font-style:normal;font-variant:normal;font-weight:bold;font-stretch:normal;font-size:13.94157696px;line-height:1.25;font-family:'TT Hoves';-inkscape-font-specification:'TT Hoves Bold';letter-spacing:-0.18124057px;word-spacing:0px;fill:#002236;fill-opacity:1;stroke:none;stroke-width:0.34853938"
         d="m -28.339344,13.756474 v -3.34598 h 1.882113 v 3.34598 z" />
      <path
         inkscape:connector-curvature="0"
         id="path1143"
         style="font-style:normal;font-variant:normal;font-weight:bold;font-stretch:normal;font-size:13.94157696px;line-height:1.25;font-family:'TT Hoves';-inkscape-font-specification:'TT Hoves Bold';letter-spacing:-0.18124057px;word-spacing:0px;fill:#002236;fill-opacity:1;stroke:none;stroke-width:0.34853938"
         d="m -24.268415,18.217784 v -3.20657 h -1.115326 v -1.95182 h 1.115326 v -2.23065 h 2.091236 v 2.23065 h 1.603282 v 1.95182 h -1.603282 v 2.71861 q 0,0.48796 0.487956,0.48796 h 1.115326 v 1.95182 h -1.672989 q -2.021529,0 -2.021529,-1.95182 z" />
      <path
         inkscape:connector-curvature="0"
         id="path1145"
         style="font-style:normal;font-variant:normal;font-weight:bold;font-stretch:normal;font-size:13.94157696px;line-height:1.25;font-family:'TT Hoves';-inkscape-font-specification:'TT Hoves Bold';letter-spacing:-0.18124057px;word-spacing:0px;fill:#002236;fill-opacity:1;stroke:none;stroke-width:0.34853938"
         d="m -15.568903,20.169604 v -9.75911 h 2.091237 v 9.75911 z" />
      <path
         inkscape:connector-curvature="0"
         id="path1147"
         style="font-style:normal;font-variant:normal;font-weight:bold;font-stretch:normal;font-size:13.94157696px;line-height:1.25;font-family:'TT Hoves';-inkscape-font-specification:'TT Hoves Bold';letter-spacing:-0.18124057px;word-spacing:0px;fill:#002236;fill-opacity:1;stroke:none;stroke-width:0.34853938"
         d="m -7.245797,18.008654 h 2.0912366 q -0.2509484,0.65526 -0.7110205,1.15715 -1.087443,1.14321 -2.7046659,1.14321 -1.6172232,0 -2.6628412,-1.03167 -1.031677,-1.04562 -1.031677,-2.66285 0,-1.61722 1.031677,-2.64889 1.045618,-1.04562 2.6628412,-1.04562 1.5614566,0 2.5931333,1.01773 1.0316767,1.01774 1.0316767,2.53737 0,0.19518 -0.041825,0.52978 l -0.027883,0.1673 h -5.1583832 q 0.05577,0.64131 0.487955,1.05956 0.4461304,0.4043 1.1153261,0.4043 0.5576631,0 1.0037935,-0.30671 0.2230653,-0.1673 0.3206564,-0.32066 z m -2.927731,-2.09123 h 3.2065626 q -0.3067147,-1.39416 -1.6032814,-1.39416 -1.2965666,0 -1.6032812,1.39416 z" />
      <path
         inkscape:connector-curvature="0"
         id="path1149"
         style="font-style:normal;font-variant:normal;font-weight:bold;font-stretch:normal;font-size:13.94157696px;line-height:1.25;font-family:'TT Hoves';-inkscape-font-specification:'TT Hoves Bold';letter-spacing:-0.18124057px;word-spacing:0px;fill:#002236;fill-opacity:1;stroke:none;stroke-width:0.34853938"
         d="m -3.3839986,18.217784 v -3.20657 h -1.1153261 v -1.95182 h 1.1153261 v -2.23065 h 2.0912366 v 2.23065 h 1.60328134 v 1.95182 H -1.292762 v 2.71861 q 0,0.48796 0.48795518,0.48796 h 1.11532616 v 1.95182 H -1.3624699 q -2.0215287,0 -2.0215287,-1.95182 z" />
      <path
         inkscape:connector-curvature="0"
         id="path1151"
         style="font-style:normal;font-variant:normal;font-weight:bold;font-stretch:normal;font-size:13.94157696px;line-height:1.25;font-family:'TT Hoves';-inkscape-font-specification:'TT Hoves Bold';letter-spacing:-0.18124057px;word-spacing:0px;fill:#002236;fill-opacity:1;stroke:none;stroke-width:0.34853938"
         d="m 4.8275492,22.957914 v -1.95182 h 1.3941576 q 0.4182474,0 0.4879552,-0.27883 L 6.77937,20.518144 3.9213468,13.059394 H 6.151999 l 1.6729892,4.46131 h 0.2788315 l 1.3941577,-4.46131 H 11.72863 l -2.9277314,8.22553 q -0.3206563,0.92015 -0.8364946,1.29657 -0.5158384,0.37642 -1.6729893,0.37642 z" />
      <path
         inkscape:connector-curvature="0"
         id="path1153"
         style="font-style:normal;font-variant:normal;font-weight:bold;font-stretch:normal;font-size:13.94157696px;line-height:1.25;font-family:'TT Hoves';-inkscape-font-specification:'TT Hoves Bold';letter-spacing:-0.18124057px;word-spacing:0px;fill:#002236;fill-opacity:1;stroke:none;stroke-width:0.34853938"
         d="m 18.169626,19.277344 q -1.031677,1.03167 -2.6489,1.03167 -1.617223,0 -2.662841,-1.03167 -1.031677,-1.04562 -1.031677,-2.66285 0,-1.61722 1.031677,-2.64889 1.045618,-1.04562 2.662841,-1.04562 1.617223,0 2.6489,1.04562 1.045618,1.03167 1.045618,2.64889 0,1.61723 -1.045618,2.66285 z m -3.806051,-1.39416 q 0.460072,0.47401 1.157151,0.47401 0.697079,0 1.143209,-0.47401 0.460072,-0.48796 0.460072,-1.26869 0,-0.78072 -0.460072,-1.25474 -0.44613,-0.48795 -1.143209,-0.48795 -0.697079,0 -1.157151,0.48795 -0.44613,0.47402 -0.44613,1.25474 0,0.78073 0.44613,1.26869 z" />
      <path
         inkscape:connector-curvature="0"
         id="path1155"
         style="font-style:normal;font-variant:normal;font-weight:bold;font-stretch:normal;font-size:13.94157696px;line-height:1.25;font-family:'TT Hoves';-inkscape-font-specification:'TT Hoves Bold';letter-spacing:-0.18124057px;word-spacing:0px;fill:#002236;fill-opacity:1;stroke:none;stroke-width:0.34853938"
         d="m 20.358433,17.381284 v -4.32189 h 2.091236 v 3.90364 q 0,0.58555 0.362481,0.96197 0.376423,0.36248 0.961969,0.36248 0.585547,0 0.948028,-0.36248 0.376422,-0.37642 0.376422,-0.96197 v -3.90364 h 2.091237 v 7.11021 h -1.812405 l -0.139416,-0.62737 h -0.06971 q -0.167299,0.19518 -0.474014,0.39036 -0.571604,0.37642 -1.477807,0.37642 -1.254742,0 -2.063353,-0.80861 -0.79467,-0.82255 -0.79467,-2.11912 z" />
      <path
         inkscape:connector-curvature="0"
         id="path1157"
         style="font-style:normal;font-variant:normal;font-weight:bold;font-stretch:normal;font-size:13.94157696px;line-height:1.25;font-family:'TT Hoves';-inkscape-font-specification:'TT Hoves Bold';letter-spacing:-0.18124057px;word-spacing:0px;fill:#002236;fill-opacity:1;stroke:none;stroke-width:0.34853938"
         d="m 28.681538,20.169604 v -7.11021 h 1.812405 l 0.139416,0.55767 h 0.06971 q 0.139416,-0.1673 0.292774,-0.27884 0.376422,-0.27883 0.961968,-0.27883 h 1.32445 v 1.95182 h -1.254742 q -1.254742,0 -1.254742,1.25475 v 3.90364 z" />
      <path
         inkscape:connector-curvature="0"
         id="path1159"
         style="font-style:normal;font-variant:normal;font-weight:bold;font-stretch:normal;font-size:13.94157696px;line-height:1.25;font-family:'TT Hoves';-inkscape-font-specification:'TT Hoves Bold';letter-spacing:-0.18124057px;word-spacing:0px;fill:#002236;fill-opacity:1;stroke:none;stroke-width:0.34853938"
         d="m 38.0084,20.169604 v -5.15839 h -1.115326 v -1.95182 H 38.0084 v -0.97591 q 0,-1.95182 2.021529,-1.95182 h 1.603281 v 1.7427 h -1.045618 q -0.487955,0 -0.487955,0.48795 v 0.69708 h 1.533573 v 1.95182 h -1.533573 v 5.15839 z" />
      <path
         inkscape:connector-curvature="0"
         id="path1161"
         style="font-style:normal;font-variant:normal;font-weight:bold;font-stretch:normal;font-size:13.94157696px;line-height:1.25;font-family:'TT Hoves';-inkscape-font-specification:'TT Hoves Bold';letter-spacing:-0.18124057px;word-spacing:0px;fill:#002236;fill-opacity:1;stroke:none;stroke-width:0.34853938"
         d="m 42.706707,17.381284 v -4.32189 h 2.091237 v 3.90364 q 0,0.58555 0.362481,0.96197 0.376422,0.36248 0.961969,0.36248 0.585546,0 0.948027,-0.36248 0.376422,-0.37642 0.376422,-0.96197 v -3.90364 h 2.091237 v 7.11021 h -1.812405 l -0.139416,-0.62737 h -0.06971 q -0.167299,0.19518 -0.474013,0.39036 -0.571605,0.37642 -1.477808,0.37642 -1.254741,0 -2.063353,-0.80861 -0.79467,-0.82255 -0.79467,-2.11912 z" />
      <path
         inkscape:connector-curvature="0"
         id="path1163"
         style="font-style:normal;font-variant:normal;font-weight:bold;font-stretch:normal;font-size:13.94157696px;line-height:1.25;font-family:'TT Hoves';-inkscape-font-specification:'TT Hoves Bold';letter-spacing:-0.18124057px;word-spacing:0px;fill:#002236;fill-opacity:1;stroke:none;stroke-width:0.34853938"
         d="m 51.029812,20.169604 v -7.11021 h 1.812405 l 0.139416,0.62737 h 0.06971 q 0.167299,-0.19518 0.474013,-0.37642 0.599488,-0.39036 1.477807,-0.39036 1.254742,0 2.049412,0.82255 0.808612,0.80861 0.808612,2.10518 v 4.32189 H 55.76995 v -3.90364 q 0,-0.58555 -0.376422,-0.94803 -0.362481,-0.37642 -0.948028,-0.37642 -0.585546,0 -0.961968,0.37642 -0.362481,0.36248 -0.362481,0.94803 v 3.90364 z" />
      <path
         inkscape:connector-curvature="0"
         id="path1165"
         style="font-style:normal;font-variant:normal;font-weight:bold;font-stretch:normal;font-size:13.94157696px;line-height:1.25;font-family:'TT Hoves';-inkscape-font-specification:'TT Hoves Bold';letter-spacing:-0.18124057px;word-spacing:0px;fill:#002236;fill-opacity:1;stroke:none;stroke-width:0.34853938"
         d="m 64.511314,20.169604 -0.139416,-0.69708 h -0.06971 q -0.195182,0.22306 -0.460072,0.41825 -0.641313,0.41824 -1.491749,0.41824 -1.435982,0 -2.425834,-1.04562 -0.989852,-1.04561 -0.989852,-2.6489 0,-1.60328 0.989852,-2.64889 0.989852,-1.04562 2.425834,-1.04562 0.766787,0 1.380216,0.34854 0.195182,0.11153 0.432189,0.34854 h 0.06971 v -3.20657 h 2.091237 v 9.75911 z m -3.039264,-2.28642 q 0.460072,0.47401 1.157151,0.47401 0.697079,0 1.143209,-0.47401 0.460072,-0.48796 0.460072,-1.26869 0,-0.78072 -0.460072,-1.25474 -0.44613,-0.48795 -1.143209,-0.48795 -0.697079,0 -1.157151,0.48795 -0.446131,0.47402 -0.446131,1.25474 0,0.78073 0.446131,1.26869 z" />
      <path
         style="fill:#34a13c;fill-opacity:1;stroke:none;stroke-width:0.14991298;stroke-linecap:butt;stroke-linejoin:round;stroke-miterlimit:4;stroke-dasharray:none;stroke-opacity:1"
         d="m 84.531589,9.6374338 c 0,0 1.234,1.0076002 1.2194,1.3589002 -0.026,0.6278 -1.0612,1.3455 -1.0612,1.3455 0,0 1.0228,1.0062 0.9985,1.3031 -0.036,0.4463 -1.1499,0.9779 -1.1499,0.9779 0,0 0.9231,0.8986 0.9075,1.2438 -0.016,0.3472 -1.2563,1.1625 -1.2563,1.1625 0,0 1.1725,0.7977 1.2015,1.1334 0.02,0.2355 -1.1456,1.0562 -1.1456,1.0562 0,0 1.1275,0.8474 1.1422,1.0807 0.032,0.5151 -1.1993,1.07 -1.1993,1.07 0,0 1.2846,0.6865 1.309,0.9319 0.035,0.354 -0.7763,1.4589 -0.7763,1.4589 0,0 1.2511,-0.021 1.4054,0.174 0.2508,0.3173 -0.2275,1.9944 -0.2275,1.9944 0,0 1.0784,-1.0381 1.4724,-0.9637 0.309,0.058 0.761,1.5247 0.761,1.5247 0,0 0.467,-1.5757 0.7782,-1.7121 0.1917,-0.084 1.4189,0.9102 1.4189,0.9102 0,0 0.072,-1.5223 0.2944,-1.6732 0.2129,-0.1442 1.6197,0.1607 1.6197,0.1607 0,0 -0.065,-1.0913 0.107,-1.2315 0.2133,-0.1736 1.1913,0.067 1.1913,0.067 0,0 -0.057,-1.2482 0.1874,-1.4188 0.2118,-0.1481 1.1377,0.2811 1.1377,0.2811 l -2.4896,3.44 -4.5777,2.0479 -3.2392,-0.8165 -1.3251,-2.0345 0.281,-12.7025 0.589,-1.1779 z"
         id="path1167"
         inkscape:connector-curvature="0"
         sodipodi:nodetypes="cscscscscscscscscscscscscccccccc" />
      <path
         style="fill:#77b52a;fill-opacity:1;stroke:none;stroke-width:0.10142651;stroke-linecap:butt;stroke-linejoin:miter;stroke-miterlimit:4;stroke-dasharray:none;stroke-opacity:1"
         d="m 78.220889,12.457534 c 0,0 -6.2443,1.3651 -6.3749,1.3215 -0.082,0.025 -1.04,-0.512 -1.2888,-0.5918 -0.2814,-0.2178 -0.8186,0.1428 -0.3957,0.5047 l 0.9003,0.7841 -0.3231,-0.092 c -0.7732,-0.055 -0.4787,0.3743 0.085,0.3639 l 0.01,0.3379 -0.8133,0.4501 c -0.2305,0.1226 -0.2799,0.5766 0.1599,0.5228 l 1.0018,-0.1452 -0.6042,0.2319 c -0.3832,0.2791 0.1669,0.6514 0.5547,0.4539 l 2.4892,-0.8891 3.2813,-0.9426 z"
         id="path1169"
         inkscape:connector-curvature="0"
         sodipodi:nodetypes="cccccccccccccccc" />
      <ellipse
         style="opacity:1;fill:#f0f0f1;fill-opacity:1;stroke:none;stroke-width:0.09328464;stroke-linecap:round;stroke-linejoin:round;stroke-miterlimit:4;stroke-dasharray:none;stroke-dashoffset:0;stroke-opacity:1"
         id="ellipse1171"
         cx="81.615509"
         cy="33.356232"
         rx="16.743593"
         ry="3.4551837" />
      <path
         sodipodi:nodetypes="cccccccccccccc"
         inkscape:connector-curvature="0"
         id="path1173"
         d="m 79.907689,29.733934 c 0.06,1.1207 0.2441,3.1992 0.1799,3.3623 -0.099,0.1749 -1.1609,0.8545 -1.7413,1.2817 -0.1469,0.087 -0.2888,0.02 -0.2472,-0.2471 l 0.072,-0.3676 -0.9948,0.3204 c -0.4175,0.088 -0.5121,-0.3472 -0.3202,-0.5071 l 0.6155,-0.507 -0.5311,-0.01 c -0.5227,-0.01 -0.3326,-0.3837 -0.09,-0.4774 l 1.2533,-0.4267 -0.081,-3.0428 1.8256,0.012 z"
         style="fill:#77b52a;fill-opacity:1;stroke:none;stroke-width:0.08629426;stroke-linecap:butt;stroke-linejoin:miter;stroke-miterlimit:4;stroke-dasharray:none;stroke-opacity:1" />
      <path
         inkscape:connector-curvature="0"
         style="fill:#d3d95d;fill-opacity:1;stroke:none;stroke-width:0.07495651;stroke-linecap:butt;stroke-linejoin:round;stroke-miterlimit:4;stroke-dasharray:none;stroke-opacity:1"
         d="m 75.380089,28.449334 c 0.3402,0.1345 0.6968,0.229 1.0558,0.2563 0.3726,0.028 0.7462,-0.01 1.1027,-0.1287 0.1783,-0.06 0.3521,-0.1396 0.5194,-0.2424 0.1673,-0.1027 0.3283,-0.2284 0.48,-0.3782 l -3.686,-0.069 c 0.1665,0.1954 0.3383,0.3861 0.5281,0.5622 z"
         id="path1175" />
      <path
         sodipodi:nodetypes="ccccccccccccccccccccccccccsccccccccccccscccccccccc"
         inkscape:connector-curvature="0"
         style="fill:#d3d95d;fill-opacity:1;stroke:none;stroke-width:0.07495651;stroke-linecap:butt;stroke-linejoin:round;stroke-miterlimit:4;stroke-dasharray:none;stroke-opacity:1"
         d="m 73.388989,11.123234 0.3995,0.1204 -0.3638,1.6883 h 5.3e-4 l -0.2641,1.2273 -0.029,0.1379 c -0.1099,0.7561 -0.176,1.0129 -0.3752,2.3901 v 0 c -0.028,0.1962 0,0.078 -0.037,0.3405 -0.016,0.2059 -0.026,0.5121 -0.032,0.7612 -0.013,0.4657 -0.032,0.9143 -0.029,1.4232 h -5.3e-4 c 0,0.3513 -0.034,0.6123 -0.02,0.9824 h -5.3e-4 c 0.011,0.2817 -2e-4,0.542 0.024,0.8314 0.021,0.3058 0.01,0.5867 0.045,0.8987 h 0.001 c 0.066,0.5772 0.1546,1.161 0.2816,1.7384 h -5.3e-4 c 0.071,0.3207 0.1144,0.6463 0.2083,0.9601 h 5.3e-4 c 0.2347,0.7852 0.5355,1.546 0.9457,2.235 0.2138,0.3593 0.4386,0.7117 0.709,1.0289 0.1665,0.1954 0.3383,0.3862 0.5281,0.5623 0.3402,0.1345 0.6967,0.229 1.0558,0.2563 0.3726,0.028 0.7462,-0.01 1.1027,-0.1287 0.1783,-0.06 0.3521,-0.1396 0.5194,-0.2424 0.1673,-0.1027 0.3284,-0.2284 0.48,-0.3782 0.2749,-0.2715 0.5173,-0.627 0.7189,-1.0739 0.1622,-0.3597 0.3046,-0.7615 0.4036,-1.2495 0.02,-0.098 0.045,-0.1851 0.062,-0.2884 l 0.025,-0.1581 c 0.019,-0.2173 0.028,-0.4024 0.042,-0.6046 h 5.3e-4 c 0.033,-0.4771 0.066,-0.9514 0.1002,-1.4263 0.023,-0.3276 0.049,-0.6664 0.069,-0.9844 0.029,-0.4727 0.081,-1.0041 0.1028,-1.463 h -5.3e-4 c 0.024,-0.5044 0.03,-1.0005 0.041,-1.4955 0.011,-0.4885 0.04,-0.9871 0.04,-1.4759 0,-0.4272 -0.01,-0.8658 -0.021,-1.3001 h 5.3e-4 c -0.023,-0.73 -0.051,-1.4624 -0.11,-2.2361 -0.037,-0.4862 -0.09,-1.0025 -0.1437,-1.5172 -0.033,-0.314 -0.047,-0.7259 -0.1,-1.1994 -0.5355,0.068 -1.0512,0.12 -1.5612,0.1498 -0.5099,0.03 -1.0149,0.037 -1.5296,0.015 -0.5147,-0.022 -1.0388,-0.072 -1.5885,-0.1591 -0.5372,-0.085 -1.101,-0.2069 -1.7002,-0.3669 z"
         id="path1177" />
      <path
         inkscape:connector-curvature="0"
         style="fill:#efecc3;fill-opacity:1;stroke:none;stroke-width:0.07495651;stroke-linecap:butt;stroke-linejoin:round;stroke-miterlimit:4;stroke-dasharray:none;stroke-opacity:1"
         d="m 78.537989,27.956334 c 0.2749,-0.2715 0.5173,-0.627 0.7189,-1.0739 l -5.1139,-0.024 c 0.2138,0.3593 0.4386,0.7117 0.709,1.0289 z"
         id="path1179" />
      <path
         inkscape:connector-curvature="0"
         style="fill:#d3d95d;fill-opacity:1;stroke:none;stroke-width:0.07495651;stroke-linecap:butt;stroke-linejoin:round;stroke-miterlimit:4;stroke-dasharray:none;stroke-opacity:1"
         d="m 74.142989,26.858134 5.1139,0.024 c 0.1622,-0.3597 0.3046,-0.7615 0.4036,-1.2495 l -6.4632,-1.0098 c 0.2347,0.7852 0.5355,1.546 0.9457,2.235 z"
         id="path1181" />
      <path
         inkscape:connector-curvature="0"
         style="fill:#efecc3;fill-opacity:1;stroke:none;stroke-width:0.07495651;stroke-linecap:butt;stroke-linejoin:round;stroke-miterlimit:4;stroke-dasharray:none;stroke-opacity:1"
         d="m 79.660489,25.632934 h 5.3e-4 c 0.02,-0.098 0.045,-0.1851 0.062,-0.2884 l 0.025,-0.1581 c 0.019,-0.2173 0.028,-0.4024 0.042,-0.6046 l -6.8012,-0.9188 c 0.071,0.3207 0.1145,0.6463 0.20831,0.9601 z"
         id="path1183" />
      <path
         inkscape:connector-curvature="0"
         style="fill:#d3d95d;fill-opacity:1;stroke:none;stroke-width:0.07495651;stroke-linecap:butt;stroke-linejoin:round;stroke-miterlimit:4;stroke-dasharray:none;stroke-opacity:1"
         d="m 79.790189,24.581834 c 0.033,-0.4771 0.066,-0.9514 0.1002,-1.4263 l -7.183,-1.2309 c 0.066,0.5772 0.1546,1.161 0.2816,1.7384 z"
         id="path1185" />
      <path
         inkscape:connector-curvature="0"
         style="fill:#efecc3;fill-opacity:1;stroke:none;stroke-width:0.07495651;stroke-linecap:butt;stroke-linejoin:round;stroke-miterlimit:4;stroke-dasharray:none;stroke-opacity:1"
         d="m 79.890389,23.155534 h 5.3e-4 c 0.023,-0.3276 0.049,-0.6664 0.069,-0.9844 l -7.2978,-1.1452 c 0.021,0.3058 0.01,0.5867 0.045,0.8987 z"
         id="path1187" />
      <path
         inkscape:connector-curvature="0"
         style="fill:#d3d95d;fill-opacity:1;stroke:none;stroke-width:0.07495651;stroke-linecap:butt;stroke-linejoin:round;stroke-miterlimit:4;stroke-dasharray:none;stroke-opacity:1"
         d="m 79.959689,22.171134 c 0.029,-0.4727 0.081,-1.0041 0.1028,-1.463 l -7.4249,-0.5136 c 0.011,0.2817 0,0.542 0.024,0.8314 z"
         id="path1189" />
      <path
         inkscape:connector-curvature="0"
         style="fill:#efecc3;fill-opacity:1;stroke:none;stroke-width:0.07495651;stroke-linecap:butt;stroke-linejoin:round;stroke-miterlimit:4;stroke-dasharray:none;stroke-opacity:1"
         d="m 80.061989,20.708134 c 0.024,-0.5044 0.03,-1.0005 0.041,-1.4955 l -7.445,-5e-4 c 0,0.3513 -0.034,0.6123 -0.02,0.9824 z"
         id="path1191" />
      <path
         inkscape:connector-curvature="0"
         style="fill:#d3d95d;fill-opacity:1;stroke:none;stroke-width:0.07495651;stroke-linecap:butt;stroke-linejoin:round;stroke-miterlimit:4;stroke-dasharray:none;stroke-opacity:1"
         d="m 80.102789,19.212634 c 0.011,-0.4885 0.04,-0.9871 0.04,-1.4759 l -7.4554,0.052 c -0.013,0.4657 -0.032,0.9143 -0.029,1.4232 z"
         id="path1193" />
      <path
         sodipodi:nodetypes="ccccccc"
         inkscape:connector-curvature="0"
         style="fill:#efecc3;fill-opacity:1;stroke:none;stroke-width:0.07495651;stroke-linecap:butt;stroke-linejoin:round;stroke-miterlimit:4;stroke-dasharray:none;stroke-opacity:1"
         d="m 80.142589,17.736734 h 5.3e-4 c 0,-0.4272 -0.01,-0.8658 -0.021,-1.3001 l -7.3654,0.2506 c -0.028,0.1962 0,0.084 -0.038,0.3468 -0.013,0.2132 -0.025,0.5058 -0.031,0.7549 z"
         id="path1195" />
      <path
         inkscape:connector-curvature="0"
         style="fill:#d3d95d;fill-opacity:1;stroke:none;stroke-width:0.07495651;stroke-linecap:butt;stroke-linejoin:round;stroke-miterlimit:4;stroke-dasharray:none;stroke-opacity:1"
         d="m 80.121889,16.436634 c -0.023,-0.73 -0.051,-1.4624 -0.11,-2.2361 l -6.8508,-0.041 -0.029,0.138 c -0.1099,0.7561 -0.176,1.0129 -0.3752,2.39 z"
         id="path1197" />
      <path
         inkscape:connector-curvature="0"
         style="fill:#efecc3;fill-opacity:1;stroke:none;stroke-width:0.07495651;stroke-linecap:butt;stroke-linejoin:round;stroke-miterlimit:4;stroke-dasharray:none;stroke-opacity:1"
         d="m 80.011889,14.200534 c -0.037,-0.4862 -0.09,-1.0025 -0.1437,-1.5172 l -6.443,0.2486 -0.2641,1.2273 z"
         id="path1199" />
      <path
         inkscape:connector-curvature="0"
         style="fill:#d3d95d;fill-opacity:1;stroke:none;stroke-width:0.07495651;stroke-linecap:butt;stroke-linejoin:round;stroke-miterlimit:4;stroke-dasharray:none;stroke-opacity:1"
         d="m 79.868189,12.683334 c -0.033,-0.314 -0.047,-0.7259 -0.1,-1.1994 -0.5355,0.068 -1.0507,0.12 -1.5607,0.1498 -0.5099,0.03 -1.0149,0.037 -1.5296,0.015 -0.5147,-0.022 -1.0388,-0.072 -1.5885,-0.1591 -0.5372,-0.085 -1.101,-0.2069 -1.7002,-0.3669 l 0.399,0.1204 -0.3633,1.6883 z"
         id="path1201" />
      <path
         inkscape:connector-curvature="0"
         id="path1203"
         d="m 78.219689,2.7199338 c -0.823,-0.1328 -1.7324,0.6311 -1.8769,1.2682 -0.2927,1.1894 -0.1759,1.1661 -0.2542,2.1828 -0.7868,0 -1.4682,0.053 -2.4701,0.038 -0.8062,-0.555 -1.94,-2.6231 -3.0479,-0.8423 -0.8411,-1.637 -1.6401,-0.3353 -1.7038,0.2082 -0.1729,1.1733 -0.3873,2.3203 0.9612,2.7327 0,-1.7e-4 0.01,-1.7e-4 0.01,0 0,1.7e-4 0.01,5e-4 0.01,10e-4 0.5329,0.063 1.0886,0.1658 1.6568,0.2915 0.56821,0.1257 1.14861,0.2741 1.7306,0.4263 1.1641,0.3045 2.33461,0.6251 3.4251,0.817 0.54541,0.096 1.0702,0.1595002 1.56331,0.1736002 0.49299,0.014 0.95379,-0.021 1.372,-0.1224002 0.20899,-0.051 0.4079,-0.1178 0.59479,-0.2031 0.18681,-0.085 0.3618,-0.1893 0.5245,-0.3142 0.1627,-0.1249 0.3128,-0.2708 0.4496,-0.4403 0.1367,-0.1695 0.2601,-0.3627 0.36891,-0.5819 -2.1e-4,-0.003 -2.1e-4,-0.007 0,-0.01 0,-0.004 0.01,-0.007 0.01,-0.01 0,-0.004 0.01,-0.007 0.01,-0.01 0,-0.004 0.01,-0.007 0.01,-0.01 0,-0.004 0.01,-0.007 0.01,-0.01 0,-0.004 0.01,-0.007 0.01,-0.01 0,-0.004 0.01,-0.007 0.01,-0.01 0,-1.7e-4 0.01,-1.7e-4 0.01,0 0,-1.7e-4 0.01,-1.7e-4 0.01,0 0,-1.7e-4 0.01,-1.7e-4 0.01,0 h 5.3e-4 c 0,-1.7e-4 0.01,-1.7e-4 0.01,0 0,-1.7e-4 0.01,-1.7e-4 0.01,0 0,-1.7e-4 0.01,-1.7e-4 0.01,0 0,-1.7e-4 0.01,-1.7e-4 0.01,0 0,-1.7e-4 0.01,-1.7e-4 0.01,0 0,-1.7e-4 0.01,-1.7e-4 0.01,0 0,-1.7e-4 0.01,-1.7e-4 0.01,0 0,0.003 0.01,0.006 0.01,0.01 0,0.003 0.01,0.006 0.01,0.01 0,0.003 0.01,0.006 0.01,0.01 0,0.003 0.01,0.006 0.01,0.01 0,0.003 0.01,0.006 0.01,0.01 2e-4,0.003 2e-4,0.007 0,0.01 2e-4,0.003 2e-4,0.007 0,0.01 2e-4,0.003 2e-4,0.007 0,0.01 2e-4,0.003 2e-4,0.007 0,0.01 2e-4,0.003 2e-4,0.007 0,0.01 0,0.003 -2e-4,0.007 -5.3e-4,0.01 -2e-4,0.003 -5.3e-4,0.007 -0.001,0.01 2e-4,0.003 2e-4,0.007 0,0.01 2e-4,0.003 2e-4,0.007 0,0.01 2e-4,0.003 2e-4,0.007 0,0.01 -0.1149,0.2313 -0.2461,0.4362 -0.3927,0.617 -0.1467,0.1808 -0.3085,0.3375 -0.4832,0.4718 -0.1748,0.1344 -0.3629,0.2466 -0.5623,0.3385 -0.1993,0.092 -0.4096,0.1635002 -0.6299,0.2170002 -0.4405,0.1071 -0.9189,0.1439 -1.4252,0.1297 -0.5063,-0.014 -1.0403,-0.08 -1.5922,-0.1767 -1.1039,-0.1942002 -2.2807,-0.5157002 -3.4432,-0.8196002 -0.5812,-0.1519 -1.1591,-0.2998 -1.7224,-0.4247 -0.5552,-0.1232 -1.0955,-0.2229 -1.6123,-0.2848 0.022,0.873 0.3045,1.4833 0.877,1.8051002 l 2.6675,0.8066 c 0.5992,0.16 1.163,0.282 1.7002,0.3669 0.5497,0.087 1.0738,0.1375 1.5885,0.1592 0.5147,0.022 1.0197,0.014 1.5296,-0.016 0.51,-0.03 1.0252,-0.082 1.5607,-0.1499 0.053,0.4736 0.067,0.8855 0.1002,1.1995 0.054,0.5146 0.1067,1.031 0.1437,1.5172 0.059,0.7737 0.087,1.5061 0.1101,2.236 0.014,0.4344 0.019,0.8729 0.021,1.3002 h -5.3e-4 c 0,0.4887 -0.029,0.9874 -0.04,1.4759 -0.011,0.495 -0.017,0.9911 -0.041,1.4955 h 5.3e-4 c -0.022,0.4589 -0.073,0.9902 -0.1023,1.4629 -0.02,0.3181 -0.046,0.6568 -0.069,0.9845 h -5.3e-4 c -0.034,0.4748 -0.067,0.9492 -0.1002,1.4263 -0.014,0.2021 -0.023,0.3873 -0.042,0.6046 l -0.025,0.1581 c -0.017,0.1032 -0.042,0.1906 -0.062,0.2883 -0.099,0.4881 -0.2414,0.8898 -0.4036,1.2496 l -5.3e-4,5.3e-4 c -0.2016,0.4465 -0.4441,0.802 -0.7189,1.0733 -0.1517,0.1499 -0.3127,0.2756 -0.48,0.3783 -0.1673,0.1027 -0.3411,0.1827 -0.5194,0.2424 -0.3565,0.1193 -0.7296,0.1569 -1.1022,0.1286 -0.3591,-0.027 -0.7161,-0.1217 -1.0563,-0.2563 0.6894,0.6393 1.5319,1.1476 2.5704,1.4547 1.6152,0.5022 3.2235,0.9807 4.8839,0.9772 5.7528,-0.012 7.7171,-1.2828 9.5555,-2.5642 3.0487,-2.2475 4.8469,-7.2956 4.1321,-7.5897 v 0 c -1.5673,-0.6426 -10.2245,12.4478 -12.2664,1.1359 -0.7778,-5.4519 2.162,-15.0261302 -1.1215,-18.2382002 -0.5732,-0.4474 -1.6226,-0.7201 -2.1703,0.5963 -0.2849,1.0694 -0.312581,0.0574 -1.086281,0.0326 -0.1523,-0.014 -0.272719,0.38964 -0.402019,-0.20666 -0.2013,-0.6061 -0.7023,-1.2241 -1.2542,-1.3271 z"
         style="fill:#a2cb41;fill-opacity:1;stroke:none;stroke-width:0.07495651;stroke-linecap:butt;stroke-linejoin:round;stroke-miterlimit:4;stroke-dasharray:none;stroke-opacity:1"
         sodipodi:nodetypes="cccccccccscccccsccccccccccccccccccccccccccccccccccccccccccccccccccccccccccccccccccccsccccccccccccccc" />
      <ellipse
         style="opacity:1;fill:#ffffff;fill-opacity:1;stroke:none;stroke-width:1.16194797;stroke-linecap:round;stroke-linejoin:round;stroke-miterlimit:4;stroke-dasharray:none;stroke-dashoffset:0;stroke-opacity:1"
         id="ellipse1205"
         cx="-82.233673"
         cy="5.4294276"
         rx="1.1546919"
         ry="1.571138"
         transform="scale(-1,1)" />
      <ellipse
         ry="0.7880007"
         rx="0.57913309"
         cy="14.036273"
         cx="-80.964058"
         id="ellipse1207"
         style="opacity:1;fill:#000000;fill-opacity:1;stroke:none;stroke-width:0.58277237;stroke-linecap:round;stroke-linejoin:round;stroke-miterlimit:4;stroke-dasharray:none;stroke-dashoffset:0;stroke-opacity:1"
         transform="matrix(-0.99457806,0.10399266,0.10399266,0.99457806,0,0)" />
      <ellipse
         ry="1.571138"
         rx="1.1546919"
         cy="4.9642177"
         cx="-77.930084"
         id="ellipse1209"
         style="opacity:1;fill:#ffffff;fill-opacity:1;stroke:none;stroke-width:1.16194797;stroke-linecap:round;stroke-linejoin:round;stroke-miterlimit:4;stroke-dasharray:none;stroke-dashoffset:0;stroke-opacity:1"
         transform="scale(-1,1)" />
      <ellipse
         style="opacity:1;fill:#000000;fill-opacity:1;stroke:none;stroke-width:0.58277237;stroke-linecap:round;stroke-linejoin:round;stroke-miterlimit:4;stroke-dasharray:none;stroke-dashoffset:0;stroke-opacity:1"
         id="ellipse1211"
         cx="-77.21566"
         cy="10.158425"
         rx="0.57913309"
         ry="0.7880007"
         transform="matrix(-0.99790194,0.06474351,0.06474351,0.99790194,0,0)" />
      <path
         sodipodi:nodetypes="cccccccccccccccccccccccccccccccc"
         inkscape:connector-curvature="0"
         id="path1213"
         d="m 71.337989,12.015534 c -0.9197,0.4271 -1.4151,0.9158 -1.7482,1.5637 -0.3401,0.6619 -0.3689,1.3043 -0.087,1.927 0.2697,0.5953 0.6647,0.979 1.1845,1.1519 0.5248,0.1596 1.2197,0.1095 2.0846,-0.1499 l 1.0924,-0.3292 c 0.3321,-0.095 0.5805,-0.1196 0.7452,-0.073 0.1647,0.047 0.2952,0.1754 0.3902,0.386 0.087,0.1923 0.065,0.4008 -0.065,0.6253 -0.1251,0.2112 -0.3664,0.3978 -0.7235,0.5597 -0.4762,0.2157 -0.8771,0.232 -1.2031,0.048 -0.132,-0.073 -0.2449,-0.1872 -0.3379,-0.3436 -0.1877,-0.3177 -2.1331,0.6534 -1.9508,0.9436 0.2108,0.3755 0.4617,0.6435 0.8868,0.9462 0.8931,0.5335 1.9899,0.5054 3.2902,-0.084 0.9799,-0.444 1.6447,-0.999 1.9942,-1.665 0.3491,-0.6661 0.3824,-1.3105 0.1003,-1.9333 -0.5725,-1.2637 -1.6825,-1.6433 -3.3306,-1.1394 l -1.0929,0.3292 c -0.5867,0.1665 -0.9442,0.1082 -1.0729,-0.1757 -0.083,-0.1832 -0.062,-0.3694 0.062,-0.5582 0.1201,-0.1978 0.3495,-0.3735 0.6883,-0.527 0.3938,-0.1785 0.7434,-0.2103 1.0496,-0.095 0.1197,0.045 0.2291,0.1172 0.3291,0.2155 0.066,0.1048 1.2005,-0.6512 1.1545,-0.8362 l -0.268,-0.214 -0.6477,0.3458 -0.2268,-0.6422 -0.4822,0.5595 -0.4395,-0.5978 -0.6566,0.6805 z"
         style="font-style:normal;font-variant:normal;font-weight:bold;font-stretch:normal;font-size:13.79998207px;line-height:1.25;font-family:'TT Hoves';-inkscape-font-specification:'TT Hoves Bold';letter-spacing:0px;word-spacing:0px;fill:#002236;fill-opacity:1;stroke:none;stroke-width:0.37701234" />
      <path
         sodipodi:nodetypes="cccccccccccccccc"
         inkscape:connector-curvature="0"
         id="path1215"
         d="m 84.092689,13.362534 c 0,0 -7.3026,2.8348 -7.4689,2.8068 -0.094,0.046 -1.3563,-0.4232 -1.6727,-0.4726 -0.3818,-0.2105 -0.9642,0.3279 -0.3835,0.6859 l 1.2386,0.7791 -1.8589,0.092 c -0.9467,0.08 -0.5192,0.9227 0.1619,0.8033 l 1.5315,-0.1133 -0.8995,0.699 c -0.2966,0.1802 -0.3254,0.8023 0.2924,0.6028 l 1.1857,-0.3655 -0.7614,0.6594 c -0.4112,0.4106 0.3452,0.7044 0.7771,0.3919 l 2.8999,-1.7593 3.7948,-1.7625 z"
         style="fill:#a2cb41;fill-opacity:1;stroke:none;stroke-width:0.12430493;stroke-linecap:butt;stroke-linejoin:miter;stroke-miterlimit:4;stroke-dasharray:none;stroke-opacity:1" />
      <ellipse
         style="opacity:1;fill:#000000;fill-opacity:1;stroke:none;stroke-width:0.08000798;stroke-linecap:round;stroke-linejoin:round;stroke-miterlimit:4;stroke-dasharray:none;stroke-dashoffset:0;stroke-opacity:1"
         id="ellipse1217"
         cx="71.488678"
         cy="5.4770808"
         rx="0.24716294"
         ry="0.35620543" />
      <path
         style="fill:#ffffff;stroke:none;stroke-width:0.03768452;stroke-linecap:butt;stroke-linejoin:miter;stroke-miterlimit:4;stroke-dasharray:none;stroke-opacity:1"
         d="m 81.377989,8.8896338 c 0.06,0.081 0.1245,0.1534 0.1598,0.2039 0.5795,0.8298 -0.264,0.7545 -0.52,0.4205 -0.037,-0.049 -0.1029,-0.1442 -0.1213,-0.1909 l -0.081,0.022 c 0.4084,2.0565002 -0.706,1.4751002 -0.8885,0.9213002 -0.038,-0.1135 -0.1527,-0.5442002 -0.1672,-0.6319002 l -0.4382,0.2537 c 0.1434,1.5330002 -0.6438,1.1744002 -0.8028,0.4181002 -0.02,-0.092 -0.023,-0.2506 -0.02,-0.3503002 l -1.0222,-0.043 c 0.011,0.2021002 0.038,0.5090002 0.01,0.6492002 -0.1261,0.6279 -0.6761,0.4733 -0.7205,-0.034 -0.012,-0.1298 -0.058,-0.5143 -0.043,-0.6685002 l -1.0246,-0.2352 c -0.028,0.2045 -0.085,0.4708002 -0.124,0.6094002 -0.1317,0.4639 -0.606,0.4229 -0.6545,-0.06 -0.017,-0.1727 0.035,-0.4740002 0.079,-0.6898002 l -1.0211,-0.2492 -0.032,0.371 c -0.068,0.7502002 -0.8512,0.6626002 -0.7714,0.01 l 0.037,-0.5992 -0.9009,-0.189 -0.1787,0.5003 c -0.1175,0.3378 -0.679,0.6172 -0.6399,-0.2021 l 0.045,-0.5379 -0.3441,-0.071 -0.1377,0.491 c -0.1716,0.5945 -0.7785,0.7066 -0.7999,-0.1811 l 0.049,-0.5673 0.1915,-0.5547 10.2172,-0.2191 z"
         id="path1219"
         inkscape:connector-curvature="0"
         sodipodi:nodetypes="cssccsccsccssccsscccccccccccccccc" />
      <path
         style="fill:#a2cb41;fill-opacity:1;stroke:none;stroke-width:0.26458332px;stroke-linecap:butt;stroke-linejoin:miter;stroke-opacity:1"
         d="m 69.882589,8.2596338 c 5.236,1.3676 10.3263,3.1128002 11.7098,0.2839 l -0.451,-1.6871 -10.4904,0.5679 z"
         id="path1221"
         inkscape:connector-curvature="0"
         sodipodi:nodetypes="ccccc" />
      <path
         style="fill:#ed1b24;fill-opacity:1;stroke:none;stroke-width:0.14024776px;stroke-linecap:butt;stroke-linejoin:miter;stroke-opacity:1"
         d="m 79.798689,9.9337338 c 0.122,-0.3962 0.1755,-0.7093 0.2093,-0.9912 0.1279,-1.2462 -0.9757,-0.9313 -1.1325,-0.1292 -0.2048,0.7396 -0.436,1.3520002 -0.4131,1.2827002 0.5055,-0.074 0.9253,0.1133 1.3363,-0.1623002 z"
         id="path1223"
         inkscape:connector-curvature="0"
         sodipodi:nodetypes="ccccc" />
      <path
         inkscape:connector-curvature="0"
         id="path1225"
         d="m 69.844989,8.5113338 c 0.5168,0.062 1.0571,0.1616 1.6123,0.2848 0.5633,0.1249 1.1412,0.2728 1.7224,0.4247 1.1625,0.3039 2.3393,0.6254 3.4432,0.8196002 0.5519,0.097 1.0859,0.1626 1.5922,0.1767 0.5063,0.014 0.9847,-0.023 1.4252,-0.1297 0.2203,-0.053 0.4306,-0.1251002 0.6299,-0.2170002 0.1994,-0.092 0.3875,-0.2041 0.5623,-0.3385 0.1747,-0.1343 0.3365,-0.291 0.4832,-0.4718 0.1466,-0.1808 0.2778,-0.3857 0.3927,-0.617 a 0.10001,0.10001 0 0 0 0,-0.01 0.10001,0.10001 0 0 0 0,-0.01 0.10001,0.10001 0 0 0 0,-0.01 0.10001,0.10001 0 0 0 0,-0.01 0.10001,0.10001 0 0 0 5.3e-4,-0.01 0.10001,0.10001 0 0 0 0,-0.01 0.10001,0.10001 0 0 0 0,-0.01 0.10001,0.10001 0 0 0 0,-0.01 0.10001,0.10001 0 0 0 0,-0.01 0.10001,0.10001 0 0 0 0,-0.01 0.10001,0.10001 0 0 0 -0.01,-0.01 0.10001,0.10001 0 0 0 -0.01,-0.01 0.10001,0.10001 0 0 0 -0.01,-0.01 0.10001,0.10001 0 0 0 -0.01,-0.01 0.10001,0.10001 0 0 0 -0.01,-0.01 0.10001,0.10001 0 0 0 -0.01,0 0.10001,0.10001 0 0 0 -0.01,0 0.10001,0.10001 0 0 0 -0.01,0 0.10001,0.10001 0 0 0 -0.01,0 0.10001,0.10001 0 0 0 -0.01,-10e-4 0.10001,0.10001 0 0 0 -0.01,0 0.10001,0.10001 0 0 0 -0.01,10e-4 h -5.3e-4 a 0.10001,0.10001 0 0 0 -0.01,0 0.10001,0.10001 0 0 0 -0.01,0 0.10001,0.10001 0 0 0 -0.01,0 0.10001,0.10001 0 0 0 -0.01,0.01 0.10001,0.10001 0 0 0 -0.01,0.01 0.10001,0.10001 0 0 0 -0.01,0.01 0.10001,0.10001 0 0 0 -0.01,0.01 0.10001,0.10001 0 0 0 -0.01,0.01 0.10001,0.10001 0 0 0 -0.01,0.01 0.10001,0.10001 0 0 0 0,0.01 c -0.10881,0.2192 -0.2322,0.4124 -0.3689,0.5819 -0.1368,0.1695 -0.28691,0.3154 -0.44961,0.4403 -0.1627,0.1249 -0.33769,0.2289 -0.52449,0.3142 -0.1869,0.085 -0.3858,0.1523 -0.5948,0.2031 -0.4182,0.1016002 -0.87901,0.1366002 -1.372,0.1224002 -0.4931,-0.014 -1.01791,-0.078 -1.5633,-0.1736002 -1.09051,-0.1919 -2.261,-0.5125 -3.4251,-0.817 -0.58201,-0.1522 -1.1624,-0.3006 -1.7306,-0.4263 -0.56821,-0.1257 -1.1239,-0.2287 -1.6568,-0.2915 a 0.10029478,0.10029478 0 0 0 -0.01,-10e-4 0.10029478,0.10029478 0 0 0 -0.01,0 c 0,6.1e-4 0,0 0,0 0,0.073 0.011,0.1319 0.012,0.2015 z"
         style="fill:#000000;fill-opacity:1;stroke:none;stroke-width:0.07495651;stroke-linecap:butt;stroke-linejoin:round;stroke-miterlimit:4;stroke-dasharray:none;stroke-opacity:1" />
      <path
         sodipodi:nodetypes="cccccccccccccc"
         inkscape:connector-curvature="0"
         id="path1227"
         d="m 84.779389,30.169034 c 0.038,1.1972 0.1606,3.3532 0,3.5915 -0.2541,0.311 -1.28,0.8313 -1.9814,1.2819 -0.4742,0.2705 -0.5203,-0.068 -0.4256,-0.2657 l 0.1189,-0.2408 -0.9215,0.1124 c -0.3035,0.062 -0.7165,-0.1329 -0.3272,-0.4854 l 0.606,-0.4886 h -0.721 c -0.328,0 -0.4043,-0.3755 -0.028,-0.4998 l 1.4922,-0.3346 0.045,-5.1945 1.8636,1.2869 z"
         style="fill:#a2cb41;fill-opacity:1;stroke:none;stroke-width:0.08629426;stroke-linecap:butt;stroke-linejoin:miter;stroke-miterlimit:4;stroke-dasharray:none;stroke-opacity:1" />
      <path
         inkscape:connector-curvature="0"
         style="fill:#d2d75f;fill-opacity:1;stroke:none;stroke-width:0.15666464px;stroke-linecap:butt;stroke-linejoin:miter;stroke-opacity:1"
         d="m 79.722189,25.344634 0.025,-0.1581 c 0,0.021 0,0.037 -0.01,0.059 -0.01,0.036 -0.015,0.064 -0.022,0.099 z"
         id="path1229" />
      <path
         sodipodi:nodetypes="ccccc"
         inkscape:connector-curvature="0"
         id="path1231"
         d="m 72.106989,31.477534 -0.7798,0.5541 c 0.5198,-0.019 1.1678,-0.1924 1.5308,0.041 l 0.7676,-0.4925 c -0.3691,-0.1759 -0.8595,-0.2264 -1.5186,-0.1026 z"
         style="fill:#002236;fill-opacity:1;stroke:none;stroke-width:0.3250356px;stroke-linecap:butt;stroke-linejoin:miter;stroke-opacity:1" />
      <path
         sodipodi:nodetypes="ccccc"
         inkscape:connector-curvature="0"
         id="path1233"
         d="m 73.558189,32.241634 1.1099,0.1183 -0.2517,-0.3228 0.2273,-0.4644 c -0.3664,0.2186 -0.7746,0.3983 -1.0855,0.6689 z"
         style="fill:#002236;fill-opacity:1;stroke:none;stroke-width:0.39992461px;stroke-linecap:butt;stroke-linejoin:miter;stroke-opacity:1" />
      <path
         sodipodi:nodetypes="ccsccc"
         inkscape:connector-curvature="0"
         id="path1235"
         d="m 73.076189,33.013034 0.3581,0.6036 c 0.1068,-0.1126 0.2551,-0.3179 0.359,-0.4324 0.1035,-0.1135 0.1441,-0.1765 0.1884,-0.3332 -0.185,-0.029 -0.38,0.01 -0.9055,0.1623 z"
         style="fill:#002236;fill-opacity:1;stroke:none;stroke-width:0.3606863px;stroke-linecap:butt;stroke-linejoin:miter;stroke-opacity:1" />
      <path
         sodipodi:nodetypes="cccccc"
         style="fill:#002236;fill-opacity:1;stroke:none;stroke-width:0.48934653px;stroke-linecap:butt;stroke-linejoin:miter;stroke-opacity:1"
         d="m 71.351689,32.840334 0.3426,0.1674 0.4726,0.1644 0.6579,-0.4414 c 0.2388,-0.4418 -0.9769,-0.1822 -1.4737,0.1095 z"
         id="path1237"
         inkscape:connector-curvature="0" />
      <path
         sodipodi:nodetypes="cccccc"
         inkscape:connector-curvature="0"
         id="path1239"
         d="m 76.461789,4.8006838 c 0.8248,-0.1569 2.054,-0.071 2.8853,0.3106 l -0.3812,-1.539 -0.874,-0.6969 -1.1221,0.3898 z"
         style="fill:#a2cb41;fill-opacity:1;stroke:none;stroke-width:0.26458332px;stroke-linecap:butt;stroke-linejoin:miter;stroke-opacity:1" />
      <path
         sodipodi:nodetypes="ccccccc"
         inkscape:connector-curvature="0"
         id="path1241"
         d="m 81.280989,4.4444838 -0.2785,0.7441 c 0.9611,-0.12 1.8257,-0.041 2.7509,0.4512 l -0.5352,-1.3607 -0.7324,-0.5197 -0.8268,0.071 z"
         style="fill:#a2cb41;fill-opacity:1;stroke:none;stroke-width:0.26458332px;stroke-linecap:butt;stroke-linejoin:miter;stroke-opacity:1" />
      <path
         sodipodi:nodetypes="cccc"
         inkscape:connector-curvature="0"
         id="path1243"
         d="m 69.344289,14.280534 c 0.4443,0.032 0.5207,0.4022 0.3186,0.602 -0.1,0.052 -0.2145,0.067 -0.3312,0.068 -0.2933,-0.01 -0.2226,-0.6637 0.013,-0.6697 z"
         style="fill:#77b52a;fill-opacity:1;stroke:none;stroke-width:0.00264583;stroke-linecap:butt;stroke-linejoin:miter;stroke-miterlimit:4;stroke-dasharray:none;stroke-opacity:1" />
      <path
         style="fill:#77b52a;fill-opacity:1;stroke:none;stroke-width:0.00264583;stroke-linecap:butt;stroke-linejoin:miter;stroke-miterlimit:4;stroke-dasharray:none;stroke-opacity:1"
         d="m 69.359089,15.214034 c 0.2424,-0.3353 0.709,-0.1007 0.6126,0.2301 -0.071,0.1647 -0.1408,0.189 -0.3842,0.2414 -0.2151,0.025 -0.3234,-0.3466 -0.2284,-0.4715 z"
         id="path1245"
         inkscape:connector-curvature="0"
         sodipodi:nodetypes="cccc" />
      <path
         inkscape:transform-center-y="0.0374367"
         inkscape:transform-center-x="0.036153713"
         sodipodi:nodetypes="cccc"
         inkscape:connector-curvature="0"
         id="path1247"
         d="m 69.672989,15.848034 c 0.2265,-0.212 0.5766,-0.1453 0.5656,0.1956 -0.01,0.1003 -0.076,0.1695 -0.166,0.2499 -0.1255,0.1102 -0.5705,-0.2546 -0.3996,-0.4455 z"
         style="fill:#77b52a;fill-opacity:1;stroke:none;stroke-width:0.00216001;stroke-linecap:butt;stroke-linejoin:miter;stroke-miterlimit:4;stroke-dasharray:none;stroke-opacity:1" />
      <ellipse
         ry="0.31407607"
         rx="0.21793035"
         cy="5.3597865"
         cx="69.630402"
         id="ellipse1249"
         style="opacity:1;fill:#000000;fill-opacity:1;stroke:none;stroke-width:0.07054523;stroke-linecap:round;stroke-linejoin:round;stroke-miterlimit:4;stroke-dasharray:none;stroke-dashoffset:0;stroke-opacity:1" />
      <path
         inkscape:connector-curvature="0"
         id="path1251"
         style="font-style:normal;font-variant:normal;font-weight:bold;font-stretch:normal;font-size:13.94157696px;line-height:1.25;font-family:'TT Hoves';-inkscape-font-specification:'TT Hoves Bold';letter-spacing:-0.18124057px;word-spacing:0px;fill:#002236;fill-opacity:1;stroke:none;stroke-width:0.34853938"
         d="m -20.363106,36.536784 h 2.160945 q 0.05577,0.20912 0.237007,0.39036 0.376422,0.37642 1.087443,0.37642 0.669195,0 1.031676,-0.34854 0.362481,-0.34854 0.362481,-0.97591 v -0.83649 h -0.06971 q -0.195182,0.22306 -0.418247,0.34854 -0.52978,0.34854 -1.254742,0.34854 -1.435982,0 -2.356126,-0.94803 -0.920144,-0.96197 -0.920144,-2.46766 0,-1.50569 0.920144,-2.45372 0.920144,-0.96196 2.356126,-0.96196 0.79467,0 1.380216,0.41824 0.237007,0.18124 0.432189,0.41825 h 0.06971 l 0.139416,-0.69708 h 1.812405 v 6.83137 q 0,1.49175 -0.892261,2.31431 -0.892261,0.82255 -2.593133,0.82255 -2.077295,0 -2.969556,-1.28263 -0.418248,-0.58554 -0.515839,-1.29656 z m 2.370068,-3.06715 q 0.418248,0.41825 1.045619,0.41825 0.627371,0 1.045618,-0.41825 0.418247,-0.41825 0.418247,-1.04562 0,-0.62737 -0.418247,-1.04562 -0.418247,-0.41824 -1.045618,-0.41824 -0.627371,0 -1.045619,0.41824 -0.418247,0.41825 -0.418247,1.04562 0,0.62737 0.418247,1.04562 z" />
      <path
         inkscape:connector-curvature="0"
         id="path1253"
         style="font-style:normal;font-variant:normal;font-weight:bold;font-stretch:normal;font-size:13.94157696px;line-height:1.25;font-family:'TT Hoves';-inkscape-font-specification:'TT Hoves Bold';letter-spacing:-0.18124057px;word-spacing:0px;fill:#002236;fill-opacity:1;stroke:none;stroke-width:0.34853938"
         d="m -7.2301472,34.097004 h 2.0912366 q -0.2509484,0.65526 -0.7110205,1.15715 -1.087443,1.14321 -2.7046659,1.14321 -1.617223,0 -2.662841,-1.03168 -1.031677,-1.04561 -1.031677,-2.66284 0,-1.61722 1.031677,-2.6489 1.045618,-1.04561 2.662841,-1.04561 1.5614566,0 2.5931333,1.01773 1.0316767,1.01774 1.0316767,2.53737 0,0.19518 -0.041825,0.52978 l -0.027883,0.1673 h -5.158383 q 0.05577,0.64131 0.4879547,1.05956 0.4461305,0.4043 1.1153262,0.4043 0.5576631,0 1.0037935,-0.30671 0.2230653,-0.1673 0.3206564,-0.32066 z m -2.9277308,-2.09124 h 3.2065624 q -0.3067147,-1.39415 -1.6032814,-1.39415 -1.2965667,0 -1.603281,1.39415 z" />
      <path
         inkscape:connector-curvature="0"
         id="path1255"
         style="font-style:normal;font-variant:normal;font-weight:bold;font-stretch:normal;font-size:13.94157696px;line-height:1.25;font-family:'TT Hoves';-inkscape-font-specification:'TT Hoves Bold';letter-spacing:-0.18124057px;word-spacing:0px;fill:#002236;fill-opacity:1;stroke:none;stroke-width:0.34853938"
         d="m -3.3683469,34.306124 v -3.20656 H -4.483673 v -1.95182 h 1.1153261 v -2.23065 h 2.0912366 v 2.23065 h 1.60328134 v 1.95182 H -1.2771103 v 2.71861 q 0,0.48795 0.48795518,0.48795 h 1.11532616 v 1.95183 H -1.3468182 q -2.0215287,0 -2.0215287,-1.95183 z" />
      <path
         inkscape:connector-curvature="0"
         id="path1257"
         style="font-style:normal;font-variant:normal;font-weight:bold;font-stretch:normal;font-size:13.94157696px;line-height:1.25;font-family:'TT Hoves';-inkscape-font-specification:'TT Hoves Bold';letter-spacing:-0.18124057px;word-spacing:0px;fill:#002236;fill-opacity:1;stroke:none;stroke-width:0.34853938"
         d="m 9.9318878,34.097004 h 2.0912362 q -0.250948,0.65526 -0.71102,1.15715 -1.087443,1.14321 -2.704666,1.14321 -1.6172229,0 -2.6628412,-1.03168 -1.0316767,-1.04561 -1.0316767,-2.66284 0,-1.61722 1.0316767,-2.6489 1.0456183,-1.04561 2.6628412,-1.04561 1.561457,0 2.593133,1.01773 1.031677,1.01774 1.031677,2.53737 0,0.19518 -0.04183,0.52978 l -0.02788,0.1673 H 7.0041566 q 0.055766,0.64131 0.4879552,1.05956 0.4461305,0.4043 1.1153262,0.4043 0.5576631,0 1.0037935,-0.30671 0.2230653,-0.1673 0.3206563,-0.32066 z m -2.9277312,-2.09124 h 3.2065624 q -0.3067144,-1.39415 -1.603281,-1.39415 -1.2965667,0 -1.6032814,1.39415 z" />
      <path
         inkscape:connector-curvature="0"
         id="path1259"
         style="font-style:normal;font-variant:normal;font-weight:bold;font-stretch:normal;font-size:13.94157696px;line-height:1.25;font-family:'TT Hoves';-inkscape-font-specification:'TT Hoves Bold';letter-spacing:-0.18124057px;word-spacing:0px;fill:#002236;fill-opacity:1;stroke:none;stroke-width:0.34853938"
         d="m 17.836753,36.257954 -0.139416,-0.62738 h -0.06971 q -0.167299,0.19519 -0.474013,0.39037 -0.571605,0.37642 -1.477807,0.37642 -1.226859,0 -1.93788,-0.62737 -0.71102,-0.62737 -0.71102,-1.60328 0,-1.03168 0.752845,-1.65905 0.752845,-0.64131 2.174886,-0.64131 h 1.603281 v -0.13942 q 0,-0.47401 -0.292773,-0.75284 -0.292773,-0.29278 -0.822553,-0.29278 -0.543721,0 -0.892261,0.32066 -0.167299,0.1673 -0.223065,0.30672 h -2.021528 q 0.125474,-1.0038 0.934085,-1.64511 0.808612,-0.65525 2.202769,-0.65525 1.519632,0 2.356127,0.7389 0.850436,0.7389 0.850436,1.96576 v 4.54496 z m -0.278832,-2.85803 v -0.13941 h -1.324449 q -0.557663,0 -0.836495,0.20912 -0.278831,0.20912 -0.278831,0.55766 0,0.3346 0.250948,0.55767 0.26489,0.20912 0.724962,0.20912 0.669196,0 1.05956,-0.37642 0.404305,-0.39037 0.404305,-1.01774 z" />
      <path
         inkscape:connector-curvature="0"
         id="path1261"
         style="font-style:normal;font-variant:normal;font-weight:bold;font-stretch:normal;font-size:13.94157696px;line-height:1.25;font-family:'TT Hoves';-inkscape-font-specification:'TT Hoves Bold';letter-spacing:-0.18124057px;word-spacing:0px;fill:#002236;fill-opacity:1;stroke:none;stroke-width:0.34853938"
         d="m 21.48942,34.306124 v -3.20656 h -1.115326 v -1.95182 h 1.115326 v -2.23065 h 2.091237 v 2.23065 h 1.603281 v 1.95182 h -1.603281 v 2.71861 q 0,0.48795 0.487955,0.48795 h 1.115326 v 1.95183 h -1.672989 q -2.021529,0 -2.021529,-1.95183 z" />
      <path
         inkscape:connector-curvature="0"
         id="path1263"
         style="font-style:normal;font-variant:normal;font-weight:bold;font-stretch:normal;font-size:13.94157696px;line-height:1.25;font-family:'TT Hoves';-inkscape-font-specification:'TT Hoves Bold';letter-spacing:-0.18124057px;word-spacing:0px;fill:#002236;fill-opacity:1;stroke:none;stroke-width:0.34853938"
         d="m 30.92785,34.097004 h 2.091236 q -0.250948,0.65526 -0.71102,1.15715 -1.087443,1.14321 -2.704666,1.14321 -1.617223,0 -2.662841,-1.03168 -1.031677,-1.04561 -1.031677,-2.66284 0,-1.61722 1.031677,-2.6489 1.045618,-1.04561 2.662841,-1.04561 1.561457,0 2.593133,1.01773 1.031677,1.01774 1.031677,2.53737 0,0.19518 -0.04182,0.52978 l -0.02788,0.1673 h -5.158383 q 0.05577,0.64131 0.487955,1.05956 0.44613,0.4043 1.115326,0.4043 0.557663,0 1.003794,-0.30671 0.223065,-0.1673 0.320656,-0.32066 z m -2.927731,-2.09124 h 3.206562 q -0.306714,-1.39415 -1.603281,-1.39415 -1.296567,0 -1.603281,1.39415 z" />
      <path
         inkscape:connector-curvature="0"
         id="path1265"
         style="font-style:normal;font-variant:normal;font-weight:bold;font-stretch:normal;font-size:13.94157696px;line-height:1.25;font-family:'TT Hoves';-inkscape-font-specification:'TT Hoves Bold';letter-spacing:-0.18124057px;word-spacing:0px;fill:#002236;fill-opacity:1;stroke:none;stroke-width:0.34853938"
         d="m 34.371409,36.257954 v -7.11021 h 1.812405 l 0.139415,0.62737 h 0.06971 q 0.167299,-0.19518 0.474014,-0.37642 0.599488,-0.39036 1.477807,-0.39036 1.254742,0 2.049412,0.82255 0.808611,0.80861 0.808611,2.10518 v 4.32189 h -2.091236 v -3.90365 q 0,-0.58554 -0.376423,-0.94802 -0.362481,-0.37643 -0.948027,-0.37643 -0.585546,0 -0.961969,0.37643 -0.362481,0.36248 -0.362481,0.94802 v 3.90365 z" />
      <path
         style="fill:#e11a1c;fill-opacity:1;stroke:none;stroke-width:0.27076036;stroke-linecap:butt;stroke-linejoin:miter;stroke-miterlimit:4;stroke-dasharray:none;stroke-opacity:1"
         d="M 85.10627,3.091133 C 85.260151,2.4861261 84.969847,1.6970502 84.755572,1.0187424 84.637892,0.72390682 84.602802,0.59225013 84.934435,0.77531526 l 1.52235,1.07491684 c 0.336624,0.052026 0.389246,-0.2068338 0.456919,-0.4492129 -0.998824,-3.2502422 -4.851607,-5.4483126 -7.813908,-3.1056467 -0.930495,0.7772136 -1.912294,1.72276489 -2.170883,2.9942578 2.367596,1.0521229 5.309043,1.9302412 8.177357,1.8015027 z"
         id="path1267"
         inkscape:connector-curvature="0"
         sodipodi:nodetypes="cccccccc" />
      <path
         style="fill:#9f191a;fill-opacity:1;stroke:none;stroke-width:0.13538016;stroke-linecap:butt;stroke-linejoin:miter;stroke-miterlimit:4;stroke-dasharray:none;stroke-opacity:1"
         d="m 77.266133,1.6489523 c 0.357184,-1.17708697 1.104773,-2.6956856 2.911104,-3.2717213 0.182059,-0.1259614 -1.139238,-0.016661 -2.408141,1.5865155 -0.554172,0.7001383 -0.920544,1.7028991 -0.920544,1.7028991 z"
         id="path1269"
         inkscape:connector-curvature="0"
         sodipodi:nodetypes="ccscc" />
      <path
         style="fill:#9f191a;fill-opacity:1;stroke:none;stroke-width:0.13538016;stroke-linecap:butt;stroke-linejoin:miter;stroke-miterlimit:4;stroke-dasharray:none;stroke-opacity:1"
         d="m 84.866698,2.6297022 c 0.07289,-1.0253392 -0.234012,-1.67289634 -0.785783,-2.21211732 -0.08243,-0.0801357 -0.02387,-0.12856839 0.148193,-0.0102011 1.036041,0.87871492 0.795491,1.72128372 1.00683,2.71626912 L 84.88544,2.8717073 Z"
         id="path1271"
         inkscape:connector-curvature="0"
         sodipodi:nodetypes="cccccc" />
      <path
         sodipodi:nodetypes="ccccccccscccccccsccccccccccccscsssccccc"
         style="fill:#f9f9f9;fill-opacity:1;stroke:#e7eaeb;stroke-width:0.27076036;stroke-linecap:butt;stroke-linejoin:miter;stroke-miterlimit:4;stroke-dasharray:none;stroke-opacity:1"
         d="m 76.33128,1.1584248 c 0.23892,0.042845 0.221609,-0.5484247 0.584456,-0.40008877 0.27382,0.11085239 0.617452,0.27824177 0.806784,0.23696117 0.189333,-0.0412579 0.34923,-0.0352506 0.468646,0.1054118 0.119414,0.140651 -0.02216,0.2540877 0.263673,0.2041248 0.285826,-0.049986 0.48799,-0.00793 0.575228,0.1624248 0.08723,0.170053 0.474649,0.025049 0.474649,0.025049 0,0 0.11948,-0.018363 0.199823,0.1466584 0.08035,0.1649978 0.554524,0.22676 0.743413,0.1427479 0.188889,-0.083989 0.05646,0.1686476 0.09226,0.2426511 0.03578,0.074015 0.316974,-0.050666 0.487585,-0.037744 0.170575,0.012808 0.270321,0.014736 0.319043,0.050552 0.0487,0.035705 0.471136,-0.029017 0.573433,0.1022381 0.102295,0.1313001 0.613977,0.2819482 0.801806,0.2098827 0.187831,-0.072088 0.440337,-0.2015858 0.519926,-0.161926 0.07959,0.039671 0.149342,0.2970346 0.433992,0.2360657 0.28465,-0.06098 0.593369,-0.1904893 0.741817,-0.09657 0.148451,0.093964 0.376511,0.1713791 0.540221,0.2802933 0.163716,0.1089256 0.281633,0.1729661 0.471316,0.3384286 0.391369,0.533055 -0.02999,0.9612195 -0.0021,1.2541623 0.03386,0.1936856 0.0077,0.331741 -0.08402,0.4668721 -0.09167,0.1351198 0.08438,0.2994114 -0.04952,0.3848177 -0.597337,-0.079842 -0.909271,0.3900856 -1.081021,-0.038574 0.117008,0.3743914 0.355127,-0.1596222 -0.09469,-0.037552 -0.228416,0.00453 -0.317349,0.013947 -0.606536,0.045355 -0.33471,-0.010201 -0.357083,-0.4220207 -0.601363,-0.3158041 -0.247307,0.107112 -0.457262,0.081382 -0.827132,-0.073788 -0.369689,-0.1551367 -0.303312,-0.050892 -0.687056,0.012354 -0.383779,0.06302 -0.855335,0.031623 -1.097964,-0.1690443 -0.242669,-0.2005648 -1.212571,0.02403 -1.462903,-0.21267 C 78.584715,4.0249682 78.133679,4.1943864 77.851107,4.145965 77.568539,4.0975661 77.096702,3.9888338 76.77753,3.5425334 76.596316,3.2891409 76.573249,3.6482898 76.322457,3.7231272 76.131529,3.7801012 75.689402,3.5506224 75.643157,3.4731654 75.536148,3.2939332 75.752094,2.830879 75.766886,2.6084828 c 0.01479,-0.2223961 -0.195019,-0.544775 -1.51e-4,-0.6296938 0.19486,-0.084896 0.07988,-0.3616077 0.109299,-0.4089296 0.261877,-0.1827138 0.2033,-0.5430068 0.455242,-0.4114574 z"
         id="path1273"
         inkscape:connector-curvature="0" />
      <path
         sodipodi:nodetypes="cccscccccccscccccc"
         style="fill:#f9f9f9;stroke:#e7eaeb;stroke-width:0.27076036;stroke-linecap:butt;stroke-linejoin:miter;stroke-miterlimit:4;stroke-dasharray:none;stroke-opacity:1"
         d="m 87.350895,1.3233092 c 0.22341,0.3289075 0.108437,0.1995456 0.435286,0.2445213 0.326848,0.044998 0.468814,0.096684 0.394657,0.2896444 -0.07415,0.1929716 0.06394,0.2193471 0.09506,0.4221006 0.03111,0.2027646 -0.144311,0.1302345 -0.196345,0.2419824 -0.05203,0.1117591 0.188721,0.1310166 0.159396,0.3344047 -0.03416,0.143598 -0.120923,0.169883 -0.31462,0.260129 -0.193683,0.090224 0.07402,0.1443008 -0.226273,0.3287262 -0.17777,0.1093789 -0.243687,-0.010201 -0.401563,-0.081042 -0.157878,-0.070842 -0.22723,0.2942801 -0.513087,0.1219488 -0.285855,-0.1723199 -0.178477,-0.1498774 -0.33,-0.2909251 -0.2644,-0.2015519 -0.380862,0.166528 -0.513981,-0.081156 C 85.806308,2.8660051 85.773167,2.8754129 85.822658,2.6343486 85.872148,2.3932842 85.635653,2.2609528 85.885258,2.0842917 86.134863,1.907642 86.0848,1.9758196 86.125161,1.7880619 86.165511,1.6002816 86.465466,1.4980548 86.516152,1.4902792 86.976358,1.3543208 87.134805,0.95406202 87.35091,1.323264 Z"
         id="path1275"
         inkscape:connector-curvature="0" />
      <path
         style="fill:#9f191a;fill-opacity:1;stroke:none;stroke-width:0.13538016;stroke-linecap:butt;stroke-linejoin:miter;stroke-miterlimit:4;stroke-dasharray:none;stroke-opacity:1"
         d="m 84.715651,0.97638646 c 0,0 -0.08097,-0.0493482 -0.147932,-0.21703492 -0.104154,-0.26080827 -0.206704,-0.68468674 -0.166915,-0.7042935 0.04264,-0.02082147 0.06877,0.05121297 0.08329,0.07312293 0.100684,0.31225435 0.308852,0.52340375 0.441413,0.64061574 -0.03662,-0.0197069 -0.202859,-0.10622893 -0.243141,-0.0558255 -0.05314,0.0578325 0.157764,0.45312549 0.03329,0.26341523 z"
         id="path1277"
         inkscape:connector-curvature="0"
         sodipodi:nodetypes="cscccccc" />
      <path
         sodipodi:nodetypes="ccsscsscccccccccccccccccccccc"
         inkscape:connector-curvature="0"
         id="path1287"
         d="m 75.852599,2.7598866 c 0.06869,0.9169669 0.945886,-0.1358372 1.315023,0.1079712 0.35785,0.3578464 0.145791,0.5566489 0.848231,0.6096648 0.221678,0.016731 0.584432,-0.1049684 0.767048,-0.095741 0.396046,0.020012 0.594387,0.157827 1.247501,0.1487571 0.954259,-0.013256 0.463875,0.2385628 1.683207,0.424114 0.554196,0.084334 0.737903,-0.1757497 0.972498,-0.1424378 0.281556,0.03998 0.578149,0.3569138 0.896257,0.2484684 0.583159,-0.1988061 0.636173,-0.6229201 1.219332,-0.3711016 0.583157,0.2518186 0.543397,0.3843541 0.543397,0.3843541 l 0.01326,0.7024401 -0.06626,0.4241141 C 85.037834,5.5388219 84.762822,5.54128 84.384212,5.5793338 84.099647,5.447024 84.124902,5.1127089 84.049358,5.1006045 c 0,0 -0.427216,0.020364 -0.493484,-0.019394 -0.06628,-0.039764 -0.530156,-0.3578497 -0.530156,-0.3578497 L 82.628107,4.8293908 81.673849,4.5908246 80.732846,4.6703476 80.043657,4.4317816 79.235186,4.4185266 78.638778,4.246228 78.227915,4.0606802 h -0.954259 l -0.62292,-0.6096678 -0.07049,-0.039037 C 76.40469,4.3426259 75.93462,3.3484524 75.616956,3.397999 l -0.06627,-0.3711018 z"
         style="fill:#e7eaeb;fill-opacity:1;stroke:none;stroke-width:0.29989463px;stroke-linecap:butt;stroke-linejoin:miter;stroke-opacity:1" />
      <path
         inkscape:connector-curvature="0"
         id="path1299"
         d="m 85.851112,2.7373975 c 0.06431,0.081851 0.298172,0.2747856 0.643118,0.1520084 0.344942,-0.1227773 0.356637,-0.052618 0.467719,0.017542 0.111086,0.070159 0.140317,0.2280152 0.362485,0.1169299 0.222168,-0.1110826 0.01169,-0.2981722 0.380023,-0.3098641 0.368332,-0.011695 0.467723,0.017542 0.491109,-0.1344692 0.02339,-0.152011 -0.05262,0.3858683 -0.05262,0.3858683 l -0.175395,0.1578558 c 0,0 -0.210473,0.3624844 -0.280633,0.3391005 -0.07016,-0.023389 -0.444336,-0.1286245 -0.444336,-0.1286245 L 86.885945,3.5149867 86.581926,3.2752795 86.19021,3.1758888 c 0,0 -0.292327,-0.046773 -0.298172,-0.1110853 -0.0058,-0.06431 -0.04093,-0.3274034 -0.04093,-0.3274034 z"
         style="fill:#e7eaeb;fill-opacity:1;stroke:none;stroke-width:0.26458332px;stroke-linecap:butt;stroke-linejoin:miter;stroke-opacity:1" />
    </g>
  </g>
</svg>
