<?xml version="1.0" encoding="UTF-8" standalone="no"?>
<!-- Created with Inkscape (http://www.inkscape.org/) -->

<svg
   xmlns:dc="http://purl.org/dc/elements/1.1/"
   xmlns:cc="http://creativecommons.org/ns#"
   xmlns:rdf="http://www.w3.org/1999/02/22-rdf-syntax-ns#"
   xmlns:svg="http://www.w3.org/2000/svg"
   xmlns="http://www.w3.org/2000/svg"
   xmlns:sodipodi="http://sodipodi.sourceforge.net/DTD/sodipodi-0.dtd"
   xmlns:inkscape="http://www.inkscape.org/namespaces/inkscape"
   width="179.65553mm"
   height="41.199409mm"
   viewBox="0 0 179.65554 41.199409"
   version="1.1"
   id="svg8014"
   inkscape:version="0.92.5 (2060ec1f9f, 2020-04-08)"
   sodipodi:docname="landing-page-text-dark.svg">
  <defs
     id="defs8008" />
  <sodipodi:namedview
     id="base"
     pagecolor="#ffffff"
     bordercolor="#666666"
     borderopacity="1.0"
     inkscape:pageopacity="0.0"
     inkscape:pageshadow="2"
     inkscape:zoom="18.369697"
     inkscape:cx="562.69091"
     inkscape:cy="100.35804"
     inkscape:document-units="mm"
     inkscape:current-layer="layer1"
     showgrid="false"
     fit-margin-top="0"
     fit-margin-left="0"
     fit-margin-right="0"
     fit-margin-bottom="0"
     inkscape:window-width="1848"
     inkscape:window-height="1016"
     inkscape:window-x="72"
     inkscape:window-y="1107"
     inkscape:window-maximized="1"
     inkscape:snap-nodes="true"
     showguides="true"
     inkscape:guide-bbox="true">
    <sodipodi:guide
       position="79.942823,31.682903"
       orientation="1,0"
       id="guide975"
       inkscape:locked="false" />
  </sodipodi:namedview>
  <metadata
     id="metadata8011">
    <rdf:RDF>
      <cc:Work
         rdf:about="">
        <dc:format>image/svg+xml</dc:format>
        <dc:type
           rdf:resource="http://purl.org/dc/dcmitype/StillImage" />
        <dc:title />
      </cc:Work>
    </rdf:RDF>
  </metadata>
  <g
     inkscape:label="Layer 1"
     inkscape:groupmode="layer"
     id="layer1"
     transform="translate(79.611275,-103.49736)">
    <path
       inkscape:connector-curvature="0"
       id="path994"
       style="font-style:normal;font-variant:normal;font-weight:bold;font-stretch:normal;font-size:13.94157696px;line-height:1.25;font-family:'TT Hoves';-inkscape-font-specification:'TT Hoves Bold';letter-spacing:-0.18124057px;word-spacing:0px;fill:#e9ebec;fill-opacity:1;stroke:none;stroke-width:0.34853938"
       d="m -54.354286,122.29877 v -9.75911 h 3.62481 q 1.993646,0 3.35992,1.4081 1.380216,1.39416 1.380216,3.47146 0,2.07729 -1.380216,3.48539 -1.366274,1.39416 -3.35992,1.39416 z m 2.230652,-2.16095 h 1.394158 q 1.05956,0 1.784522,-0.76678 0.724962,-0.76679 0.724962,-1.95182 0,-1.18504 -0.724962,-1.95183 -0.724962,-0.76678 -1.784522,-0.76678 h -1.394158 z" />
    <path
       inkscape:connector-curvature="0"
       id="path996"
       style="font-style:normal;font-variant:normal;font-weight:bold;font-stretch:normal;font-size:13.94157696px;line-height:1.25;font-family:'TT Hoves';-inkscape-font-specification:'TT Hoves Bold';letter-spacing:-0.18124057px;word-spacing:0px;fill:#e9ebec;fill-opacity:1;stroke:none;stroke-width:0.34853938"
       d="m -38.781558,121.40651 q -1.031676,1.03167 -2.648899,1.03167 -1.617223,0 -2.662841,-1.03167 -1.031677,-1.04562 -1.031677,-2.66285 0,-1.61722 1.031677,-2.64889 1.045618,-1.04562 2.662841,-1.04562 1.617223,0 2.648899,1.04562 1.045619,1.03167 1.045619,2.64889 0,1.61723 -1.045619,2.66285 z m -3.80605,-1.39416 q 0.460072,0.47401 1.157151,0.47401 0.697079,0 1.143209,-0.47401 0.460072,-0.48796 0.460072,-1.26869 0,-0.78072 -0.460072,-1.25474 -0.44613,-0.48795 -1.143209,-0.48795 -0.697079,0 -1.157151,0.48795 -0.446131,0.47402 -0.446131,1.25474 0,0.78073 0.446131,1.26869 z" />
    <path
       inkscape:connector-curvature="0"
       id="path998"
       style="font-style:normal;font-variant:normal;font-weight:bold;font-stretch:normal;font-size:13.94157696px;line-height:1.25;font-family:'TT Hoves';-inkscape-font-specification:'TT Hoves Bold';letter-spacing:-0.18124057px;word-spacing:0px;fill:#e9ebec;fill-opacity:1;stroke:none;stroke-width:0.34853938"
       d="m -36.592752,122.29877 v -7.11021 h 1.812405 l 0.139415,0.62737 h 0.06971 q 0.167299,-0.19518 0.474014,-0.37642 0.599488,-0.39036 1.477807,-0.39036 1.254742,0 2.049412,0.82255 0.808611,0.80861 0.808611,2.10518 v 4.32189 h -2.091236 v -3.90364 q 0,-0.58555 -0.376423,-0.94803 -0.362481,-0.37642 -0.948027,-0.37642 -0.585546,0 -0.961969,0.37642 -0.362481,0.36248 -0.362481,0.94803 v 3.90364 z" />
    <path
       inkscape:connector-curvature="0"
       id="path1000"
       style="font-style:normal;font-variant:normal;font-weight:bold;font-stretch:normal;font-size:13.94157696px;line-height:1.25;font-family:'TT Hoves';-inkscape-font-specification:'TT Hoves Bold';letter-spacing:-0.18124057px;word-spacing:0px;fill:#e9ebec;fill-opacity:1;stroke:none;stroke-width:0.34853938"
       d="m -28.339344,115.88564 v -3.34598 h 1.882113 v 3.34598 z" />
    <path
       inkscape:connector-curvature="0"
       id="path1002"
       style="font-style:normal;font-variant:normal;font-weight:bold;font-stretch:normal;font-size:13.94157696px;line-height:1.25;font-family:'TT Hoves';-inkscape-font-specification:'TT Hoves Bold';letter-spacing:-0.18124057px;word-spacing:0px;fill:#e9ebec;fill-opacity:1;stroke:none;stroke-width:0.34853938"
       d="m -24.268415,120.34695 v -3.20657 h -1.115326 v -1.95182 h 1.115326 v -2.23065 h 2.091236 v 2.23065 h 1.603282 v 1.95182 h -1.603282 v 2.71861 q 0,0.48796 0.487956,0.48796 h 1.115326 v 1.95182 h -1.672989 q -2.021529,0 -2.021529,-1.95182 z" />
    <path
       inkscape:connector-curvature="0"
       id="path1004"
       style="font-style:normal;font-variant:normal;font-weight:bold;font-stretch:normal;font-size:13.94157696px;line-height:1.25;font-family:'TT Hoves';-inkscape-font-specification:'TT Hoves Bold';letter-spacing:-0.18124057px;word-spacing:0px;fill:#e9ebec;fill-opacity:1;stroke:none;stroke-width:0.34853938"
       d="m -15.568903,122.29877 v -9.75911 h 2.091237 v 9.75911 z" />
    <path
       inkscape:connector-curvature="0"
       id="path1006"
       style="font-style:normal;font-variant:normal;font-weight:bold;font-stretch:normal;font-size:13.94157696px;line-height:1.25;font-family:'TT Hoves';-inkscape-font-specification:'TT Hoves Bold';letter-spacing:-0.18124057px;word-spacing:0px;fill:#e9ebec;fill-opacity:1;stroke:none;stroke-width:0.34853938"
       d="m -7.245797,120.13782 h 2.0912366 q -0.2509484,0.65526 -0.7110205,1.15715 -1.087443,1.14321 -2.7046659,1.14321 -1.6172232,0 -2.6628412,-1.03167 -1.031677,-1.04562 -1.031677,-2.66285 0,-1.61722 1.031677,-2.64889 1.045618,-1.04562 2.6628412,-1.04562 1.5614566,0 2.5931333,1.01773 1.0316767,1.01774 1.0316767,2.53737 0,0.19518 -0.041825,0.52978 l -0.027883,0.1673 h -5.1583832 q 0.05577,0.64131 0.487955,1.05956 0.4461304,0.4043 1.1153261,0.4043 0.5576631,0 1.0037935,-0.30671 0.2230653,-0.1673 0.3206564,-0.32066 z m -2.927731,-2.09123 h 3.2065626 q -0.3067147,-1.39416 -1.6032814,-1.39416 -1.2965666,0 -1.6032812,1.39416 z" />
    <path
       inkscape:connector-curvature="0"
       id="path1008"
       style="font-style:normal;font-variant:normal;font-weight:bold;font-stretch:normal;font-size:13.94157696px;line-height:1.25;font-family:'TT Hoves';-inkscape-font-specification:'TT Hoves Bold';letter-spacing:-0.18124057px;word-spacing:0px;fill:#e9ebec;fill-opacity:1;stroke:none;stroke-width:0.34853938"
       d="m -3.3839986,120.34695 v -3.20657 h -1.1153261 v -1.95182 h 1.1153261 v -2.23065 h 2.0912366 v 2.23065 h 1.60328134 v 1.95182 H -1.292762 v 2.71861 q 0,0.48796 0.48795518,0.48796 h 1.11532616 v 1.95182 H -1.3624699 q -2.0215287,0 -2.0215287,-1.95182 z" />
    <path
       inkscape:connector-curvature="0"
       id="path1010"
       style="font-style:normal;font-variant:normal;font-weight:bold;font-stretch:normal;font-size:13.94157696px;line-height:1.25;font-family:'TT Hoves';-inkscape-font-specification:'TT Hoves Bold';letter-spacing:-0.18124057px;word-spacing:0px;fill:#e9ebec;fill-opacity:1;stroke:none;stroke-width:0.34853938"
       d="m 4.8275492,125.08708 v -1.95182 h 1.3941576 q 0.4182474,0 0.4879552,-0.27883 L 6.77937,122.64731 3.9213468,115.18856 H 6.151999 l 1.6729892,4.46131 h 0.2788315 l 1.3941577,-4.46131 H 11.72863 l -2.9277314,8.22553 q -0.3206563,0.92015 -0.8364946,1.29657 -0.5158384,0.37642 -1.6729893,0.37642 z" />
    <path
       inkscape:connector-curvature="0"
       id="path1012"
       style="font-style:normal;font-variant:normal;font-weight:bold;font-stretch:normal;font-size:13.94157696px;line-height:1.25;font-family:'TT Hoves';-inkscape-font-specification:'TT Hoves Bold';letter-spacing:-0.18124057px;word-spacing:0px;fill:#e9ebec;fill-opacity:1;stroke:none;stroke-width:0.34853938"
       d="m 18.169626,121.40651 q -1.031677,1.03167 -2.6489,1.03167 -1.617223,0 -2.662841,-1.03167 -1.031677,-1.04562 -1.031677,-2.66285 0,-1.61722 1.031677,-2.64889 1.045618,-1.04562 2.662841,-1.04562 1.617223,0 2.6489,1.04562 1.045618,1.03167 1.045618,2.64889 0,1.61723 -1.045618,2.66285 z m -3.806051,-1.39416 q 0.460072,0.47401 1.157151,0.47401 0.697079,0 1.143209,-0.47401 0.460072,-0.48796 0.460072,-1.26869 0,-0.78072 -0.460072,-1.25474 -0.44613,-0.48795 -1.143209,-0.48795 -0.697079,0 -1.157151,0.48795 -0.44613,0.47402 -0.44613,1.25474 0,0.78073 0.44613,1.26869 z" />
    <path
       inkscape:connector-curvature="0"
       id="path1014"
       style="font-style:normal;font-variant:normal;font-weight:bold;font-stretch:normal;font-size:13.94157696px;line-height:1.25;font-family:'TT Hoves';-inkscape-font-specification:'TT Hoves Bold';letter-spacing:-0.18124057px;word-spacing:0px;fill:#e9ebec;fill-opacity:1;stroke:none;stroke-width:0.34853938"
       d="m 20.358433,119.51045 v -4.32189 h 2.091236 v 3.90364 q 0,0.58555 0.362481,0.96197 0.376423,0.36248 0.961969,0.36248 0.585547,0 0.948028,-0.36248 0.376422,-0.37642 0.376422,-0.96197 v -3.90364 h 2.091237 v 7.11021 h -1.812405 l -0.139416,-0.62737 h -0.06971 q -0.167299,0.19518 -0.474014,0.39036 -0.571604,0.37642 -1.477807,0.37642 -1.254742,0 -2.063353,-0.80861 -0.79467,-0.82255 -0.79467,-2.11912 z" />
    <path
       inkscape:connector-curvature="0"
       id="path1016"
       style="font-style:normal;font-variant:normal;font-weight:bold;font-stretch:normal;font-size:13.94157696px;line-height:1.25;font-family:'TT Hoves';-inkscape-font-specification:'TT Hoves Bold';letter-spacing:-0.18124057px;word-spacing:0px;fill:#e9ebec;fill-opacity:1;stroke:none;stroke-width:0.34853938"
       d="m 28.681538,122.29877 v -7.11021 h 1.812405 l 0.139416,0.55767 h 0.06971 q 0.139416,-0.1673 0.292774,-0.27884 0.376422,-0.27883 0.961968,-0.27883 h 1.32445 v 1.95182 h -1.254742 q -1.254742,0 -1.254742,1.25475 v 3.90364 z" />
    <path
       inkscape:connector-curvature="0"
       id="path1018"
       style="font-style:normal;font-variant:normal;font-weight:bold;font-stretch:normal;font-size:13.94157696px;line-height:1.25;font-family:'TT Hoves';-inkscape-font-specification:'TT Hoves Bold';letter-spacing:-0.18124057px;word-spacing:0px;fill:#e9ebec;fill-opacity:1;stroke:none;stroke-width:0.34853938"
       d="m 38.0084,122.29877 v -5.15839 h -1.115326 v -1.95182 H 38.0084 v -0.97591 q 0,-1.95182 2.021529,-1.95182 h 1.603281 v 1.7427 h -1.045618 q -0.487955,0 -0.487955,0.48795 v 0.69708 h 1.533573 v 1.95182 h -1.533573 v 5.15839 z" />
    <path
       inkscape:connector-curvature="0"
       id="path1020"
       style="font-style:normal;font-variant:normal;font-weight:bold;font-stretch:normal;font-size:13.94157696px;line-height:1.25;font-family:'TT Hoves';-inkscape-font-specification:'TT Hoves Bold';letter-spacing:-0.18124057px;word-spacing:0px;fill:#e9ebec;fill-opacity:1;stroke:none;stroke-width:0.34853938"
       d="m 42.706707,119.51045 v -4.32189 h 2.091237 v 3.90364 q 0,0.58555 0.362481,0.96197 0.376422,0.36248 0.961969,0.36248 0.585546,0 0.948027,-0.36248 0.376422,-0.37642 0.376422,-0.96197 v -3.90364 h 2.091237 v 7.11021 h -1.812405 l -0.139416,-0.62737 h -0.06971 q -0.167299,0.19518 -0.474013,0.39036 -0.571605,0.37642 -1.477808,0.37642 -1.254741,0 -2.063353,-0.80861 -0.79467,-0.82255 -0.79467,-2.11912 z" />
    <path
       inkscape:connector-curvature="0"
       id="path1022"
       style="font-style:normal;font-variant:normal;font-weight:bold;font-stretch:normal;font-size:13.94157696px;line-height:1.25;font-family:'TT Hoves';-inkscape-font-specification:'TT Hoves Bold';letter-spacing:-0.18124057px;word-spacing:0px;fill:#e9ebec;fill-opacity:1;stroke:none;stroke-width:0.34853938"
       d="m 51.029812,122.29877 v -7.11021 h 1.812405 l 0.139416,0.62737 h 0.06971 q 0.167299,-0.19518 0.474013,-0.37642 0.599488,-0.39036 1.477807,-0.39036 1.254742,0 2.049412,0.82255 0.808612,0.80861 0.808612,2.10518 v 4.32189 H 55.76995 v -3.90364 q 0,-0.58555 -0.376422,-0.94803 -0.362481,-0.37642 -0.948028,-0.37642 -0.585546,0 -0.961968,0.37642 -0.362481,0.36248 -0.362481,0.94803 v 3.90364 z" />
    <path
       inkscape:connector-curvature="0"
       id="path1024"
       style="font-style:normal;font-variant:normal;font-weight:bold;font-stretch:normal;font-size:13.94157696px;line-height:1.25;font-family:'TT Hoves';-inkscape-font-specification:'TT Hoves Bold';letter-spacing:-0.18124057px;word-spacing:0px;fill:#e9ebec;fill-opacity:1;stroke:none;stroke-width:0.34853938"
       d="m 64.511314,122.29877 -0.139416,-0.69708 h -0.06971 q -0.195182,0.22306 -0.460072,0.41825 -0.641313,0.41824 -1.491749,0.41824 -1.435982,0 -2.425834,-1.04562 -0.989852,-1.04561 -0.989852,-2.6489 0,-1.60328 0.989852,-2.64889 0.989852,-1.04562 2.425834,-1.04562 0.766787,0 1.380216,0.34854 0.195182,0.11153 0.432189,0.34854 h 0.06971 v -3.20657 h 2.091237 v 9.75911 z m -3.039264,-2.28642 q 0.460072,0.47401 1.157151,0.47401 0.697079,0 1.143209,-0.47401 0.460072,-0.48796 0.460072,-1.26869 0,-0.78072 -0.460072,-1.25474 -0.44613,-0.48795 -1.143209,-0.48795 -0.697079,0 -1.157151,0.48795 -0.446131,0.47402 -0.446131,1.25474 0,0.78073 0.446131,1.26869 z" />
    <path
       style="fill:#34a13c;fill-opacity:1;stroke:none;stroke-width:0.14991298;stroke-linecap:butt;stroke-linejoin:round;stroke-miterlimit:4;stroke-dasharray:none;stroke-opacity:1"
       d="m 84.531589,111.7666 c 0,0 1.234,1.0076 1.2194,1.3589 -0.026,0.6278 -1.0612,1.3455 -1.0612,1.3455 0,0 1.0228,1.0062 0.9985,1.3031 -0.036,0.4463 -1.1499,0.9779 -1.1499,0.9779 0,0 0.9231,0.8986 0.9075,1.2438 -0.016,0.3472 -1.2563,1.1625 -1.2563,1.1625 0,0 1.1725,0.7977 1.2015,1.1334 0.02,0.2355 -1.1456,1.0562 -1.1456,1.0562 0,0 1.1275,0.8474 1.1422,1.0807 0.032,0.5151 -1.1993,1.07 -1.1993,1.07 0,0 1.2846,0.6865 1.309,0.9319 0.035,0.354 -0.7763,1.4589 -0.7763,1.4589 0,0 1.2511,-0.021 1.4054,0.174 0.2508,0.3173 -0.2275,1.9944 -0.2275,1.9944 0,0 1.0784,-1.0381 1.4724,-0.9637 0.309,0.058 0.761,1.5247 0.761,1.5247 0,0 0.467,-1.5757 0.7782,-1.7121 0.1917,-0.084 1.4189,0.9102 1.4189,0.9102 0,0 0.072,-1.5223 0.2944,-1.6732 0.2129,-0.1442 1.6197,0.1607 1.6197,0.1607 0,0 -0.065,-1.0913 0.107,-1.2315 0.2133,-0.1736 1.1913,0.067 1.1913,0.067 0,0 -0.057,-1.2482 0.1874,-1.4188 0.2118,-0.1481 1.1377,0.2811 1.1377,0.2811 l -2.4896,3.44 -4.5777,2.0479 -3.2392,-0.8165 -1.3251,-2.0345 0.281,-12.7025 0.589,-1.1779 z"
       id="path7645"
       inkscape:connector-curvature="0"
       sodipodi:nodetypes="cscscscscscscscscscscscscccccccc" />
    <path
       style="fill:#77b52a;fill-opacity:1;stroke:none;stroke-width:0.10142651;stroke-linecap:butt;stroke-linejoin:miter;stroke-miterlimit:4;stroke-dasharray:none;stroke-opacity:1"
       d="m 78.220889,114.5867 c 0,0 -6.2443,1.3651 -6.3749,1.3215 -0.082,0.025 -1.04,-0.512 -1.2888,-0.5918 -0.2814,-0.2178 -0.8186,0.1428 -0.3957,0.5047 l 0.9003,0.7841 -0.3231,-0.092 c -0.7732,-0.055 -0.4787,0.3743 0.085,0.3639 l 0.01,0.3379 -0.8133,0.4501 c -0.2305,0.1226 -0.2799,0.5766 0.1599,0.5228 l 1.0018,-0.1452 -0.6042,0.2319 c -0.3832,0.2791 0.1669,0.6514 0.5547,0.4539 l 2.4892,-0.8891 3.2813,-0.9426 z"
       id="path7647"
       inkscape:connector-curvature="0"
       sodipodi:nodetypes="cccccccccccccccc" />
    <ellipse
       style="opacity:1;fill:#252c35;fill-opacity:1;stroke:none;stroke-width:0.09328464;stroke-linecap:round;stroke-linejoin:round;stroke-miterlimit:4;stroke-dasharray:none;stroke-dashoffset:0;stroke-opacity:1"
       id="ellipse7649"
       cx="81.615509"
       cy="135.4854"
       rx="16.743593"
       ry="3.4551837" />
    <path
       sodipodi:nodetypes="cccccccccccccc"
       inkscape:connector-curvature="0"
       id="path7651"
       d="m 79.907689,131.8631 c 0.06,1.1207 0.2441,3.1992 0.1799,3.3623 -0.099,0.1749 -1.1609,0.8545 -1.7413,1.2817 -0.1469,0.087 -0.2888,0.02 -0.2472,-0.2471 l 0.072,-0.3676 -0.9948,0.3204 c -0.4175,0.088 -0.5121,-0.3472 -0.3202,-0.5071 l 0.6155,-0.507 -0.5311,-0.01 c -0.5227,-0.01 -0.3326,-0.3837 -0.09,-0.4774 l 1.2533,-0.4267 -0.081,-3.0428 1.8256,0.012 z"
       style="fill:#699f27;fill-opacity:1;stroke:none;stroke-width:0.08629426;stroke-linecap:butt;stroke-linejoin:miter;stroke-miterlimit:4;stroke-dasharray:none;stroke-opacity:1" />
    <path
       inkscape:connector-curvature="0"
       style="fill:#d3d95d;fill-opacity:1;stroke:none;stroke-width:0.07495651;stroke-linecap:butt;stroke-linejoin:round;stroke-miterlimit:4;stroke-dasharray:none;stroke-opacity:1"
       d="m 75.380089,130.5785 c 0.3402,0.1345 0.6968,0.229 1.0558,0.2563 0.3726,0.028 0.7462,-0.01 1.1027,-0.1287 0.1783,-0.06 0.3521,-0.1396 0.5194,-0.2424 0.1673,-0.1027 0.3283,-0.2284 0.48,-0.3782 l -3.686,-0.069 c 0.1665,0.1954 0.3383,0.3861 0.5281,0.5622 z"
       id="path7653" />
    <path
       sodipodi:nodetypes="ccccccccccccccccccccccccccsccccccccccccscccccccccc"
       inkscape:connector-curvature="0"
       style="fill:#d3d95d;fill-opacity:1;stroke:none;stroke-width:0.07495651;stroke-linecap:butt;stroke-linejoin:round;stroke-miterlimit:4;stroke-dasharray:none;stroke-opacity:1"
       d="m 73.423639,113.24453 0.3995,0.1204 -0.3638,1.6883 h 5.3e-4 l -0.2641,1.2273 -0.029,0.1379 c -0.1099,0.7561 -0.176,1.0129 -0.3752,2.3901 v 0 c -0.028,0.1962 0,0.078 -0.037,0.3405 -0.016,0.2059 -0.026,0.5121 -0.032,0.7612 -0.013,0.4657 -0.032,0.9143 -0.029,1.4232 h -5.3e-4 c 0,0.3513 -0.034,0.6123 -0.02,0.9824 h -5.3e-4 c 0.011,0.2817 -2e-4,0.542 0.024,0.8314 0.021,0.3058 0.01,0.5867 0.045,0.8987 h 0.001 c 0.066,0.5772 0.1546,1.161 0.2816,1.7384 h -5.3e-4 c 0.071,0.3207 0.1144,0.6463 0.2083,0.9601 h 5.3e-4 c 0.2347,0.7852 0.5355,1.546 0.9457,2.235 0.2138,0.3593 0.4386,0.7117 0.709,1.0289 0.1665,0.1954 0.3383,0.3862 0.5281,0.5623 0.3402,0.1345 0.6967,0.229 1.0558,0.2563 0.3726,0.028 0.7462,-0.01 1.1027,-0.1287 0.1783,-0.06 0.3521,-0.1396 0.5194,-0.2424 0.1673,-0.1027 0.3284,-0.2284 0.48,-0.3782 0.2749,-0.2715 0.5173,-0.627 0.7189,-1.0739 0.1622,-0.3597 0.3046,-0.7615 0.4036,-1.2495 0.02,-0.098 0.045,-0.1851 0.062,-0.2884 l 0.025,-0.1581 c 0.019,-0.2173 0.028,-0.4024 0.042,-0.6046 h 5.3e-4 c 0.033,-0.4771 0.066,-0.9514 0.1002,-1.4263 0.023,-0.3276 0.049,-0.6664 0.069,-0.9844 0.029,-0.4727 0.081,-1.0041 0.1028,-1.463 h -5.3e-4 c 0.024,-0.5044 0.03,-1.0005 0.041,-1.4955 0.011,-0.4885 0.04,-0.9871 0.04,-1.4759 0,-0.4272 -0.01,-0.8658 -0.021,-1.3001 h 5.3e-4 c -0.023,-0.73 -0.051,-1.4624 -0.11,-2.2361 -0.037,-0.4862 -0.09,-1.0025 -0.1437,-1.5172 -0.033,-0.314 -0.047,-0.7259 -0.1,-1.1994 -0.5355,0.068 -1.0512,0.12 -1.5612,0.1498 -0.5099,0.03 -1.0149,0.037 -1.5296,0.015 -0.5147,-0.022 -1.0388,-0.072 -1.5885,-0.1591 -0.5372,-0.085 -1.101,-0.2069 -1.7002,-0.3669 z"
       id="path7655" />
    <path
       inkscape:connector-curvature="0"
       style="fill:#efecc3;fill-opacity:1;stroke:none;stroke-width:0.07495651;stroke-linecap:butt;stroke-linejoin:round;stroke-miterlimit:4;stroke-dasharray:none;stroke-opacity:1"
       d="m 78.572639,130.07763 c 0.2749,-0.2715 0.5173,-0.627 0.7189,-1.0739 l -5.1139,-0.024 c 0.2138,0.3593 0.4386,0.7117 0.709,1.0289 z"
       id="path7657" />
    <path
       inkscape:connector-curvature="0"
       style="fill:#d3d95d;fill-opacity:1;stroke:none;stroke-width:0.07495651;stroke-linecap:butt;stroke-linejoin:round;stroke-miterlimit:4;stroke-dasharray:none;stroke-opacity:1"
       d="m 74.177639,128.97943 5.1139,0.024 c 0.1622,-0.3597 0.3046,-0.7615 0.4036,-1.2495 l -6.4632,-1.0098 c 0.2347,0.7852 0.5355,1.546 0.9457,2.235 z"
       id="path7659" />
    <path
       inkscape:connector-curvature="0"
       style="fill:#efecc3;fill-opacity:1;stroke:none;stroke-width:0.07495651;stroke-linecap:butt;stroke-linejoin:round;stroke-miterlimit:4;stroke-dasharray:none;stroke-opacity:1"
       d="m 79.695079,127.75423 h 5.3e-4 c 0.02,-0.098 0.045,-0.1851 0.062,-0.2884 l 0.025,-0.1581 c 0.019,-0.2173 0.028,-0.4024 0.042,-0.6046 l -6.8012,-0.9188 c 0.071,0.3207 0.1145,0.6463 0.20831,0.9601 z"
       id="path7661" />
    <path
       inkscape:connector-curvature="0"
       style="fill:#d3d95d;fill-opacity:1;stroke:none;stroke-width:0.07495651;stroke-linecap:butt;stroke-linejoin:round;stroke-miterlimit:4;stroke-dasharray:none;stroke-opacity:1"
       d="m 79.824839,126.70313 c 0.033,-0.4771 0.066,-0.9514 0.1002,-1.4263 l -7.183,-1.2309 c 0.066,0.5772 0.1546,1.161 0.2816,1.7384 z"
       id="path7663" />
    <path
       inkscape:connector-curvature="0"
       style="fill:#efecc3;fill-opacity:1;stroke:none;stroke-width:0.07495651;stroke-linecap:butt;stroke-linejoin:round;stroke-miterlimit:4;stroke-dasharray:none;stroke-opacity:1"
       d="m 79.924979,125.27683 h 5.3e-4 c 0.023,-0.3276 0.049,-0.6664 0.069,-0.9844 l -7.2978,-1.1452 c 0.021,0.3058 0.01,0.5867 0.045,0.8987 z"
       id="path7665" />
    <path
       inkscape:connector-curvature="0"
       style="fill:#d3d95d;fill-opacity:1;stroke:none;stroke-width:0.07495651;stroke-linecap:butt;stroke-linejoin:round;stroke-miterlimit:4;stroke-dasharray:none;stroke-opacity:1"
       d="m 79.994339,124.29243 c 0.029,-0.4727 0.081,-1.0041 0.1028,-1.463 l -7.4249,-0.5136 c 0.011,0.2817 0,0.542 0.024,0.8314 z"
       id="path7667" />
    <path
       inkscape:connector-curvature="0"
       style="fill:#efecc3;fill-opacity:1;stroke:none;stroke-width:0.07495651;stroke-linecap:butt;stroke-linejoin:round;stroke-miterlimit:4;stroke-dasharray:none;stroke-opacity:1"
       d="m 80.096639,122.82943 c 0.024,-0.5044 0.03,-1.0005 0.041,-1.4955 l -7.445,-5e-4 c 0,0.3513 -0.034,0.6123 -0.02,0.9824 z"
       id="path7669" />
    <path
       inkscape:connector-curvature="0"
       style="fill:#d3d95d;fill-opacity:1;stroke:none;stroke-width:0.07495651;stroke-linecap:butt;stroke-linejoin:round;stroke-miterlimit:4;stroke-dasharray:none;stroke-opacity:1"
       d="m 80.137439,121.33393 c 0.011,-0.4885 0.04,-0.9871 0.04,-1.4759 l -7.4554,0.052 c -0.013,0.4657 -0.032,0.9143 -0.029,1.4232 z"
       id="path7671" />
    <path
       sodipodi:nodetypes="ccccccc"
       inkscape:connector-curvature="0"
       style="fill:#efecc3;fill-opacity:1;stroke:none;stroke-width:0.07495651;stroke-linecap:butt;stroke-linejoin:round;stroke-miterlimit:4;stroke-dasharray:none;stroke-opacity:1"
       d="m 80.142589,119.8659 h 5.3e-4 c 0,-0.4272 -0.01,-0.8658 -0.021,-1.3001 l -7.3654,0.2506 c -0.028,0.1962 0,0.084 -0.038,0.3468 -0.013,0.2132 -0.025,0.5058 -0.031,0.7549 z"
       id="path7673" />
    <path
       inkscape:connector-curvature="0"
       style="fill:#d3d95d;fill-opacity:1;stroke:none;stroke-width:0.07495651;stroke-linecap:butt;stroke-linejoin:round;stroke-miterlimit:4;stroke-dasharray:none;stroke-opacity:1"
       d="m 80.121889,118.5658 c -0.023,-0.73 -0.051,-1.4624 -0.11,-2.2361 l -6.8508,-0.041 -0.029,0.138 c -0.1099,0.7561 -0.176,1.0129 -0.3752,2.39 z"
       id="path7675" />
    <path
       inkscape:connector-curvature="0"
       style="fill:#efecc3;fill-opacity:1;stroke:none;stroke-width:0.07495651;stroke-linecap:butt;stroke-linejoin:round;stroke-miterlimit:4;stroke-dasharray:none;stroke-opacity:1"
       d="m 80.046539,116.32183 c -0.037,-0.4862 -0.09,-1.0025 -0.1437,-1.5172 l -6.443,0.2486 -0.2641,1.2273 z"
       id="path7677" />
    <path
       inkscape:connector-curvature="0"
       style="fill:#d3d95d;fill-opacity:1;stroke:none;stroke-width:0.07495651;stroke-linecap:butt;stroke-linejoin:round;stroke-miterlimit:4;stroke-dasharray:none;stroke-opacity:1"
       d="m 79.902839,114.80463 c -0.033,-0.314 -0.047,-0.7259 -0.1,-1.1994 -0.5355,0.068 -1.0507,0.12 -1.5607,0.1498 -0.5099,0.03 -1.0149,0.037 -1.5296,0.015 -0.5147,-0.022 -1.0388,-0.072 -1.5885,-0.1591 -0.5372,-0.085 -1.101,-0.2069 -1.7002,-0.3669 l 0.399,0.1204 -0.3633,1.6883 z"
       id="path7679" />
    <path
       inkscape:connector-curvature="0"
       id="path7681"
       d="m 78.219689,104.8491 c -0.823,-0.1328 -1.7324,0.6311 -1.8769,1.2682 -0.2927,1.1894 -0.1759,1.1661 -0.2542,2.1828 -0.7868,0 -1.4682,0.053 -2.4701,0.038 -0.8062,-0.555 -1.94,-2.6231 -3.0479,-0.8423 -0.8411,-1.637 -1.6401,-0.3353 -1.7038,0.2082 -0.1729,1.1733 -0.3873,2.3203 0.9612,2.7327 0,-1.7e-4 0.01,-1.7e-4 0.01,0 0,1.7e-4 0.01,5e-4 0.01,0.001 0.5329,0.063 1.0886,0.1658 1.6568,0.2915 0.56821,0.1257 1.14861,0.2741 1.7306,0.4263 1.1641,0.3045 2.33461,0.6251 3.4251,0.817 0.54541,0.096 1.0702,0.1595 1.56331,0.1736 0.49299,0.014 0.95379,-0.021 1.372,-0.1224 0.20899,-0.051 0.4079,-0.1178 0.59479,-0.2031 0.18681,-0.085 0.3618,-0.1893 0.5245,-0.3142 0.1627,-0.1249 0.3128,-0.2708 0.4496,-0.4403 0.1367,-0.1695 0.2601,-0.3627 0.36891,-0.5819 -2.1e-4,-0.003 -2.1e-4,-0.007 0,-0.01 0,-0.004 0.01,-0.007 0.01,-0.01 0,-0.004 0.01,-0.007 0.01,-0.01 0,-0.004 0.01,-0.007 0.01,-0.01 0,-0.004 0.01,-0.007 0.01,-0.01 0,-0.004 0.01,-0.007 0.01,-0.01 0,-0.004 0.01,-0.007 0.01,-0.01 0,-1.7e-4 0.01,-1.7e-4 0.01,0 0,-1.7e-4 0.01,-1.7e-4 0.01,0 0,-1.7e-4 0.01,-1.7e-4 0.01,0 h 5.3e-4 c 0,-1.7e-4 0.01,-1.7e-4 0.01,0 0,-1.7e-4 0.01,-1.7e-4 0.01,0 0,-1.7e-4 0.01,-1.7e-4 0.01,0 0,-1.7e-4 0.01,-1.7e-4 0.01,0 0,-1.7e-4 0.01,-1.7e-4 0.01,0 0,-1.7e-4 0.01,-1.7e-4 0.01,0 0,-1.7e-4 0.01,-1.7e-4 0.01,0 0,0.003 0.01,0.006 0.01,0.01 0,0.003 0.01,0.006 0.01,0.01 0,0.003 0.01,0.006 0.01,0.01 0,0.003 0.01,0.006 0.01,0.01 0,0.003 0.01,0.006 0.01,0.01 2e-4,0.003 2e-4,0.007 0,0.01 2e-4,0.003 2e-4,0.007 0,0.01 2e-4,0.003 2e-4,0.007 0,0.01 2e-4,0.003 2e-4,0.007 0,0.01 2e-4,0.003 2e-4,0.007 0,0.01 0,0.003 -2e-4,0.007 -5.3e-4,0.01 -2e-4,0.003 -5.3e-4,0.007 -0.001,0.01 2e-4,0.003 2e-4,0.007 0,0.01 2e-4,0.003 2e-4,0.007 0,0.01 2e-4,0.003 2e-4,0.007 0,0.01 -0.1149,0.2313 -0.2461,0.4362 -0.3927,0.617 -0.1467,0.1808 -0.3085,0.3375 -0.4832,0.4718 -0.1748,0.1344 -0.3629,0.2466 -0.5623,0.3385 -0.1993,0.092 -0.4096,0.1635 -0.6299,0.217 -0.4405,0.1071 -0.9189,0.1439 -1.4252,0.1297 -0.5063,-0.014 -1.0403,-0.08 -1.5922,-0.1767 -1.1039,-0.1942 -2.2807,-0.5157 -3.4432,-0.8196 -0.5812,-0.1519 -1.1591,-0.2998 -1.7224,-0.4247 -0.5552,-0.1232 -1.0955,-0.2229 -1.6123,-0.2848 0.022,0.873 0.3045,1.4833 0.877,1.8051 l 2.6675,0.8066 c 0.5992,0.16 1.163,0.282 1.7002,0.3669 0.5497,0.087 1.0738,0.1375 1.5885,0.1592 0.5147,0.022 1.0197,0.014 1.5296,-0.016 0.51,-0.03 1.0252,-0.082 1.5607,-0.1499 0.053,0.4736 0.067,0.8855 0.1002,1.1995 0.054,0.5146 0.1067,1.031 0.1437,1.5172 0.059,0.7737 0.087,1.5061 0.1101,2.236 0.014,0.4344 0.019,0.8729 0.021,1.3002 h -5.3e-4 c 0,0.4887 -0.029,0.9874 -0.04,1.4759 -0.011,0.495 -0.017,0.9911 -0.041,1.4955 h 5.3e-4 c -0.022,0.4589 -0.073,0.9902 -0.1023,1.4629 -0.02,0.3181 -0.046,0.6568 -0.069,0.9845 h -5.3e-4 c -0.034,0.4748 -0.067,0.9492 -0.1002,1.4263 -0.014,0.2021 -0.023,0.3873 -0.042,0.6046 l -0.025,0.1581 c -0.017,0.1032 -0.042,0.1906 -0.062,0.2883 -0.099,0.4881 -0.2414,0.8898 -0.4036,1.2496 l -5.3e-4,5.3e-4 c -0.2016,0.4465 -0.4441,0.802 -0.7189,1.0733 -0.1517,0.1499 -0.3127,0.2756 -0.48,0.3783 -0.1673,0.1027 -0.3411,0.1827 -0.5194,0.2424 -0.3565,0.1193 -0.7296,0.1569 -1.1022,0.1286 -0.3591,-0.027 -0.7161,-0.1217 -1.0563,-0.2563 0.6894,0.6393 1.5319,1.1476 2.5704,1.4547 1.6152,0.5022 3.2235,0.9807 4.8839,0.9772 5.7528,-0.012 7.7171,-1.2828 9.5555,-2.5642 3.0487,-2.2475 4.8469,-7.2956 4.1321,-7.5897 v 0 c -1.5673,-0.6426 -10.2245,12.4478 -12.2664,1.1359 -0.7778,-5.4519 2.162,-15.02613 -1.1215,-18.2382 -0.5732,-0.4474 -1.6226,-0.7201 -2.1703,0.5963 -0.2849,1.0694 -0.4118,0.8015 -1.1855,0.7767 -0.1523,-0.014 -0.1735,-0.3545 -0.3028,-0.9508 -0.2013,-0.6061 -0.7023,-1.2241 -1.2542,-1.3271 z"
       style="fill:#8cb727;fill-opacity:1;stroke:none;stroke-width:0.07495651;stroke-linecap:butt;stroke-linejoin:round;stroke-miterlimit:4;stroke-dasharray:none;stroke-opacity:1"
       sodipodi:nodetypes="cccccccccscccccsccccccccccccccccccccccccccccccccccccccccccccccccccccccccccccccccccccsccccccccccccccc" />
    <ellipse
       style="opacity:1;fill:#ffffff;fill-opacity:1;stroke:none;stroke-width:1.16194797;stroke-linecap:round;stroke-linejoin:round;stroke-miterlimit:4;stroke-dasharray:none;stroke-dashoffset:0;stroke-opacity:1"
       id="ellipse7683"
       cx="-82.233673"
       cy="107.47674"
       rx="1.1546919"
       ry="1.571138"
       transform="scale(-1,1)" />
    <ellipse
       ry="0.7880007"
       rx="0.57913309"
       cy="115.5303"
       cx="-70.351891"
       id="ellipse7685"
       style="opacity:1;fill:#000000;fill-opacity:1;stroke:none;stroke-width:0.58277237;stroke-linecap:round;stroke-linejoin:round;stroke-miterlimit:4;stroke-dasharray:none;stroke-dashoffset:0;stroke-opacity:1"
       transform="matrix(-0.99457806,0.10399266,0.10399266,0.99457806,0,0)" />
    <ellipse
       ry="1.571138"
       rx="1.1546919"
       cy="107.01153"
       cx="-77.930084"
       id="ellipse7687"
       style="opacity:1;fill:#ffffff;fill-opacity:1;stroke:none;stroke-width:1.16194797;stroke-linecap:round;stroke-linejoin:round;stroke-miterlimit:4;stroke-dasharray:none;stroke-dashoffset:0;stroke-opacity:1"
       transform="scale(-1,1)" />
    <ellipse
       style="opacity:1;fill:#000000;fill-opacity:1;stroke:none;stroke-width:0.58277237;stroke-linecap:round;stroke-linejoin:round;stroke-miterlimit:4;stroke-dasharray:none;stroke-dashoffset:0;stroke-opacity:1"
       id="ellipse7689"
       cx="-70.608765"
       cy="111.99164"
       rx="0.57913309"
       ry="0.7880007"
       transform="matrix(-0.99790194,0.06474351,0.06474351,0.99790194,0,0)" />
    <path
       sodipodi:nodetypes="cccccccccccccccccccccccccccccccc"
       inkscape:connector-curvature="0"
       id="path7691"
       d="m 70.953753,113.76045 c -1.012404,0.47015 -1.557738,1.00811 -1.924413,1.72132 -0.374381,0.72861 -0.406084,1.43576 -0.09578,2.12124 0.296884,0.6553 0.7317,1.07767 1.303894,1.268 0.577698,0.17568 1.342641,0.12054 2.294721,-0.16501 l 1.202511,-0.36238 c 0.365574,-0.10453 0.639012,-0.13165 0.820314,-0.0804 0.181301,0.0517 0.324955,0.19308 0.42953,0.4249 0.09578,0.21169 0.07155,0.44121 -0.07155,0.68834 -0.13771,0.23248 -0.403332,0.43789 -0.796427,0.61611 -0.5242,0.23744 -0.965509,0.25538 -1.324368,0.0528 -0.145305,-0.0804 -0.269586,-0.20607 -0.37196,-0.37824 -0.20662,-0.34972 -2.34811,0.71926 -2.147435,1.03872 0.232049,0.41335 0.508238,0.70836 0.976187,1.04157 0.983122,0.58727 2.190476,0.55634 3.621842,-0.0925 1.078671,-0.48876 1.810481,-1.0997 2.19521,-1.83284 0.384288,-0.73324 0.420944,-1.44259 0.110409,-2.12816 -0.630205,-1.39109 -1.852091,-1.80895 -3.666314,-1.25425 l -1.20306,0.36238 c -0.645839,0.18328 -1.039374,0.11911 -1.181046,-0.19341 -0.09137,-0.20167 -0.06825,-0.40663 0.06824,-0.61447 0.132206,-0.21774 0.384729,-0.41114 0.757679,-0.58012 0.433494,-0.19649 0.818333,-0.2315 1.155397,-0.10453 0.131765,0.0495 0.252192,0.12902 0.362272,0.23722 0.07265,0.11537 1.321507,-0.71684 1.27087,-0.92048 l -0.295014,-0.23557 -0.712986,0.38065 -0.24966,-0.70694 -0.530805,0.6159 -0.4838,-0.65805 -0.722784,0.74909 z"
       style="font-style:normal;font-variant:normal;font-weight:bold;font-stretch:normal;font-size:13.79998207px;line-height:1.25;font-family:'TT Hoves';-inkscape-font-specification:'TT Hoves Bold';letter-spacing:0px;word-spacing:0px;fill:#e9ebec;fill-opacity:1;stroke:#1f2128;stroke-width:0.28;stroke-miterlimit:4;stroke-dasharray:none;stroke-opacity:1" />
    <path
       sodipodi:nodetypes="cccccccccccccccc"
       inkscape:connector-curvature="0"
       id="path7693"
       d="m 84.092689,115.4917 c 0,0 -7.3026,2.8348 -7.4689,2.8068 -0.094,0.046 -1.3563,-0.4232 -1.6727,-0.4726 -0.3818,-0.2105 -0.9642,0.3279 -0.3835,0.6859 l 1.2386,0.7791 -1.8589,0.092 c -0.9467,0.08 -0.5192,0.9227 0.1619,0.8033 l 1.5315,-0.1133 -0.8995,0.699 c -0.2966,0.1802 -0.3254,0.8023 0.2924,0.6028 l 1.1857,-0.3655 -0.7614,0.6594 c -0.4112,0.4106 0.3452,0.7044 0.7771,0.3919 l 2.8999,-1.7593 3.7948,-1.7625 z"
       style="fill:#8cb727;fill-opacity:1;stroke:none;stroke-width:0.12430493;stroke-linecap:butt;stroke-linejoin:miter;stroke-miterlimit:4;stroke-dasharray:none;stroke-opacity:1" />
    <ellipse
       style="opacity:1;fill:#000000;fill-opacity:1;stroke:none;stroke-width:0.08000798;stroke-linecap:round;stroke-linejoin:round;stroke-miterlimit:4;stroke-dasharray:none;stroke-dashoffset:0;stroke-opacity:1"
       id="ellipse7695"
       cx="71.488678"
       cy="107.60625"
       rx="0.24716294"
       ry="0.35620543" />
    <path
       style="fill:#ffffff;stroke:none;stroke-width:0.03768452;stroke-linecap:butt;stroke-linejoin:miter;stroke-miterlimit:4;stroke-dasharray:none;stroke-opacity:1"
       d="m 81.377989,111.0188 c 0.06,0.081 0.1245,0.1534 0.1598,0.2039 0.5795,0.8298 -0.264,0.7545 -0.52,0.4205 -0.037,-0.049 -0.1029,-0.1442 -0.1213,-0.1909 l -0.081,0.022 c 0.4084,2.0565 -0.706,1.4751 -0.8885,0.9213 -0.038,-0.1135 -0.1527,-0.5442 -0.1672,-0.6319 l -0.4382,0.2537 c 0.1434,1.533 -0.6438,1.1744 -0.8028,0.4181 -0.02,-0.092 -0.023,-0.2506 -0.02,-0.3503 l -1.0222,-0.043 c 0.011,0.2021 0.038,0.509 0.01,0.6492 -0.1261,0.6279 -0.6761,0.4733 -0.7205,-0.034 -0.012,-0.1298 -0.058,-0.5143 -0.043,-0.6685 l -1.0246,-0.2352 c -0.028,0.2045 -0.085,0.4708 -0.124,0.6094 -0.1317,0.4639 -0.606,0.4229 -0.6545,-0.06 -0.017,-0.1727 0.035,-0.474 0.079,-0.6898 l -1.0211,-0.2492 -0.032,0.371 c -0.068,0.7502 -0.8512,0.6626 -0.7714,0.01 l 0.037,-0.5992 -0.9009,-0.189 -0.1787,0.5003 c -0.1175,0.3378 -0.679,0.6172 -0.6399,-0.2021 l 0.045,-0.5379 -0.3441,-0.071 -0.1377,0.491 c -0.1716,0.5945 -0.7785,0.7066 -0.7999,-0.1811 l 0.049,-0.5673 0.1915,-0.5547 10.2172,-0.2191 z"
       id="path7697"
       inkscape:connector-curvature="0"
       sodipodi:nodetypes="cssccsccsccssccsscccccccccccccccc" />
    <path
       style="fill:#8cb727;fill-opacity:1;stroke:none;stroke-width:0.26458332px;stroke-linecap:butt;stroke-linejoin:miter;stroke-opacity:1"
       d="m 69.882589,110.3888 c 5.236,1.3676 10.3263,3.1128 11.7098,0.2839 l -0.451,-1.6871 -10.4904,0.5679 z"
       id="path7699"
       inkscape:connector-curvature="0"
       sodipodi:nodetypes="ccccc" />
    <path
       style="fill:#ed1b24;fill-opacity:1;stroke:none;stroke-width:0.14024776px;stroke-linecap:butt;stroke-linejoin:miter;stroke-opacity:1"
       d="m 79.798689,112.0629 c 0.122,-0.3962 0.1755,-0.7093 0.2093,-0.9912 0.1279,-1.2462 -0.9757,-0.9313 -1.1325,-0.1292 -0.2048,0.7396 -0.436,1.352 -0.4131,1.2827 0.5055,-0.074 0.9253,0.1133 1.3363,-0.1623 z"
       id="path7701"
       inkscape:connector-curvature="0"
       sodipodi:nodetypes="ccccc" />
    <path
       inkscape:connector-curvature="0"
       id="path7703"
       d="m 69.844989,110.6405 c 0.5168,0.062 1.0571,0.1616 1.6123,0.2848 0.5633,0.1249 1.1412,0.2728 1.7224,0.4247 1.1625,0.3039 2.3393,0.6254 3.4432,0.8196 0.5519,0.097 1.0859,0.1626 1.5922,0.1767 0.5063,0.014 0.9847,-0.023 1.4252,-0.1297 0.2203,-0.053 0.4306,-0.1251 0.6299,-0.217 0.1994,-0.092 0.3875,-0.2041 0.5623,-0.3385 0.1747,-0.1343 0.3365,-0.291 0.4832,-0.4718 0.1466,-0.1808 0.2778,-0.3857 0.3927,-0.617 a 0.10001,0.10001 0 0 0 0,-0.01 0.10001,0.10001 0 0 0 0,-0.01 0.10001,0.10001 0 0 0 0,-0.01 0.10001,0.10001 0 0 0 0,-0.01 0.10001,0.10001 0 0 0 5.3e-4,-0.01 0.10001,0.10001 0 0 0 0,-0.01 0.10001,0.10001 0 0 0 0,-0.01 0.10001,0.10001 0 0 0 0,-0.01 0.10001,0.10001 0 0 0 0,-0.01 0.10001,0.10001 0 0 0 0,-0.01 0.10001,0.10001 0 0 0 -0.01,-0.01 0.10001,0.10001 0 0 0 -0.01,-0.01 0.10001,0.10001 0 0 0 -0.01,-0.01 0.10001,0.10001 0 0 0 -0.01,-0.01 0.10001,0.10001 0 0 0 -0.01,-0.01 0.10001,0.10001 0 0 0 -0.01,0 0.10001,0.10001 0 0 0 -0.01,0 0.10001,0.10001 0 0 0 -0.01,0 0.10001,0.10001 0 0 0 -0.01,0 0.10001,0.10001 0 0 0 -0.01,-0.001 0.10001,0.10001 0 0 0 -0.01,0 0.10001,0.10001 0 0 0 -0.01,0.001 h -5.3e-4 a 0.10001,0.10001 0 0 0 -0.01,0 0.10001,0.10001 0 0 0 -0.01,0 0.10001,0.10001 0 0 0 -0.01,0 0.10001,0.10001 0 0 0 -0.01,0.01 0.10001,0.10001 0 0 0 -0.01,0.01 0.10001,0.10001 0 0 0 -0.01,0.01 0.10001,0.10001 0 0 0 -0.01,0.01 0.10001,0.10001 0 0 0 -0.01,0.01 0.10001,0.10001 0 0 0 -0.01,0.01 0.10001,0.10001 0 0 0 0,0.01 c -0.10881,0.2192 -0.2322,0.4124 -0.3689,0.5819 -0.1368,0.1695 -0.28691,0.3154 -0.44961,0.4403 -0.1627,0.1249 -0.33769,0.2289 -0.52449,0.3142 -0.1869,0.085 -0.3858,0.1523 -0.5948,0.2031 -0.4182,0.1016 -0.87901,0.1366 -1.372,0.1224 -0.4931,-0.014 -1.01791,-0.078 -1.5633,-0.1736 -1.09051,-0.1919 -2.261,-0.5125 -3.4251,-0.817 -0.58201,-0.1522 -1.1624,-0.3006 -1.7306,-0.4263 -0.56821,-0.1257 -1.1239,-0.2287 -1.6568,-0.2915 a 0.10029478,0.10029478 0 0 0 -0.01,-0.001 0.10029478,0.10029478 0 0 0 -0.01,0 c 0,6.1e-4 0,0 0,0 0,0.073 0.011,0.1319 0.012,0.2015 z"
       style="fill:#000000;fill-opacity:1;stroke:none;stroke-width:0.07495651;stroke-linecap:butt;stroke-linejoin:round;stroke-miterlimit:4;stroke-dasharray:none;stroke-opacity:1" />
    <path
       sodipodi:nodetypes="cccccccccccccc"
       inkscape:connector-curvature="0"
       id="path7705"
       d="m 84.779389,132.2982 c 0.038,1.1972 0.1606,3.3532 0,3.5915 -0.2541,0.311 -1.28,0.8313 -1.9814,1.2819 -0.4742,0.2705 -0.5203,-0.068 -0.4256,-0.2657 l 0.1189,-0.2408 -0.9215,0.1124 c -0.3035,0.062 -0.7165,-0.1329 -0.3272,-0.4854 l 0.606,-0.4886 h -0.721 c -0.328,0 -0.4043,-0.3755 -0.028,-0.4998 l 1.4922,-0.3346 0.045,-5.1945 1.8636,1.2869 z"
       style="fill:#8cb727;fill-opacity:1;stroke:none;stroke-width:0.08629426;stroke-linecap:butt;stroke-linejoin:miter;stroke-miterlimit:4;stroke-dasharray:none;stroke-opacity:1" />
    <path
       inkscape:connector-curvature="0"
       style="fill:#d2d75f;fill-opacity:1;stroke:none;stroke-width:0.15666464px;stroke-linecap:butt;stroke-linejoin:miter;stroke-opacity:1"
       d="m 79.722189,127.4738 0.025,-0.1581 c 0,0.021 0,0.037 -0.01,0.059 -0.01,0.036 -0.015,0.064 -0.022,0.099 z"
       id="path7707" />
    <path
       sodipodi:nodetypes="ccccc"
       inkscape:connector-curvature="0"
       id="path7711"
       d="m 72.106989,133.6067 -0.7798,0.5541 c 0.5198,-0.019 1.1678,-0.1924 1.5308,0.041 l 0.7676,-0.4925 c -0.3691,-0.1759 -0.8595,-0.2264 -1.5186,-0.1026 z"
       style="fill:#e9ebec;fill-opacity:1;stroke:none;stroke-width:0.3250356px;stroke-linecap:butt;stroke-linejoin:miter;stroke-opacity:1" />
    <path
       sodipodi:nodetypes="ccccc"
       inkscape:connector-curvature="0"
       id="path7713"
       d="m 73.558189,134.3708 1.1099,0.1183 -0.2517,-0.3228 0.2273,-0.4644 c -0.3664,0.2186 -0.7746,0.3983 -1.0855,0.6689 z"
       style="fill:#e9ebec;fill-opacity:1;stroke:none;stroke-width:0.39992461px;stroke-linecap:butt;stroke-linejoin:miter;stroke-opacity:1" />
    <path
       sodipodi:nodetypes="ccsccc"
       inkscape:connector-curvature="0"
       id="path7715"
       d="m 73.076189,135.1422 0.3581,0.6036 c 0.1068,-0.1126 0.2551,-0.3179 0.359,-0.4324 0.1035,-0.1135 0.1441,-0.1765 0.1884,-0.3332 -0.185,-0.029 -0.38,0.01 -0.9055,0.1623 z"
       style="fill:#e9ebec;fill-opacity:1;stroke:none;stroke-width:0.3606863px;stroke-linecap:butt;stroke-linejoin:miter;stroke-opacity:1" />
    <path
       sodipodi:nodetypes="cccccc"
       style="fill:#e9ebec;fill-opacity:1;stroke:none;stroke-width:0.48934653px;stroke-linecap:butt;stroke-linejoin:miter;stroke-opacity:1"
       d="m 71.351689,134.9695 0.3426,0.1674 0.4726,0.1644 0.6579,-0.4414 c 0.2388,-0.4418 -0.9769,-0.1822 -1.4737,0.1095 z"
       id="path7717"
       inkscape:connector-curvature="0" />
    <path
       sodipodi:nodetypes="cccccc"
       inkscape:connector-curvature="0"
       id="path7719"
       d="m 76.461789,106.848 c 0.8248,-0.1569 2.054,-0.071 2.8853,0.3106 l -0.3812,-1.539 -0.874,-0.6969 -1.1221,0.3898 z"
       style="fill:#8cb727;fill-opacity:1;stroke:none;stroke-width:0.26458332px;stroke-linecap:butt;stroke-linejoin:miter;stroke-opacity:1" />
    <path
       sodipodi:nodetypes="ccccccc"
       inkscape:connector-curvature="0"
       id="path7721"
       d="m 81.280989,106.4918 -0.2785,0.7441 c 0.9611,-0.12 1.8257,-0.041 2.7509,0.4512 l -0.5352,-1.3607 -0.7324,-0.5197 -0.8268,0.071 z"
       style="fill:#8cb727;fill-opacity:1;stroke:none;stroke-width:0.26458332px;stroke-linecap:butt;stroke-linejoin:miter;stroke-opacity:1" />
    <path
       sodipodi:nodetypes="cccc"
       inkscape:connector-curvature="0"
       id="path7723"
       d="m 68.6906,116.43007 c 0.4443,0.032 0.5207,0.4022 0.3186,0.602 -0.1,0.052 -0.2145,0.067 -0.3312,0.068 -0.2933,-0.01 -0.2226,-0.6637 0.013,-0.6697 z"
       style="fill:#77b52a;fill-opacity:1;stroke:none;stroke-width:0.00264583;stroke-linecap:butt;stroke-linejoin:miter;stroke-miterlimit:4;stroke-dasharray:none;stroke-opacity:1" />
    <path
       style="fill:#77b52a;fill-opacity:1;stroke:none;stroke-width:0.00264583;stroke-linecap:butt;stroke-linejoin:miter;stroke-miterlimit:4;stroke-dasharray:none;stroke-opacity:1"
       d="m 68.7054,117.36357 c 0.2424,-0.3353 0.709,-0.1007 0.6126,0.2301 -0.071,0.1647 -0.1408,0.189 -0.3842,0.2414 -0.2151,0.025 -0.3234,-0.3466 -0.2284,-0.4715 z"
       id="path7725"
       inkscape:connector-curvature="0"
       sodipodi:nodetypes="cccc" />
    <path
       inkscape:transform-center-y="0.0374367"
       inkscape:transform-center-x="0.036153713"
       sodipodi:nodetypes="cccc"
       inkscape:connector-curvature="0"
       id="path7727"
       d="m 69.0193,117.99757 c 0.2265,-0.212 0.5766,-0.1453 0.5656,0.1956 -0.01,0.1003 -0.076,0.1695 -0.166,0.2499 -0.1255,0.1102 -0.5705,-0.2546 -0.3996,-0.4455 z"
       style="fill:#77b52a;fill-opacity:1;stroke:none;stroke-width:0.00216001;stroke-linecap:butt;stroke-linejoin:miter;stroke-miterlimit:4;stroke-dasharray:none;stroke-opacity:1" />
    <ellipse
       ry="0.31407607"
       rx="0.21793035"
       cy="107.48895"
       cx="69.630402"
       id="ellipse7729"
       style="opacity:1;fill:#000000;fill-opacity:1;stroke:none;stroke-width:0.07054523;stroke-linecap:round;stroke-linejoin:round;stroke-miterlimit:4;stroke-dasharray:none;stroke-dashoffset:0;stroke-opacity:1" />
    <path
       inkscape:connector-curvature="0"
       id="path977"
       style="font-style:normal;font-variant:normal;font-weight:bold;font-stretch:normal;font-size:13.94157696px;line-height:1.25;font-family:'TT Hoves';-inkscape-font-specification:'TT Hoves Bold';letter-spacing:-0.18124057px;word-spacing:0px;fill:#e9ebec;fill-opacity:1;stroke:none;stroke-width:0.34853938"
       d="m -20.363106,138.66595 h 2.160945 q 0.05577,0.20912 0.237007,0.39036 0.376422,0.37642 1.087443,0.37642 0.669195,0 1.031676,-0.34854 0.362481,-0.34854 0.362481,-0.97591 v -0.83649 h -0.06971 q -0.195182,0.22306 -0.418247,0.34854 -0.52978,0.34854 -1.254742,0.34854 -1.435982,0 -2.356126,-0.94803 -0.920144,-0.96197 -0.920144,-2.46766 0,-1.50569 0.920144,-2.45372 0.920144,-0.96196 2.356126,-0.96196 0.79467,0 1.380216,0.41824 0.237007,0.18124 0.432189,0.41825 h 0.06971 l 0.139416,-0.69708 h 1.812405 v 6.83137 q 0,1.49175 -0.892261,2.31431 -0.892261,0.82255 -2.593133,0.82255 -2.077295,0 -2.969556,-1.28263 -0.418248,-0.58554 -0.515839,-1.29656 z m 2.370068,-3.06715 q 0.418248,0.41825 1.045619,0.41825 0.627371,0 1.045618,-0.41825 0.418247,-0.41825 0.418247,-1.04562 0,-0.62737 -0.418247,-1.04562 -0.418247,-0.41824 -1.045618,-0.41824 -0.627371,0 -1.045619,0.41824 -0.418247,0.41825 -0.418247,1.04562 0,0.62737 0.418247,1.04562 z" />
    <path
       inkscape:connector-curvature="0"
       id="path979"
       style="font-style:normal;font-variant:normal;font-weight:bold;font-stretch:normal;font-size:13.94157696px;line-height:1.25;font-family:'TT Hoves';-inkscape-font-specification:'TT Hoves Bold';letter-spacing:-0.18124057px;word-spacing:0px;fill:#e9ebec;fill-opacity:1;stroke:none;stroke-width:0.34853938"
       d="m -7.2301472,136.22617 h 2.0912366 q -0.2509484,0.65526 -0.7110205,1.15715 -1.087443,1.14321 -2.7046659,1.14321 -1.617223,0 -2.662841,-1.03168 -1.031677,-1.04561 -1.031677,-2.66284 0,-1.61722 1.031677,-2.6489 1.045618,-1.04561 2.662841,-1.04561 1.5614566,0 2.5931333,1.01773 1.0316767,1.01774 1.0316767,2.53737 0,0.19518 -0.041825,0.52978 l -0.027883,0.1673 h -5.158383 q 0.05577,0.64131 0.4879547,1.05956 0.4461305,0.4043 1.1153262,0.4043 0.5576631,0 1.0037935,-0.30671 0.2230653,-0.1673 0.3206564,-0.32066 z m -2.9277308,-2.09124 h 3.2065624 q -0.3067147,-1.39415 -1.6032814,-1.39415 -1.2965667,0 -1.603281,1.39415 z" />
    <path
       inkscape:connector-curvature="0"
       id="path981"
       style="font-style:normal;font-variant:normal;font-weight:bold;font-stretch:normal;font-size:13.94157696px;line-height:1.25;font-family:'TT Hoves';-inkscape-font-specification:'TT Hoves Bold';letter-spacing:-0.18124057px;word-spacing:0px;fill:#e9ebec;fill-opacity:1;stroke:none;stroke-width:0.34853938"
       d="m -3.3683469,136.43529 v -3.20656 H -4.483673 v -1.95182 h 1.1153261 v -2.23065 h 2.0912366 v 2.23065 h 1.60328134 v 1.95182 H -1.2771103 v 2.71861 q 0,0.48795 0.48795518,0.48795 h 1.11532616 v 1.95183 H -1.3468182 q -2.0215287,0 -2.0215287,-1.95183 z" />
    <path
       inkscape:connector-curvature="0"
       id="path983"
       style="font-style:normal;font-variant:normal;font-weight:bold;font-stretch:normal;font-size:13.94157696px;line-height:1.25;font-family:'TT Hoves';-inkscape-font-specification:'TT Hoves Bold';letter-spacing:-0.18124057px;word-spacing:0px;fill:#e9ebec;fill-opacity:1;stroke:none;stroke-width:0.34853938"
       d="m 9.9318878,136.22617 h 2.0912362 q -0.250948,0.65526 -0.71102,1.15715 -1.087443,1.14321 -2.704666,1.14321 -1.6172229,0 -2.6628412,-1.03168 -1.0316767,-1.04561 -1.0316767,-2.66284 0,-1.61722 1.0316767,-2.6489 1.0456183,-1.04561 2.6628412,-1.04561 1.561457,0 2.593133,1.01773 1.031677,1.01774 1.031677,2.53737 0,0.19518 -0.04183,0.52978 l -0.02788,0.1673 H 7.0041566 q 0.055766,0.64131 0.4879552,1.05956 0.4461305,0.4043 1.1153262,0.4043 0.5576631,0 1.0037935,-0.30671 0.2230653,-0.1673 0.3206563,-0.32066 z m -2.9277312,-2.09124 h 3.2065624 q -0.3067144,-1.39415 -1.603281,-1.39415 -1.2965667,0 -1.6032814,1.39415 z" />
    <path
       inkscape:connector-curvature="0"
       id="path985"
       style="font-style:normal;font-variant:normal;font-weight:bold;font-stretch:normal;font-size:13.94157696px;line-height:1.25;font-family:'TT Hoves';-inkscape-font-specification:'TT Hoves Bold';letter-spacing:-0.18124057px;word-spacing:0px;fill:#e9ebec;fill-opacity:1;stroke:none;stroke-width:0.34853938"
       d="m 17.836753,138.38712 -0.139416,-0.62738 h -0.06971 q -0.167299,0.19519 -0.474013,0.39037 -0.571605,0.37642 -1.477807,0.37642 -1.226859,0 -1.93788,-0.62737 -0.71102,-0.62737 -0.71102,-1.60328 0,-1.03168 0.752845,-1.65905 0.752845,-0.64131 2.174886,-0.64131 h 1.603281 v -0.13942 q 0,-0.47401 -0.292773,-0.75284 -0.292773,-0.29278 -0.822553,-0.29278 -0.543721,0 -0.892261,0.32066 -0.167299,0.1673 -0.223065,0.30672 h -2.021528 q 0.125474,-1.0038 0.934085,-1.64511 0.808612,-0.65525 2.202769,-0.65525 1.519632,0 2.356127,0.7389 0.850436,0.7389 0.850436,1.96576 v 4.54496 z m -0.278832,-2.85803 v -0.13941 h -1.324449 q -0.557663,0 -0.836495,0.20912 -0.278831,0.20912 -0.278831,0.55766 0,0.3346 0.250948,0.55767 0.26489,0.20912 0.724962,0.20912 0.669196,0 1.05956,-0.37642 0.404305,-0.39037 0.404305,-1.01774 z" />
    <path
       inkscape:connector-curvature="0"
       id="path987"
       style="font-style:normal;font-variant:normal;font-weight:bold;font-stretch:normal;font-size:13.94157696px;line-height:1.25;font-family:'TT Hoves';-inkscape-font-specification:'TT Hoves Bold';letter-spacing:-0.18124057px;word-spacing:0px;fill:#e9ebec;fill-opacity:1;stroke:none;stroke-width:0.34853938"
       d="m 21.48942,136.43529 v -3.20656 h -1.115326 v -1.95182 h 1.115326 v -2.23065 h 2.091237 v 2.23065 h 1.603281 v 1.95182 h -1.603281 v 2.71861 q 0,0.48795 0.487955,0.48795 h 1.115326 v 1.95183 h -1.672989 q -2.021529,0 -2.021529,-1.95183 z" />
    <path
       inkscape:connector-curvature="0"
       id="path989"
       style="font-style:normal;font-variant:normal;font-weight:bold;font-stretch:normal;font-size:13.94157696px;line-height:1.25;font-family:'TT Hoves';-inkscape-font-specification:'TT Hoves Bold';letter-spacing:-0.18124057px;word-spacing:0px;fill:#e9ebec;fill-opacity:1;stroke:none;stroke-width:0.34853938"
       d="m 30.92785,136.22617 h 2.091236 q -0.250948,0.65526 -0.71102,1.15715 -1.087443,1.14321 -2.704666,1.14321 -1.617223,0 -2.662841,-1.03168 -1.031677,-1.04561 -1.031677,-2.66284 0,-1.61722 1.031677,-2.6489 1.045618,-1.04561 2.662841,-1.04561 1.561457,0 2.593133,1.01773 1.031677,1.01774 1.031677,2.53737 0,0.19518 -0.04182,0.52978 l -0.02788,0.1673 h -5.158383 q 0.05577,0.64131 0.487955,1.05956 0.44613,0.4043 1.115326,0.4043 0.557663,0 1.003794,-0.30671 0.223065,-0.1673 0.320656,-0.32066 z m -2.927731,-2.09124 h 3.206562 q -0.306714,-1.39415 -1.603281,-1.39415 -1.296567,0 -1.603281,1.39415 z" />
    <path
       inkscape:connector-curvature="0"
       id="path991"
       style="font-style:normal;font-variant:normal;font-weight:bold;font-stretch:normal;font-size:13.94157696px;line-height:1.25;font-family:'TT Hoves';-inkscape-font-specification:'TT Hoves Bold';letter-spacing:-0.18124057px;word-spacing:0px;fill:#e9ebec;fill-opacity:1;stroke:none;stroke-width:0.34853938"
       d="m 34.371409,138.38712 v -7.11021 h 1.812405 l 0.139415,0.62737 h 0.06971 q 0.167299,-0.19518 0.474014,-0.37642 0.599488,-0.39036 1.477807,-0.39036 1.254742,0 2.049412,0.82255 0.808611,0.80861 0.808611,2.10518 v 4.32189 h -2.091236 v -3.90365 q 0,-0.58554 -0.376423,-0.94802 -0.362481,-0.37643 -0.948027,-0.37643 -0.585546,0 -0.961969,0.37643 -0.362481,0.36248 -0.362481,0.94802 v 3.90365 z" />
  </g>
</svg>
