<?xml version="1.0" encoding="UTF-8" standalone="no"?>
<!-- Created with Inkscape (http://www.inkscape.org/) -->

<svg
   xmlns:dc="http://purl.org/dc/elements/1.1/"
   xmlns:cc="http://creativecommons.org/ns#"
   xmlns:rdf="http://www.w3.org/1999/02/22-rdf-syntax-ns#"
   xmlns:svg="http://www.w3.org/2000/svg"
   xmlns="http://www.w3.org/2000/svg"
   xmlns:sodipodi="http://sodipodi.sourceforge.net/DTD/sodipodi-0.dtd"
   xmlns:inkscape="http://www.inkscape.org/namespaces/inkscape"
   width="179.60512mm"
   height="44.106152mm"
   viewBox="0 0 179.60512 44.106151"
   version="1.1"
   id="svg8014"
   inkscape:version="0.92.5 (2060ec1f9f, 2020-04-08)"
   sodipodi:docname="landing-page-text-christmas-dark.svg">
  <defs
     id="defs8008" />
  <sodipodi:namedview
     id="base"
     pagecolor="#ffffff"
     bordercolor="#666666"
     borderopacity="1.0"
     inkscape:pageopacity="0.0"
     inkscape:pageshadow="2"
     inkscape:zoom="1.4142136"
     inkscape:cx="303.91793"
     inkscape:cy="119.46767"
     inkscape:document-units="mm"
     inkscape:current-layer="layer1"
     showgrid="false"
     fit-margin-top="0"
     fit-margin-left="0"
     fit-margin-right="0"
     fit-margin-bottom="0"
     inkscape:window-width="1848"
     inkscape:window-height="1016"
     inkscape:window-x="72"
     inkscape:window-y="1107"
     inkscape:window-maximized="1"
     inkscape:snap-nodes="true"
     showguides="true"
     inkscape:guide-bbox="true"
     inkscape:snap-grids="true"
     inkscape:snap-page="false">
    <sodipodi:guide
       position="79.896049,31.63614"
       orientation="1,0"
       id="guide975"
       inkscape:locked="false" />
  </sodipodi:namedview>
  <metadata
     id="metadata8011">
    <rdf:RDF>
      <cc:Work
         rdf:about="">
        <dc:format>image/svg+xml</dc:format>
        <dc:type
           rdf:resource="http://purl.org/dc/dcmitype/StillImage" />
        <dc:title />
      </cc:Work>
    </rdf:RDF>
  </metadata>
  <g
     inkscape:label="Layer 1"
     inkscape:groupmode="layer"
     id="layer1"
     transform="translate(79.564499,-100.54385)">
    <path
       d="m -54.354286,124.92381 v -9.75911 h 3.62481 q 1.993646,0 3.35992,1.4081 1.380216,1.39416 1.380216,3.47146 0,2.07729 -1.380216,3.48539 -1.366274,1.39416 -3.35992,1.39416 z m 2.230652,-2.16095 h 1.394158 q 1.05956,0 1.784522,-0.76678 0.724962,-0.76679 0.724962,-1.95182 0,-1.18504 -0.724962,-1.95183 -0.724962,-0.76678 -1.784522,-0.76678 h -1.394158 z"
       style="font-style:normal;font-variant:normal;font-weight:bold;font-stretch:normal;font-size:13.94157696px;line-height:1.25;font-family:'TT Hoves';-inkscape-font-specification:'TT Hoves Bold';letter-spacing:-0.18124057px;word-spacing:0px;fill:#e9ebec;fill-opacity:1;stroke:none;stroke-width:0.34853938"
       id="path1135"
       inkscape:connector-curvature="0" />
    <path
       d="m -38.781558,124.03155 q -1.031676,1.03167 -2.648899,1.03167 -1.617223,0 -2.662841,-1.03167 -1.031677,-1.04562 -1.031677,-2.66285 0,-1.61722 1.031677,-2.64889 1.045618,-1.04562 2.662841,-1.04562 1.617223,0 2.648899,1.04562 1.045619,1.03167 1.045619,2.64889 0,1.61723 -1.045619,2.66285 z m -3.80605,-1.39416 q 0.460072,0.47401 1.157151,0.47401 0.697079,0 1.143209,-0.47401 0.460072,-0.48796 0.460072,-1.26869 0,-0.78072 -0.460072,-1.25474 -0.44613,-0.48795 -1.143209,-0.48795 -0.697079,0 -1.157151,0.48795 -0.446131,0.47402 -0.446131,1.25474 0,0.78073 0.446131,1.26869 z"
       style="font-style:normal;font-variant:normal;font-weight:bold;font-stretch:normal;font-size:13.94157696px;line-height:1.25;font-family:'TT Hoves';-inkscape-font-specification:'TT Hoves Bold';letter-spacing:-0.18124057px;word-spacing:0px;fill:#e9ebec;fill-opacity:1;stroke:none;stroke-width:0.34853938"
       id="path1137"
       inkscape:connector-curvature="0" />
    <path
       d="m -36.592752,124.92381 v -7.11021 h 1.812405 l 0.139415,0.62737 h 0.06971 q 0.167299,-0.19518 0.474014,-0.37642 0.599488,-0.39036 1.477807,-0.39036 1.254742,0 2.049412,0.82255 0.808611,0.80861 0.808611,2.10518 v 4.32189 h -2.091236 v -3.90364 q 0,-0.58555 -0.376423,-0.94803 -0.362481,-0.37642 -0.948027,-0.37642 -0.585546,0 -0.961969,0.37642 -0.362481,0.36248 -0.362481,0.94803 v 3.90364 z"
       style="font-style:normal;font-variant:normal;font-weight:bold;font-stretch:normal;font-size:13.94157696px;line-height:1.25;font-family:'TT Hoves';-inkscape-font-specification:'TT Hoves Bold';letter-spacing:-0.18124057px;word-spacing:0px;fill:#e9ebec;fill-opacity:1;stroke:none;stroke-width:0.34853938"
       id="path1139"
       inkscape:connector-curvature="0" />
    <path
       d="m -28.339344,118.51068 v -3.34598 h 1.882113 v 3.34598 z"
       style="font-style:normal;font-variant:normal;font-weight:bold;font-stretch:normal;font-size:13.94157696px;line-height:1.25;font-family:'TT Hoves';-inkscape-font-specification:'TT Hoves Bold';letter-spacing:-0.18124057px;word-spacing:0px;fill:#e9ebec;fill-opacity:1;stroke:none;stroke-width:0.34853938"
       id="path1141"
       inkscape:connector-curvature="0" />
    <path
       d="m -24.268415,122.97199 v -3.20657 h -1.115326 v -1.95182 h 1.115326 v -2.23065 h 2.091236 v 2.23065 h 1.603282 v 1.95182 h -1.603282 v 2.71861 q 0,0.48796 0.487956,0.48796 h 1.115326 v 1.95182 h -1.672989 q -2.021529,0 -2.021529,-1.95182 z"
       style="font-style:normal;font-variant:normal;font-weight:bold;font-stretch:normal;font-size:13.94157696px;line-height:1.25;font-family:'TT Hoves';-inkscape-font-specification:'TT Hoves Bold';letter-spacing:-0.18124057px;word-spacing:0px;fill:#e9ebec;fill-opacity:1;stroke:none;stroke-width:0.34853938"
       id="path1143"
       inkscape:connector-curvature="0" />
    <path
       d="m -15.568903,124.92381 v -9.75911 h 2.091237 v 9.75911 z"
       style="font-style:normal;font-variant:normal;font-weight:bold;font-stretch:normal;font-size:13.94157696px;line-height:1.25;font-family:'TT Hoves';-inkscape-font-specification:'TT Hoves Bold';letter-spacing:-0.18124057px;word-spacing:0px;fill:#e9ebec;fill-opacity:1;stroke:none;stroke-width:0.34853938"
       id="path1145"
       inkscape:connector-curvature="0" />
    <path
       d="m -7.245797,122.76286 h 2.0912366 q -0.2509484,0.65526 -0.7110205,1.15715 -1.087443,1.14321 -2.7046659,1.14321 -1.6172232,0 -2.6628412,-1.03167 -1.031677,-1.04562 -1.031677,-2.66285 0,-1.61722 1.031677,-2.64889 1.045618,-1.04562 2.6628412,-1.04562 1.5614566,0 2.5931333,1.01773 1.0316767,1.01774 1.0316767,2.53737 0,0.19518 -0.041825,0.52978 l -0.027883,0.1673 h -5.1583832 q 0.05577,0.64131 0.487955,1.05956 0.4461304,0.4043 1.1153261,0.4043 0.5576631,0 1.0037935,-0.30671 0.2230653,-0.1673 0.3206564,-0.32066 z m -2.927731,-2.09123 h 3.2065626 q -0.3067147,-1.39416 -1.6032814,-1.39416 -1.2965666,0 -1.6032812,1.39416 z"
       style="font-style:normal;font-variant:normal;font-weight:bold;font-stretch:normal;font-size:13.94157696px;line-height:1.25;font-family:'TT Hoves';-inkscape-font-specification:'TT Hoves Bold';letter-spacing:-0.18124057px;word-spacing:0px;fill:#e9ebec;fill-opacity:1;stroke:none;stroke-width:0.34853938"
       id="path1147"
       inkscape:connector-curvature="0" />
    <path
       d="m -3.3839986,122.97199 v -3.20657 h -1.1153261 v -1.95182 h 1.1153261 v -2.23065 h 2.0912366 v 2.23065 h 1.60328134 v 1.95182 H -1.292762 v 2.71861 q 0,0.48796 0.48795518,0.48796 h 1.11532616 v 1.95182 H -1.3624699 q -2.0215287,0 -2.0215287,-1.95182 z"
       style="font-style:normal;font-variant:normal;font-weight:bold;font-stretch:normal;font-size:13.94157696px;line-height:1.25;font-family:'TT Hoves';-inkscape-font-specification:'TT Hoves Bold';letter-spacing:-0.18124057px;word-spacing:0px;fill:#e9ebec;fill-opacity:1;stroke:none;stroke-width:0.34853938"
       id="path1149"
       inkscape:connector-curvature="0" />
    <path
       d="m 4.8275492,127.71212 v -1.95182 h 1.3941576 q 0.4182474,0 0.4879552,-0.27883 L 6.77937,125.27235 3.9213468,117.8136 H 6.151999 l 1.6729892,4.46131 H 8.1038197 L 9.4979774,117.8136 H 11.72863 l -2.9277314,8.22553 q -0.3206563,0.92015 -0.8364946,1.29657 -0.5158384,0.37642 -1.6729893,0.37642 z"
       style="font-style:normal;font-variant:normal;font-weight:bold;font-stretch:normal;font-size:13.94157696px;line-height:1.25;font-family:'TT Hoves';-inkscape-font-specification:'TT Hoves Bold';letter-spacing:-0.18124057px;word-spacing:0px;fill:#e9ebec;fill-opacity:1;stroke:none;stroke-width:0.34853938"
       id="path1151"
       inkscape:connector-curvature="0" />
    <path
       d="m 18.169626,124.03155 q -1.031677,1.03167 -2.6489,1.03167 -1.617223,0 -2.662841,-1.03167 -1.031677,-1.04562 -1.031677,-2.66285 0,-1.61722 1.031677,-2.64889 1.045618,-1.04562 2.662841,-1.04562 1.617223,0 2.6489,1.04562 1.045618,1.03167 1.045618,2.64889 0,1.61723 -1.045618,2.66285 z m -3.806051,-1.39416 q 0.460072,0.47401 1.157151,0.47401 0.697079,0 1.143209,-0.47401 0.460072,-0.48796 0.460072,-1.26869 0,-0.78072 -0.460072,-1.25474 -0.44613,-0.48795 -1.143209,-0.48795 -0.697079,0 -1.157151,0.48795 -0.44613,0.47402 -0.44613,1.25474 0,0.78073 0.44613,1.26869 z"
       style="font-style:normal;font-variant:normal;font-weight:bold;font-stretch:normal;font-size:13.94157696px;line-height:1.25;font-family:'TT Hoves';-inkscape-font-specification:'TT Hoves Bold';letter-spacing:-0.18124057px;word-spacing:0px;fill:#e9ebec;fill-opacity:1;stroke:none;stroke-width:0.34853938"
       id="path1153"
       inkscape:connector-curvature="0" />
    <path
       d="m 20.358433,122.13549 v -4.32189 h 2.091236 v 3.90364 q 0,0.58555 0.362481,0.96197 0.376423,0.36248 0.961969,0.36248 0.585547,0 0.948028,-0.36248 0.376422,-0.37642 0.376422,-0.96197 v -3.90364 h 2.091237 v 7.11021 h -1.812405 l -0.139416,-0.62737 h -0.06971 q -0.167299,0.19518 -0.474014,0.39036 -0.571604,0.37642 -1.477807,0.37642 -1.254742,0 -2.063353,-0.80861 -0.79467,-0.82255 -0.79467,-2.11912 z"
       style="font-style:normal;font-variant:normal;font-weight:bold;font-stretch:normal;font-size:13.94157696px;line-height:1.25;font-family:'TT Hoves';-inkscape-font-specification:'TT Hoves Bold';letter-spacing:-0.18124057px;word-spacing:0px;fill:#e9ebec;fill-opacity:1;stroke:none;stroke-width:0.34853938"
       id="path1155"
       inkscape:connector-curvature="0" />
    <path
       d="m 28.681538,124.92381 v -7.11021 h 1.812405 l 0.139416,0.55767 h 0.06971 q 0.139416,-0.1673 0.292774,-0.27884 0.376422,-0.27883 0.961968,-0.27883 h 1.32445 v 1.95182 h -1.254742 q -1.254742,0 -1.254742,1.25475 v 3.90364 z"
       style="font-style:normal;font-variant:normal;font-weight:bold;font-stretch:normal;font-size:13.94157696px;line-height:1.25;font-family:'TT Hoves';-inkscape-font-specification:'TT Hoves Bold';letter-spacing:-0.18124057px;word-spacing:0px;fill:#e9ebec;fill-opacity:1;stroke:none;stroke-width:0.34853938"
       id="path1157"
       inkscape:connector-curvature="0" />
    <path
       d="m 38.0084,124.92381 v -5.15839 H 36.893074 V 117.8136 H 38.0084 v -0.97591 q 0,-1.95182 2.021529,-1.95182 h 1.603281 v 1.7427 h -1.045618 q -0.487955,0 -0.487955,0.48795 v 0.69708 h 1.533573 v 1.95182 h -1.533573 v 5.15839 z"
       style="font-style:normal;font-variant:normal;font-weight:bold;font-stretch:normal;font-size:13.94157696px;line-height:1.25;font-family:'TT Hoves';-inkscape-font-specification:'TT Hoves Bold';letter-spacing:-0.18124057px;word-spacing:0px;fill:#e9ebec;fill-opacity:1;stroke:none;stroke-width:0.34853938"
       id="path1159"
       inkscape:connector-curvature="0" />
    <path
       d="m 42.706707,122.13549 v -4.32189 h 2.091237 v 3.90364 q 0,0.58555 0.362481,0.96197 0.376422,0.36248 0.961969,0.36248 0.585546,0 0.948027,-0.36248 0.376422,-0.37642 0.376422,-0.96197 v -3.90364 h 2.091237 v 7.11021 h -1.812405 l -0.139416,-0.62737 h -0.06971 q -0.167299,0.19518 -0.474013,0.39036 -0.571605,0.37642 -1.477808,0.37642 -1.254741,0 -2.063353,-0.80861 -0.79467,-0.82255 -0.79467,-2.11912 z"
       style="font-style:normal;font-variant:normal;font-weight:bold;font-stretch:normal;font-size:13.94157696px;line-height:1.25;font-family:'TT Hoves';-inkscape-font-specification:'TT Hoves Bold';letter-spacing:-0.18124057px;word-spacing:0px;fill:#e9ebec;fill-opacity:1;stroke:none;stroke-width:0.34853938"
       id="path1161"
       inkscape:connector-curvature="0" />
    <path
       d="m 51.029812,124.92381 v -7.11021 h 1.812405 l 0.139416,0.62737 h 0.06971 q 0.167299,-0.19518 0.474013,-0.37642 0.599488,-0.39036 1.477807,-0.39036 1.254742,0 2.049412,0.82255 0.808612,0.80861 0.808612,2.10518 v 4.32189 H 55.76995 v -3.90364 q 0,-0.58555 -0.376422,-0.94803 -0.362481,-0.37642 -0.948028,-0.37642 -0.585546,0 -0.961968,0.37642 -0.362481,0.36248 -0.362481,0.94803 v 3.90364 z"
       style="font-style:normal;font-variant:normal;font-weight:bold;font-stretch:normal;font-size:13.94157696px;line-height:1.25;font-family:'TT Hoves';-inkscape-font-specification:'TT Hoves Bold';letter-spacing:-0.18124057px;word-spacing:0px;fill:#e9ebec;fill-opacity:1;stroke:none;stroke-width:0.34853938"
       id="path1163"
       inkscape:connector-curvature="0" />
    <path
       d="m 64.511314,124.92381 -0.139416,-0.69708 h -0.06971 q -0.195182,0.22306 -0.460072,0.41825 -0.641313,0.41824 -1.491749,0.41824 -1.435982,0 -2.425834,-1.04562 -0.989852,-1.04561 -0.989852,-2.6489 0,-1.60328 0.989852,-2.64889 0.989852,-1.04562 2.425834,-1.04562 0.766787,0 1.380216,0.34854 0.195182,0.11153 0.432189,0.34854 h 0.06971 v -3.20657 h 2.091237 v 9.75911 z m -3.039264,-2.28642 q 0.460072,0.47401 1.157151,0.47401 0.697079,0 1.143209,-0.47401 0.460072,-0.48796 0.460072,-1.26869 0,-0.78072 -0.460072,-1.25474 -0.44613,-0.48795 -1.143209,-0.48795 -0.697079,0 -1.157151,0.48795 -0.446131,0.47402 -0.446131,1.25474 0,0.78073 0.446131,1.26869 z"
       style="font-style:normal;font-variant:normal;font-weight:bold;font-stretch:normal;font-size:13.94157696px;line-height:1.25;font-family:'TT Hoves';-inkscape-font-specification:'TT Hoves Bold';letter-spacing:-0.18124057px;word-spacing:0px;fill:#e9ebec;fill-opacity:1;stroke:none;stroke-width:0.34853938"
       id="path1165"
       inkscape:connector-curvature="0" />
    <path
       sodipodi:nodetypes="cscscscscscscscscscscscscccccccc"
       inkscape:connector-curvature="0"
       id="path1167"
       d="m 84.531589,114.39164 c 0,0 1.234,1.0076 1.2194,1.3589 -0.026,0.6278 -1.0612,1.3455 -1.0612,1.3455 0,0 1.0228,1.0062 0.9985,1.3031 -0.036,0.4463 -1.1499,0.9779 -1.1499,0.9779 0,0 0.9231,0.8986 0.9075,1.2438 -0.016,0.3472 -1.2563,1.1625 -1.2563,1.1625 0,0 1.1725,0.7977 1.2015,1.1334 0.02,0.2355 -1.1456,1.0562 -1.1456,1.0562 0,0 1.1275,0.8474 1.1422,1.0807 0.032,0.5151 -1.1993,1.07 -1.1993,1.07 0,0 1.2846,0.6865 1.309,0.9319 0.035,0.354 -0.7763,1.4589 -0.7763,1.4589 0,0 1.2511,-0.021 1.4054,0.174 0.2508,0.3173 -0.2275,1.9944 -0.2275,1.9944 0,0 1.0784,-1.0381 1.4724,-0.9637 0.309,0.058 0.761,1.5247 0.761,1.5247 0,0 0.467,-1.5757 0.7782,-1.7121 0.1917,-0.084 1.4189,0.9102 1.4189,0.9102 0,0 0.072,-1.5223 0.2944,-1.6732 0.2129,-0.1442 1.6197,0.1607 1.6197,0.1607 0,0 -0.065,-1.0913 0.107,-1.2315 0.2133,-0.1736 1.1913,0.067 1.1913,0.067 0,0 -0.057,-1.2482 0.1874,-1.4188 0.2118,-0.1481 1.1377,0.2811 1.1377,0.2811 l -2.4896,3.44 -4.5777,2.0479 -3.2392,-0.8165 -1.3251,-2.0345 0.281,-12.7025 0.589,-1.1779 z"
       style="fill:#34a13c;fill-opacity:1;stroke:none;stroke-width:0.14991298;stroke-linecap:butt;stroke-linejoin:round;stroke-miterlimit:4;stroke-dasharray:none;stroke-opacity:1" />
    <path
       sodipodi:nodetypes="cccccccccccccccc"
       inkscape:connector-curvature="0"
       id="path1169"
       d="m 78.220889,117.21174 c 0,0 -6.2443,1.3651 -6.3749,1.3215 -0.082,0.025 -1.04,-0.512 -1.2888,-0.5918 -0.2814,-0.2178 -0.8186,0.1428 -0.3957,0.5047 l 0.9003,0.7841 -0.3231,-0.092 c -0.7732,-0.055 -0.4787,0.3743 0.085,0.3639 l 0.01,0.3379 -0.8133,0.4501 c -0.2305,0.1226 -0.2799,0.5766 0.1599,0.5228 l 1.0018,-0.1452 -0.6042,0.2319 c -0.3832,0.2791 0.1669,0.6514 0.5547,0.4539 l 2.4892,-0.8891 3.2813,-0.9426 z"
       style="fill:#699f27;fill-opacity:1;stroke:none;stroke-width:0.10142651;stroke-linecap:butt;stroke-linejoin:miter;stroke-miterlimit:4;stroke-dasharray:none;stroke-opacity:1" />
    <ellipse
       ry="3.4551837"
       rx="16.743593"
       cy="138.11044"
       cx="81.615509"
       id="ellipse1171"
       style="opacity:1;fill:#252c35;fill-opacity:1;stroke:none;stroke-width:0.09328464;stroke-linecap:round;stroke-linejoin:round;stroke-miterlimit:4;stroke-dasharray:none;stroke-dashoffset:0;stroke-opacity:1" />
    <path
       style="fill:#699f27;fill-opacity:1;stroke:none;stroke-width:0.08629426;stroke-linecap:butt;stroke-linejoin:miter;stroke-miterlimit:4;stroke-dasharray:none;stroke-opacity:1"
       d="m 79.907689,134.48814 c 0.06,1.1207 0.2441,3.1992 0.1799,3.3623 -0.099,0.1749 -1.1609,0.8545 -1.7413,1.2817 -0.1469,0.087 -0.2888,0.02 -0.2472,-0.2471 l 0.072,-0.3676 -0.9948,0.3204 c -0.4175,0.088 -0.5121,-0.3472 -0.3202,-0.5071 l 0.6155,-0.507 -0.5311,-0.01 c -0.5227,-0.01 -0.3326,-0.3837 -0.09,-0.4774 l 1.2533,-0.4267 -0.081,-3.0428 1.8256,0.012 z"
       id="path1173"
       inkscape:connector-curvature="0"
       sodipodi:nodetypes="cccccccccccccc" />
    <path
       style="fill:#8cb727;fill-opacity:1;stroke:none;stroke-width:0.28330019;stroke-linecap:butt;stroke-linejoin:round;stroke-miterlimit:4;stroke-dasharray:none;stroke-opacity:1"
       d="M 595.76367 26.138672 C 592.82105 26.051115 589.76787 28.728887 589.25586 30.986328 C 588.14959 35.481698 588.59086 35.393682 588.29492 39.236328 C 585.32119 39.236328 582.74569 39.437552 578.95898 39.380859 C 575.91193 37.283222 571.62679 29.466683 567.43945 36.197266 C 564.26049 30.010179 561.24076 34.928249 561 36.982422 C 560.34652 41.416942 559.53612 45.753823 564.63281 47.3125 C 564.63281 47.311857 564.66992 47.311857 564.66992 47.3125 C 564.66992 47.313143 564.70898 47.314516 564.70898 47.316406 C 566.72309 47.554516 568.82318 47.942882 570.9707 48.417969 C 573.11827 48.893055 575.31207 49.454053 577.51172 50.029297 C 581.91147 51.180163 586.33549 52.391896 590.45703 53.117188 C 592.51842 53.480022 594.50151 53.718193 596.36523 53.771484 C 598.2285 53.824398 599.97015 53.693791 601.55078 53.310547 C 602.34066 53.117791 603.09247 52.865362 603.79883 52.542969 C 604.50488 52.221709 605.16632 51.827532 605.78125 51.355469 C 606.39618 50.883406 606.96343 50.332036 607.48047 49.691406 C 607.99713 49.050776 608.46375 48.32066 608.875 47.492188 C 608.87421 47.480849 608.87421 47.464464 608.875 47.453125 C 608.875 47.438007 608.91211 47.427354 608.91211 47.416016 C 608.91211 47.400898 608.95117 47.388292 608.95117 47.376953 C 608.95117 47.361835 608.98828 47.351182 608.98828 47.339844 C 608.98828 47.324726 609.02539 47.314073 609.02539 47.302734 C 609.02539 47.287616 609.06445 47.27501 609.06445 47.263672 C 609.06445 47.248554 609.10156 47.237901 609.10156 47.226562 C 609.10156 47.22592 609.13867 47.22592 609.13867 47.226562 C 609.13867 47.22592 609.17773 47.22592 609.17773 47.226562 C 609.17773 47.22592 609.21484 47.22592 609.21484 47.226562 L 609.2168 47.226562 C 609.2168 47.22592 609.25391 47.22592 609.25391 47.226562 C 609.25391 47.22592 609.29297 47.22592 609.29297 47.226562 C 609.29297 47.22592 609.33008 47.22592 609.33008 47.226562 C 609.33008 47.22592 609.36719 47.22592 609.36719 47.226562 C 609.36719 47.22592 609.40625 47.22592 609.40625 47.226562 C 609.40625 47.22592 609.44336 47.22592 609.44336 47.226562 C 609.44336 47.22592 609.48047 47.22592 609.48047 47.226562 C 609.48047 47.237901 609.51953 47.248554 609.51953 47.263672 C 609.51953 47.27501 609.55664 47.287616 609.55664 47.302734 C 609.55664 47.314073 609.5957 47.324726 609.5957 47.339844 C 609.5957 47.351182 609.63281 47.361835 609.63281 47.376953 C 609.63281 47.388292 609.66992 47.400898 609.66992 47.416016 C 609.67068 47.427354 609.67068 47.441786 609.66992 47.453125 C 609.67068 47.464464 609.67068 47.480849 609.66992 47.492188 C 609.67068 47.503526 609.67068 47.517958 609.66992 47.529297 C 609.67068 47.540635 609.67068 47.555068 609.66992 47.566406 C 609.67068 47.577745 609.67068 47.59413 609.66992 47.605469 C 609.66992 47.616807 609.66922 47.63124 609.66797 47.642578 C 609.66721 47.653917 609.66584 47.668349 609.66406 47.679688 C 609.66482 47.691026 609.66482 47.707411 609.66406 47.71875 C 609.66482 47.730089 609.66482 47.744521 609.66406 47.755859 C 609.66482 47.767198 609.66482 47.78163 609.66406 47.792969 C 609.22979 48.667173 608.73377 49.441661 608.17969 50.125 C 607.62523 50.808339 607.0138 51.400613 606.35352 51.908203 C 605.69285 52.416172 604.98215 52.840161 604.22852 53.1875 C 603.47526 53.535217 602.68029 53.805608 601.84766 54.007812 C 600.18277 54.4126 598.37451 54.551716 596.46094 54.498047 C 594.54736 54.445133 592.52928 54.195558 590.44336 53.830078 C 586.27114 53.096094 581.82339 51.88102 577.42969 50.732422 C 575.23303 50.158312 573.04893 49.599016 570.91992 49.126953 C 568.82153 48.661315 566.77943 48.284734 564.82617 48.050781 C 564.90932 51.350309 565.97685 53.656795 568.14062 54.873047 L 578.22266 57.921875 C 578.4357 57.978763 578.63304 58.017917 578.84375 58.072266 L 579.75 58.345703 L 578.375 64.726562 L 578.37695 64.726562 L 577.37891 69.365234 L 577.26953 69.886719 C 576.85416 72.74442 576.60444 73.714757 575.85156 78.919922 C 575.74574 79.661465 575.85078 79.214905 575.71094 80.207031 C 575.65047 80.985236 575.61252 82.142504 575.58984 83.083984 C 575.54071 84.84411 575.46913 86.539489 575.48047 88.462891 L 575.47852 88.462891 C 575.47852 89.790639 575.34943 90.776978 575.40234 92.175781 L 575.40039 92.175781 C 575.44197 93.240474 575.40072 94.224564 575.49219 95.318359 C 575.57156 96.474139 575.52983 97.535631 575.66211 98.714844 L 575.66602 98.714844 C 575.91546 100.89639 576.25047 103.10286 576.73047 105.28516 L 576.72852 105.28516 C 576.99686 106.49725 577.16073 107.72805 577.51562 108.91406 L 577.51758 108.91406 C 578.40463 111.88175 579.54143 114.75723 581.0918 117.36133 C 581.89986 118.71931 582.7495 120.05113 583.77148 121.25 C 584.40078 121.98852 585.03069 122.73872 585.74805 123.4043 C 588.35365 125.82055 591.53785 127.74165 595.46289 128.90234 C 601.56758 130.80042 607.64635 132.60893 613.92188 132.5957 C 635.66474 132.55035 643.08883 127.74738 650.03711 122.9043 C 661.55976 114.40981 668.3559 95.330309 665.6543 94.21875 C 659.73064 91.790026 627.01039 141.26731 619.29297 98.513672 C 616.35325 77.908066 627.46477 41.720185 615.05469 29.580078 C 612.88826 27.889117 608.92161 26.858614 606.85156 31.833984 C 605.77478 35.875811 605.67031 32.050764 602.74609 31.957031 C 602.17047 31.904118 601.71526 33.431467 601.22656 31.177734 C 600.46574 28.886963 598.57225 26.549448 596.48633 26.160156 L 596.34961 26.193359 C 596.1552 26.161989 595.95985 26.144509 595.76367 26.138672 z "
       transform="matrix(0.26458333,0,0,0.26458333,-79.564499,100.54385)"
       id="path970" />
    <path
       id="path1177"
       d="m 73.428202,115.8609 0.3995,0.1204 -0.3638,1.6883 h 5.3e-4 l -0.2641,1.2273 -0.029,0.1379 c -0.1099,0.7561 -0.176,1.0129 -0.3752,2.3901 v 0 c -0.028,0.1962 0,0.078 -0.037,0.3405 -0.016,0.2059 -0.026,0.5121 -0.032,0.7612 -0.013,0.4657 -0.032,0.9143 -0.029,1.4232 h -5.3e-4 c 0,0.3513 -0.034,0.6123 -0.02,0.9824 h -5.3e-4 c 0.011,0.2817 -2e-4,0.542 0.024,0.8314 0.021,0.3058 0.01,0.5867 0.045,0.8987 h 0.001 c 0.066,0.5772 0.1546,1.161 0.2816,1.7384 h -5.3e-4 c 0.071,0.3207 0.1144,0.6463 0.2083,0.9601 h 5.3e-4 c 0.2347,0.7852 0.5355,1.546 0.9457,2.235 0.2138,0.3593 0.4386,0.7117 0.709,1.0289 0.1665,0.1954 0.333267,0.39397 0.523067,0.57007 0.3402,0.1345 0.701733,0.25046 1.060833,0.27776 0.3726,0.028 0.759355,-0.0246 1.115855,-0.14331 0.1783,-0.06 0.3521,-0.14984 0.5194,-0.25264 0.1673,-0.1027 0.326938,-0.22693 0.478538,-0.37673 0.2749,-0.2715 0.505607,-0.63285 0.707207,-1.07975 0.1622,-0.3597 0.3046,-0.7615 0.4036,-1.2495 0.02,-0.098 0.045,-0.1851 0.062,-0.2884 l 0.025,-0.1581 c 0.019,-0.2173 0.028,-0.4024 0.042,-0.6046 h 5.3e-4 c 0.033,-0.4771 0.066,-0.9514 0.1002,-1.4263 0.023,-0.3276 0.049,-0.6664 0.069,-0.9844 0.029,-0.4727 0.081,-1.0041 0.1028,-1.463 h -5.3e-4 c 0.024,-0.5044 0.03,-1.0005 0.041,-1.4955 0.011,-0.4885 0.04,-0.9871 0.04,-1.4759 0,-0.4272 -0.01,-0.8658 -0.021,-1.3001 h 5.3e-4 c -0.023,-0.73 -0.051,-1.4624 -0.11,-2.2361 -0.037,-0.4862 -0.09,-1.0025 -0.1437,-1.5172 -0.033,-0.314 -0.047,-0.7259 -0.1,-1.1994 -0.5355,0.068 -1.0512,0.12 -1.5612,0.1498 -0.5099,0.03 -1.0149,0.037 -1.5296,0.015 -0.5147,-0.022 -1.0388,-0.072 -1.5885,-0.1591 -0.5372,-0.085 -1.101,-0.2069 -1.7002,-0.3669 z"
       style="fill:#c4ca54;fill-opacity:1;stroke:none;stroke-width:0.07495651;stroke-linecap:butt;stroke-linejoin:round;stroke-miterlimit:4;stroke-dasharray:none;stroke-opacity:1"
       inkscape:connector-curvature="0"
       sodipodi:nodetypes="ccccccccccccccccccccccccccsccccccccccccscccccccccc" />
    <path
       id="path1179"
       d="m 78.594094,132.71054 c 0.2749,-0.2715 0.5173,-0.627 0.7189,-1.0739 l -5.1139,-0.024 c 0.2138,0.3593 0.4386,0.7117 0.709,1.0289 z"
       style="fill:#eee9a6;fill-opacity:1;stroke:none;stroke-width:0.07495651;stroke-linecap:butt;stroke-linejoin:round;stroke-miterlimit:4;stroke-dasharray:none;stroke-opacity:1"
       inkscape:connector-curvature="0" />
    <path
       id="path1183"
       d="m 79.705047,130.38714 h 5.3e-4 c 0.02,-0.098 0.045,-0.1851 0.062,-0.2884 l 0.025,-0.1581 c 0.019,-0.2173 0.028,-0.4024 0.042,-0.6046 l -6.8012,-0.9188 c 0.071,0.3207 0.1145,0.6463 0.20831,0.9601 z"
       style="fill:#eee9a6;fill-opacity:1;stroke:none;stroke-width:0.07495651;stroke-linecap:butt;stroke-linejoin:round;stroke-miterlimit:4;stroke-dasharray:none;stroke-opacity:1"
       inkscape:connector-curvature="0" />
    <path
       id="path1187"
       d="m 79.931315,127.90974 h 5.3e-4 c 0.023,-0.3276 0.049,-0.6664 0.069,-0.9844 l -7.2978,-1.1452 c 0.021,0.3058 0.01,0.5867 0.045,0.8987 z"
       style="fill:#eee9a6;fill-opacity:1;stroke:none;stroke-width:0.07495651;stroke-linecap:butt;stroke-linejoin:round;stroke-miterlimit:4;stroke-dasharray:none;stroke-opacity:1"
       inkscape:connector-curvature="0" />
    <path
       id="path1191"
       d="m 80.102236,125.46234 c 0.024,-0.5044 0.03,-1.0005 0.041,-1.4955 l -7.445,-5e-4 c 0,0.3513 -0.034,0.6123 -0.02,0.9824 z"
       style="fill:#eee9a6;fill-opacity:1;stroke:none;stroke-width:0.07495651;stroke-linecap:butt;stroke-linejoin:round;stroke-miterlimit:4;stroke-dasharray:none;stroke-opacity:1"
       inkscape:connector-curvature="0" />
    <path
       id="path1195"
       d="m 80.142589,122.49094 h 5.3e-4 c 0,-0.4272 -0.01,-0.8658 -0.021,-1.3001 l -7.3654,0.2506 c -0.028,0.1962 0,0.084 -0.038,0.3468 -0.013,0.2132 -0.025,0.5058 -0.031,0.7549 z"
       style="fill:#eee9a6;fill-opacity:1;stroke:none;stroke-width:0.07495651;stroke-linecap:butt;stroke-linejoin:round;stroke-miterlimit:4;stroke-dasharray:none;stroke-opacity:1"
       inkscape:connector-curvature="0"
       sodipodi:nodetypes="ccccccc" />
    <path
       id="path1199"
       d="m 80.040828,118.95474 c -0.037,-0.4862 -0.09,-1.0025 -0.1437,-1.5172 l -6.443,0.2486 -0.2641,1.2273 z"
       style="fill:#eee9a6;fill-opacity:1;stroke:none;stroke-width:0.07495651;stroke-linecap:butt;stroke-linejoin:round;stroke-miterlimit:4;stroke-dasharray:none;stroke-opacity:1"
       inkscape:connector-curvature="0" />
    <ellipse
       transform="scale(-1,1)"
       ry="1.571138"
       rx="1.1546919"
       cy="110.18364"
       cx="-82.233673"
       id="ellipse1205"
       style="opacity:1;fill:#ffffff;fill-opacity:1;stroke:none;stroke-width:1.16194797;stroke-linecap:round;stroke-linejoin:round;stroke-miterlimit:4;stroke-dasharray:none;stroke-dashoffset:0;stroke-opacity:1" />
    <ellipse
       transform="matrix(-0.99457806,0.10399266,0.10399266,0.99457806,0,0)"
       style="opacity:1;fill:#000000;fill-opacity:1;stroke:none;stroke-width:0.58277237;stroke-linecap:round;stroke-linejoin:round;stroke-miterlimit:4;stroke-dasharray:none;stroke-dashoffset:0;stroke-opacity:1"
       id="ellipse1207"
       cx="-70.070389"
       cy="118.22251"
       rx="0.57913309"
       ry="0.7880007" />
    <ellipse
       transform="scale(-1,1)"
       style="opacity:1;fill:#ffffff;fill-opacity:1;stroke:none;stroke-width:1.16194797;stroke-linecap:round;stroke-linejoin:round;stroke-miterlimit:4;stroke-dasharray:none;stroke-dashoffset:0;stroke-opacity:1"
       id="ellipse1209"
       cx="-77.930084"
       cy="109.71843"
       rx="1.1546919"
       ry="1.571138" />
    <ellipse
       transform="matrix(-0.99790194,0.06474351,0.06474351,0.99790194,0,0)"
       ry="0.7880007"
       rx="0.57913309"
       cy="114.69286"
       cx="-70.433502"
       id="ellipse1211"
       style="opacity:1;fill:#000000;fill-opacity:1;stroke:none;stroke-width:0.58277237;stroke-linecap:round;stroke-linejoin:round;stroke-miterlimit:4;stroke-dasharray:none;stroke-dashoffset:0;stroke-opacity:1" />
    <path
       style="font-style:normal;font-variant:normal;font-weight:bold;font-stretch:normal;font-size:13.79998207px;line-height:1.25;font-family:'TT Hoves';-inkscape-font-specification:'TT Hoves Bold';letter-spacing:0px;word-spacing:0px;fill:#e9ebec;fill-opacity:1;stroke:none;stroke-width:0.37701234"
       d="m 71.337989,116.76974 c -0.9197,0.4271 -1.4151,0.9158 -1.7482,1.5637 -0.3401,0.6619 -0.3689,1.3043 -0.087,1.927 0.2697,0.5953 0.6647,0.979 1.1845,1.1519 0.5248,0.1596 1.2197,0.1095 2.0846,-0.1499 l 1.0924,-0.3292 c 0.3321,-0.095 0.5805,-0.1196 0.7452,-0.073 0.1647,0.047 0.2952,0.1754 0.3902,0.386 0.087,0.1923 0.065,0.4008 -0.065,0.6253 -0.1251,0.2112 -0.3664,0.3978 -0.7235,0.5597 -0.4762,0.2157 -0.8771,0.232 -1.2031,0.048 -0.132,-0.073 -0.2449,-0.1872 -0.3379,-0.3436 -0.1877,-0.3177 -2.1331,0.6534 -1.9508,0.9436 0.2108,0.3755 0.4617,0.6435 0.8868,0.9462 0.8931,0.5335 1.9899,0.5054 3.2902,-0.084 0.9799,-0.444 1.6447,-0.999 1.9942,-1.665 0.3491,-0.6661 0.3824,-1.3105 0.1003,-1.9333 -0.5725,-1.2637 -1.6825,-1.6433 -3.3306,-1.1394 l -1.0929,0.3292 c -0.5867,0.1665 -0.9442,0.1082 -1.0729,-0.1757 -0.083,-0.1832 -0.062,-0.3694 0.062,-0.5582 0.1201,-0.1978 0.3495,-0.3735 0.6883,-0.527 0.3938,-0.1785 0.7434,-0.2103 1.0496,-0.095 0.1197,0.045 0.2291,0.1172 0.3291,0.2155 0.066,0.1048 1.2005,-0.6512 1.1545,-0.8362 l -0.268,-0.214 -0.6477,0.3458 -0.2268,-0.6422 -0.4822,0.5595 -0.4395,-0.5978 -0.6566,0.6805 z"
       id="path1213"
       inkscape:connector-curvature="0"
       sodipodi:nodetypes="cccccccccccccccccccccccccccccccc" />
    <path
       style="fill:#8cb727;fill-opacity:1;stroke:none;stroke-width:0.12430493;stroke-linecap:butt;stroke-linejoin:miter;stroke-miterlimit:4;stroke-dasharray:none;stroke-opacity:1"
       d="m 84.092689,118.11674 c 0,0 -7.3026,2.8348 -7.4689,2.8068 -0.094,0.046 -1.3563,-0.4232 -1.6727,-0.4726 -0.3818,-0.2105 -0.9642,0.3279 -0.3835,0.6859 l 1.2386,0.7791 -1.8589,0.092 c -0.9467,0.08 -0.5192,0.9227 0.1619,0.8033 l 1.5315,-0.1133 -0.8995,0.699 c -0.2966,0.1802 -0.3254,0.8023 0.2924,0.6028 l 1.1857,-0.3655 -0.7614,0.6594 c -0.4112,0.4106 0.3452,0.7044 0.7771,0.3919 l 2.8999,-1.7593 3.7948,-1.7625 z"
       id="path1215"
       inkscape:connector-curvature="0"
       sodipodi:nodetypes="cccccccccccccccc" />
    <ellipse
       ry="0.35620543"
       rx="0.24716294"
       cy="110.23129"
       cx="71.488678"
       id="ellipse1217"
       style="opacity:1;fill:#000000;fill-opacity:1;stroke:none;stroke-width:0.08000798;stroke-linecap:round;stroke-linejoin:round;stroke-miterlimit:4;stroke-dasharray:none;stroke-dashoffset:0;stroke-opacity:1" />
    <path
       sodipodi:nodetypes="cssccsccsccssccsscccccccccccccccc"
       inkscape:connector-curvature="0"
       id="path1219"
       d="m 81.377989,113.64384 c 0.06,0.081 0.1245,0.1534 0.1598,0.2039 0.5795,0.8298 -0.264,0.7545 -0.52,0.4205 -0.037,-0.049 -0.1029,-0.1442 -0.1213,-0.1909 l -0.081,0.022 c 0.4084,2.0565 -0.706,1.4751 -0.8885,0.9213 -0.038,-0.1135 -0.1527,-0.5442 -0.1672,-0.6319 l -0.4382,0.2537 c 0.1434,1.533 -0.6438,1.1744 -0.8028,0.4181 -0.02,-0.092 -0.023,-0.2506 -0.02,-0.3503 l -1.0222,-0.043 c 0.011,0.2021 0.038,0.509 0.01,0.6492 -0.1261,0.6279 -0.6761,0.4733 -0.7205,-0.034 -0.012,-0.1298 -0.058,-0.5143 -0.043,-0.6685 l -1.0246,-0.2352 c -0.028,0.2045 -0.085,0.4708 -0.124,0.6094 -0.1317,0.4639 -0.606,0.4229 -0.6545,-0.06 -0.017,-0.1727 0.035,-0.474 0.079,-0.6898 l -1.0211,-0.2492 -0.032,0.371 c -0.068,0.7502 -0.8512,0.6626 -0.7714,0.01 l 0.037,-0.5992 -0.9009,-0.189 -0.1787,0.5003 c -0.1175,0.3378 -0.679,0.6172 -0.6399,-0.2021 l 0.045,-0.5379 -0.3441,-0.071 -0.1377,0.491 c -0.1716,0.5945 -0.7785,0.7066 -0.7999,-0.1811 l 0.049,-0.5673 0.1915,-0.5547 10.2172,-0.2191 z"
       style="fill:#ffffff;stroke:none;stroke-width:0.03768452;stroke-linecap:butt;stroke-linejoin:miter;stroke-miterlimit:4;stroke-dasharray:none;stroke-opacity:1" />
    <path
       sodipodi:nodetypes="ccccc"
       inkscape:connector-curvature="0"
       id="path1221"
       d="m 69.882589,113.01384 c 5.236,1.3676 10.3263,3.1128 11.7098,0.2839 l -0.451,-1.6871 -10.4904,0.5679 z"
       style="fill:#8cb727;fill-opacity:1;stroke:none;stroke-width:0.26458332px;stroke-linecap:butt;stroke-linejoin:miter;stroke-opacity:1" />
    <path
       sodipodi:nodetypes="ccccc"
       inkscape:connector-curvature="0"
       id="path1223"
       d="m 79.798689,114.68794 c 0.122,-0.3962 0.1755,-0.7093 0.2093,-0.9912 0.1279,-1.2462 -0.9757,-0.9313 -1.1325,-0.1292 -0.2048,0.7396 -0.436,1.352 -0.4131,1.2827 0.5055,-0.074 0.9253,0.1133 1.3363,-0.1623 z"
       style="fill:#ed1b24;fill-opacity:1;stroke:none;stroke-width:0.14024776px;stroke-linecap:butt;stroke-linejoin:miter;stroke-opacity:1" />
    <path
       style="fill:#000000;fill-opacity:1;stroke:none;stroke-width:0.07495651;stroke-linecap:butt;stroke-linejoin:round;stroke-miterlimit:4;stroke-dasharray:none;stroke-opacity:1"
       d="m 69.844989,113.26554 c 0.5168,0.062 1.0571,0.1616 1.6123,0.2848 0.5633,0.1249 1.1412,0.2728 1.7224,0.4247 1.1625,0.3039 2.3393,0.6254 3.4432,0.8196 0.5519,0.097 1.0859,0.1626 1.5922,0.1767 0.5063,0.014 0.9847,-0.023 1.4252,-0.1297 0.2203,-0.053 0.4306,-0.1251 0.6299,-0.217 0.1994,-0.092 0.3875,-0.2041 0.5623,-0.3385 0.1747,-0.1343 0.3365,-0.291 0.4832,-0.4718 0.1466,-0.1808 0.2778,-0.3857 0.3927,-0.617 a 0.10001,0.10001 0 0 0 0,-0.01 0.10001,0.10001 0 0 0 0,-0.01 0.10001,0.10001 0 0 0 0,-0.01 0.10001,0.10001 0 0 0 0,-0.01 0.10001,0.10001 0 0 0 5.3e-4,-0.01 0.10001,0.10001 0 0 0 0,-0.01 0.10001,0.10001 0 0 0 0,-0.01 0.10001,0.10001 0 0 0 0,-0.01 0.10001,0.10001 0 0 0 0,-0.01 0.10001,0.10001 0 0 0 0,-0.01 0.10001,0.10001 0 0 0 -0.01,-0.01 0.10001,0.10001 0 0 0 -0.01,-0.01 0.10001,0.10001 0 0 0 -0.01,-0.01 0.10001,0.10001 0 0 0 -0.01,-0.01 0.10001,0.10001 0 0 0 -0.01,-0.01 0.10001,0.10001 0 0 0 -0.01,0 0.10001,0.10001 0 0 0 -0.01,0 0.10001,0.10001 0 0 0 -0.01,0 0.10001,0.10001 0 0 0 -0.01,0 0.10001,0.10001 0 0 0 -0.01,-0.001 0.10001,0.10001 0 0 0 -0.01,0 0.10001,0.10001 0 0 0 -0.01,0.001 h -5.3e-4 a 0.10001,0.10001 0 0 0 -0.01,0 0.10001,0.10001 0 0 0 -0.01,0 0.10001,0.10001 0 0 0 -0.01,0 0.10001,0.10001 0 0 0 -0.01,0.01 0.10001,0.10001 0 0 0 -0.01,0.01 0.10001,0.10001 0 0 0 -0.01,0.01 0.10001,0.10001 0 0 0 -0.01,0.01 0.10001,0.10001 0 0 0 -0.01,0.01 0.10001,0.10001 0 0 0 -0.01,0.01 0.10001,0.10001 0 0 0 0,0.01 c -0.10881,0.2192 -0.2322,0.4124 -0.3689,0.5819 -0.1368,0.1695 -0.28691,0.3154 -0.44961,0.4403 -0.1627,0.1249 -0.33769,0.2289 -0.52449,0.3142 -0.1869,0.085 -0.3858,0.1523 -0.5948,0.2031 -0.4182,0.1016 -0.87901,0.1366 -1.372,0.1224 -0.4931,-0.014 -1.01791,-0.078 -1.5633,-0.1736 -1.09051,-0.1919 -2.261,-0.5125 -3.4251,-0.817 -0.58201,-0.1522 -1.1624,-0.3006 -1.7306,-0.4263 -0.56821,-0.1257 -1.1239,-0.2287 -1.6568,-0.2915 a 0.10029478,0.10029478 0 0 0 -0.01,-0.001 0.10029478,0.10029478 0 0 0 -0.01,0 c 0,6.1e-4 0,0 0,0 0,0.073 0.011,0.1319 0.012,0.2015 z"
       id="path1225"
       inkscape:connector-curvature="0" />
    <path
       style="fill:#8cb727;fill-opacity:1;stroke:none;stroke-width:0.08629426;stroke-linecap:butt;stroke-linejoin:miter;stroke-miterlimit:4;stroke-dasharray:none;stroke-opacity:1"
       d="m 84.779389,134.92324 c 0.038,1.1972 0.1606,3.3532 0,3.5915 -0.2541,0.311 -1.28,0.8313 -1.9814,1.2819 -0.4742,0.2705 -0.5203,-0.068 -0.4256,-0.2657 l 0.1189,-0.2408 -0.9215,0.1124 c -0.3035,0.062 -0.7165,-0.1329 -0.3272,-0.4854 l 0.606,-0.4886 h -0.721 c -0.328,0 -0.4043,-0.3755 -0.028,-0.4998 l 1.4922,-0.3346 0.045,-5.1945 1.8636,1.2869 z"
       id="path1227"
       inkscape:connector-curvature="0"
       sodipodi:nodetypes="cccccccccccccc" />
    <path
       style="fill:#e9ebec;fill-opacity:1;stroke:none;stroke-width:0.3250356px;stroke-linecap:butt;stroke-linejoin:miter;stroke-opacity:1"
       d="m 72.106989,136.23174 -0.7798,0.5541 c 0.5198,-0.019 1.1678,-0.1924 1.5308,0.041 l 0.7676,-0.4925 c -0.3691,-0.1759 -0.8595,-0.2264 -1.5186,-0.1026 z"
       id="path1231"
       inkscape:connector-curvature="0"
       sodipodi:nodetypes="ccccc" />
    <path
       style="fill:#e9ebec;fill-opacity:1;stroke:none;stroke-width:0.39992461px;stroke-linecap:butt;stroke-linejoin:miter;stroke-opacity:1"
       d="m 73.558189,136.99584 1.1099,0.1183 -0.2517,-0.3228 0.2273,-0.4644 c -0.3664,0.2186 -0.7746,0.3983 -1.0855,0.6689 z"
       id="path1233"
       inkscape:connector-curvature="0"
       sodipodi:nodetypes="ccccc" />
    <path
       style="fill:#e9ebec;fill-opacity:1;stroke:none;stroke-width:0.3606863px;stroke-linecap:butt;stroke-linejoin:miter;stroke-opacity:1"
       d="m 73.076189,137.76724 0.3581,0.6036 c 0.1068,-0.1126 0.2551,-0.3179 0.359,-0.4324 0.1035,-0.1135 0.1441,-0.1765 0.1884,-0.3332 -0.185,-0.029 -0.38,0.01 -0.9055,0.1623 z"
       id="path1235"
       inkscape:connector-curvature="0"
       sodipodi:nodetypes="ccsccc" />
    <path
       inkscape:connector-curvature="0"
       id="path1237"
       d="m 71.351689,137.59454 0.3426,0.1674 0.4726,0.1644 0.6579,-0.4414 c 0.2388,-0.4418 -0.9769,-0.1822 -1.4737,0.1095 z"
       style="fill:#e9ebec;fill-opacity:1;stroke:none;stroke-width:0.48934653px;stroke-linecap:butt;stroke-linejoin:miter;stroke-opacity:1"
       sodipodi:nodetypes="cccccc" />
    <path
       style="fill:#8cb727;fill-opacity:1;stroke:none;stroke-width:0.26458332px;stroke-linecap:butt;stroke-linejoin:miter;stroke-opacity:1"
       d="m 76.461789,109.55489 c 0.8248,-0.1569 2.054,-0.071 2.8853,0.3106 l -0.3812,-1.539 -0.874,-0.6969 -1.1221,0.3898 z"
       id="path1239"
       inkscape:connector-curvature="0"
       sodipodi:nodetypes="cccccc" />
    <path
       style="fill:#8cb727;fill-opacity:1;stroke:none;stroke-width:0.26458332px;stroke-linecap:butt;stroke-linejoin:miter;stroke-opacity:1"
       d="m 81.280989,109.19869 -0.2785,0.7441 c 0.9611,-0.12 1.8257,-0.041 2.7509,0.4512 l -0.5352,-1.3607 -0.7324,-0.5197 -0.8268,0.071 z"
       id="path1241"
       inkscape:connector-curvature="0"
       sodipodi:nodetypes="ccccccc" />
    <path
       style="fill:#77b52a;fill-opacity:1;stroke:none;stroke-width:0.00264583;stroke-linecap:butt;stroke-linejoin:miter;stroke-miterlimit:4;stroke-dasharray:none;stroke-opacity:1"
       d="m 69.344289,119.03474 c 0.4443,0.032 0.5207,0.4022 0.3186,0.602 -0.1,0.052 -0.2145,0.067 -0.3312,0.068 -0.2933,-0.01 -0.2226,-0.6637 0.013,-0.6697 z"
       id="path1243"
       inkscape:connector-curvature="0"
       sodipodi:nodetypes="cccc" />
    <path
       sodipodi:nodetypes="cccc"
       inkscape:connector-curvature="0"
       id="path1245"
       d="m 69.359089,119.96824 c 0.2424,-0.3353 0.709,-0.1007 0.6126,0.2301 -0.071,0.1647 -0.1408,0.189 -0.3842,0.2414 -0.2151,0.025 -0.3234,-0.3466 -0.2284,-0.4715 z"
       style="fill:#77b52a;fill-opacity:1;stroke:none;stroke-width:0.00264583;stroke-linecap:butt;stroke-linejoin:miter;stroke-miterlimit:4;stroke-dasharray:none;stroke-opacity:1" />
    <path
       style="fill:#77b52a;fill-opacity:1;stroke:none;stroke-width:0.00216001;stroke-linecap:butt;stroke-linejoin:miter;stroke-miterlimit:4;stroke-dasharray:none;stroke-opacity:1"
       d="m 69.672989,120.60224 c 0.2265,-0.212 0.5766,-0.1453 0.5656,0.1956 -0.01,0.1003 -0.076,0.1695 -0.166,0.2499 -0.1255,0.1102 -0.5705,-0.2546 -0.3996,-0.4455 z"
       id="path1247"
       inkscape:connector-curvature="0"
       sodipodi:nodetypes="cccc"
       inkscape:transform-center-x="0.036153713"
       inkscape:transform-center-y="0.0374367" />
    <ellipse
       style="opacity:1;fill:#000000;fill-opacity:1;stroke:none;stroke-width:0.07054523;stroke-linecap:round;stroke-linejoin:round;stroke-miterlimit:4;stroke-dasharray:none;stroke-dashoffset:0;stroke-opacity:1"
       id="ellipse1249"
       cx="69.630402"
       cy="110.114"
       rx="0.21793035"
       ry="0.31407607" />
    <path
       d="m -20.363106,141.29099 h 2.160945 q 0.05577,0.20912 0.237007,0.39036 0.376422,0.37642 1.087443,0.37642 0.669195,0 1.031676,-0.34854 0.362481,-0.34854 0.362481,-0.97591 v -0.83649 h -0.06971 q -0.195182,0.22306 -0.418247,0.34854 -0.52978,0.34854 -1.254742,0.34854 -1.435982,0 -2.356126,-0.94803 -0.920144,-0.96197 -0.920144,-2.46766 0,-1.50569 0.920144,-2.45372 0.920144,-0.96196 2.356126,-0.96196 0.79467,0 1.380216,0.41824 0.237007,0.18124 0.432189,0.41825 h 0.06971 l 0.139416,-0.69708 h 1.812405 v 6.83137 q 0,1.49175 -0.892261,2.31431 -0.892261,0.82255 -2.593133,0.82255 -2.077295,0 -2.969556,-1.28263 -0.418248,-0.58554 -0.515839,-1.29656 z m 2.370068,-3.06715 q 0.418248,0.41825 1.045619,0.41825 0.627371,0 1.045618,-0.41825 0.418247,-0.41825 0.418247,-1.04562 0,-0.62737 -0.418247,-1.04562 -0.418247,-0.41824 -1.045618,-0.41824 -0.627371,0 -1.045619,0.41824 -0.418247,0.41825 -0.418247,1.04562 0,0.62737 0.418247,1.04562 z"
       style="font-style:normal;font-variant:normal;font-weight:bold;font-stretch:normal;font-size:13.94157696px;line-height:1.25;font-family:'TT Hoves';-inkscape-font-specification:'TT Hoves Bold';letter-spacing:-0.18124057px;word-spacing:0px;fill:#e9ebec;fill-opacity:1;stroke:none;stroke-width:0.34853938"
       id="path1251"
       inkscape:connector-curvature="0" />
    <path
       d="m -7.2301472,138.85121 h 2.0912366 q -0.2509484,0.65526 -0.7110205,1.15715 -1.087443,1.14321 -2.7046659,1.14321 -1.617223,0 -2.662841,-1.03168 -1.031677,-1.04561 -1.031677,-2.66284 0,-1.61722 1.031677,-2.6489 1.045618,-1.04561 2.662841,-1.04561 1.5614566,0 2.5931333,1.01773 1.0316767,1.01774 1.0316767,2.53737 0,0.19518 -0.041825,0.52978 l -0.027883,0.1673 h -5.158383 q 0.05577,0.64131 0.4879547,1.05956 0.4461305,0.4043 1.1153262,0.4043 0.5576631,0 1.0037935,-0.30671 0.2230653,-0.1673 0.3206564,-0.32066 z m -2.9277308,-2.09124 h 3.2065624 q -0.3067147,-1.39415 -1.6032814,-1.39415 -1.2965667,0 -1.603281,1.39415 z"
       style="font-style:normal;font-variant:normal;font-weight:bold;font-stretch:normal;font-size:13.94157696px;line-height:1.25;font-family:'TT Hoves';-inkscape-font-specification:'TT Hoves Bold';letter-spacing:-0.18124057px;word-spacing:0px;fill:#e9ebec;fill-opacity:1;stroke:none;stroke-width:0.34853938"
       id="path1253"
       inkscape:connector-curvature="0" />
    <path
       d="m -3.3683469,139.06033 v -3.20656 H -4.483673 v -1.95182 h 1.1153261 v -2.23065 h 2.0912366 v 2.23065 h 1.60328134 v 1.95182 H -1.2771103 v 2.71861 q 0,0.48795 0.48795518,0.48795 h 1.11532616 v 1.95183 H -1.3468182 q -2.0215287,0 -2.0215287,-1.95183 z"
       style="font-style:normal;font-variant:normal;font-weight:bold;font-stretch:normal;font-size:13.94157696px;line-height:1.25;font-family:'TT Hoves';-inkscape-font-specification:'TT Hoves Bold';letter-spacing:-0.18124057px;word-spacing:0px;fill:#e9ebec;fill-opacity:1;stroke:none;stroke-width:0.34853938"
       id="path1255"
       inkscape:connector-curvature="0" />
    <path
       d="m 9.9318878,138.85121 h 2.0912362 q -0.250948,0.65526 -0.71102,1.15715 -1.087443,1.14321 -2.704666,1.14321 -1.6172229,0 -2.6628412,-1.03168 -1.0316767,-1.04561 -1.0316767,-2.66284 0,-1.61722 1.0316767,-2.6489 1.0456183,-1.04561 2.6628412,-1.04561 1.561457,0 2.593133,1.01773 1.031677,1.01774 1.031677,2.53737 0,0.19518 -0.04183,0.52978 l -0.02788,0.1673 H 7.0041566 q 0.055766,0.64131 0.4879552,1.05956 0.4461305,0.4043 1.1153262,0.4043 0.5576631,0 1.0037935,-0.30671 0.2230653,-0.1673 0.3206563,-0.32066 z m -2.9277312,-2.09124 h 3.2065624 q -0.3067144,-1.39415 -1.603281,-1.39415 -1.2965667,0 -1.6032814,1.39415 z"
       style="font-style:normal;font-variant:normal;font-weight:bold;font-stretch:normal;font-size:13.94157696px;line-height:1.25;font-family:'TT Hoves';-inkscape-font-specification:'TT Hoves Bold';letter-spacing:-0.18124057px;word-spacing:0px;fill:#e9ebec;fill-opacity:1;stroke:none;stroke-width:0.34853938"
       id="path1257"
       inkscape:connector-curvature="0" />
    <path
       d="m 17.836753,141.01216 -0.139416,-0.62738 h -0.06971 q -0.167299,0.19519 -0.474013,0.39037 -0.571605,0.37642 -1.477807,0.37642 -1.226859,0 -1.93788,-0.62737 -0.71102,-0.62737 -0.71102,-1.60328 0,-1.03168 0.752845,-1.65905 0.752845,-0.64131 2.174886,-0.64131 h 1.603281 v -0.13942 q 0,-0.47401 -0.292773,-0.75284 -0.292773,-0.29278 -0.822553,-0.29278 -0.543721,0 -0.892261,0.32066 -0.167299,0.1673 -0.223065,0.30672 h -2.021528 q 0.125474,-1.0038 0.934085,-1.64511 0.808612,-0.65525 2.202769,-0.65525 1.519632,0 2.356127,0.7389 0.850436,0.7389 0.850436,1.96576 v 4.54496 z m -0.278832,-2.85803 v -0.13941 h -1.324449 q -0.557663,0 -0.836495,0.20912 -0.278831,0.20912 -0.278831,0.55766 0,0.3346 0.250948,0.55767 0.26489,0.20912 0.724962,0.20912 0.669196,0 1.05956,-0.37642 0.404305,-0.39037 0.404305,-1.01774 z"
       style="font-style:normal;font-variant:normal;font-weight:bold;font-stretch:normal;font-size:13.94157696px;line-height:1.25;font-family:'TT Hoves';-inkscape-font-specification:'TT Hoves Bold';letter-spacing:-0.18124057px;word-spacing:0px;fill:#e9ebec;fill-opacity:1;stroke:none;stroke-width:0.34853938"
       id="path1259"
       inkscape:connector-curvature="0" />
    <path
       d="m 21.48942,139.06033 v -3.20656 h -1.115326 v -1.95182 h 1.115326 v -2.23065 h 2.091237 v 2.23065 h 1.603281 v 1.95182 h -1.603281 v 2.71861 q 0,0.48795 0.487955,0.48795 h 1.115326 v 1.95183 h -1.672989 q -2.021529,0 -2.021529,-1.95183 z"
       style="font-style:normal;font-variant:normal;font-weight:bold;font-stretch:normal;font-size:13.94157696px;line-height:1.25;font-family:'TT Hoves';-inkscape-font-specification:'TT Hoves Bold';letter-spacing:-0.18124057px;word-spacing:0px;fill:#e9ebec;fill-opacity:1;stroke:none;stroke-width:0.34853938"
       id="path1261"
       inkscape:connector-curvature="0" />
    <path
       d="m 30.92785,138.85121 h 2.091236 q -0.250948,0.65526 -0.71102,1.15715 -1.087443,1.14321 -2.704666,1.14321 -1.617223,0 -2.662841,-1.03168 -1.031677,-1.04561 -1.031677,-2.66284 0,-1.61722 1.031677,-2.6489 1.045618,-1.04561 2.662841,-1.04561 1.561457,0 2.593133,1.01773 1.031677,1.01774 1.031677,2.53737 0,0.19518 -0.04182,0.52978 l -0.02788,0.1673 h -5.158383 q 0.05577,0.64131 0.487955,1.05956 0.44613,0.4043 1.115326,0.4043 0.557663,0 1.003794,-0.30671 0.223065,-0.1673 0.320656,-0.32066 z m -2.927731,-2.09124 h 3.206562 q -0.306714,-1.39415 -1.603281,-1.39415 -1.296567,0 -1.603281,1.39415 z"
       style="font-style:normal;font-variant:normal;font-weight:bold;font-stretch:normal;font-size:13.94157696px;line-height:1.25;font-family:'TT Hoves';-inkscape-font-specification:'TT Hoves Bold';letter-spacing:-0.18124057px;word-spacing:0px;fill:#e9ebec;fill-opacity:1;stroke:none;stroke-width:0.34853938"
       id="path1263"
       inkscape:connector-curvature="0" />
    <path
       d="m 34.371409,141.01216 v -7.11021 h 1.812405 l 0.139415,0.62737 h 0.06971 q 0.167299,-0.19518 0.474014,-0.37642 0.599488,-0.39036 1.477807,-0.39036 1.254742,0 2.049412,0.82255 0.808611,0.80861 0.808611,2.10518 v 4.32189 h -2.091236 v -3.90365 q 0,-0.58554 -0.376423,-0.94802 -0.362481,-0.37643 -0.948027,-0.37643 -0.585546,0 -0.961969,0.37643 -0.362481,0.36248 -0.362481,0.94802 v 3.90365 z"
       style="font-style:normal;font-variant:normal;font-weight:bold;font-stretch:normal;font-size:13.94157696px;line-height:1.25;font-family:'TT Hoves';-inkscape-font-specification:'TT Hoves Bold';letter-spacing:-0.18124057px;word-spacing:0px;fill:#e9ebec;fill-opacity:1;stroke:none;stroke-width:0.34853938"
       id="path1265"
       inkscape:connector-curvature="0" />
    <path
       sodipodi:nodetypes="cccccccc"
       inkscape:connector-curvature="0"
       id="path1267"
       d="m 85.10627,107.84534 c 0.153881,-0.605 -0.136423,-1.39408 -0.350698,-2.07239 -0.11768,-0.29483 -0.15277,-0.42649 0.178863,-0.24342 l 1.52235,1.07491 c 0.336624,0.052 0.389246,-0.20683 0.456919,-0.44921 -0.998824,-3.25024 -4.851607,-5.44831 -7.813908,-3.10565 -0.930495,0.77722 -1.912294,1.72277 -2.170883,2.99426 2.367596,1.05212 5.309043,1.93024 8.177357,1.8015 z"
       style="fill:#e11a1c;fill-opacity:1;stroke:none;stroke-width:0.27076036;stroke-linecap:butt;stroke-linejoin:miter;stroke-miterlimit:4;stroke-dasharray:none;stroke-opacity:1" />
    <path
       sodipodi:nodetypes="ccscc"
       inkscape:connector-curvature="0"
       id="path1269"
       d="m 77.266133,106.40316 c 0.357184,-1.17708 1.104773,-2.69568 2.911104,-3.27172 0.182059,-0.12596 -1.139238,-0.0167 -2.408141,1.58652 -0.554172,0.70013 -0.920544,1.7029 -0.920544,1.7029 z"
       style="fill:#9f191a;fill-opacity:1;stroke:none;stroke-width:0.13538016;stroke-linecap:butt;stroke-linejoin:miter;stroke-miterlimit:4;stroke-dasharray:none;stroke-opacity:1" />
    <path
       sodipodi:nodetypes="cccccc"
       inkscape:connector-curvature="0"
       id="path1271"
       d="m 84.866698,107.38391 c 0.07289,-1.02534 -0.234012,-1.67289 -0.785783,-2.21212 -0.08243,-0.0801 -0.02387,-0.12856 0.148193,-0.0102 1.036041,0.87872 0.795491,1.72129 1.00683,2.71627 l -0.350498,-0.25194 z"
       style="fill:#9f191a;fill-opacity:1;stroke:none;stroke-width:0.13538016;stroke-linecap:butt;stroke-linejoin:miter;stroke-miterlimit:4;stroke-dasharray:none;stroke-opacity:1" />
    <path
       inkscape:connector-curvature="0"
       id="path1273"
       d="m 76.33128,105.91263 c 0.23892,0.0429 0.221609,-0.54842 0.584456,-0.40008 0.27382,0.11085 0.617452,0.27824 0.806784,0.23696 0.189333,-0.0413 0.34923,-0.0353 0.468646,0.10541 0.119414,0.14065 -0.02216,0.25409 0.263673,0.20412 0.285826,-0.05 0.48799,-0.008 0.575228,0.16243 0.08723,0.17005 0.474649,0.0251 0.474649,0.0251 0,0 0.11948,-0.0184 0.199823,0.14666 0.08035,0.16499 0.554524,0.22676 0.743413,0.14274 0.188889,-0.084 0.05646,0.16865 0.09226,0.24266 0.03578,0.074 0.316974,-0.0507 0.487585,-0.0378 0.170575,0.0128 0.270321,0.0147 0.319043,0.0506 0.0487,0.0357 0.471136,-0.029 0.573433,0.10224 0.102295,0.1313 0.613977,0.28195 0.801806,0.20988 0.187831,-0.0721 0.440337,-0.20158 0.519926,-0.16192 0.07959,0.0397 0.149342,0.29703 0.433992,0.23606 0.28465,-0.061 0.593369,-0.19049 0.741817,-0.0966 0.148451,0.094 0.376511,0.17138 0.540221,0.2803 0.163716,0.10892 0.281633,0.17296 0.471316,0.33843 0.391369,0.53305 -0.02999,0.96121 -0.0021,1.25416 0.03386,0.19368 0.0077,0.33174 -0.08402,0.46687 -0.09167,0.13512 0.08438,0.29941 -0.04952,0.38482 -0.597337,-0.0798 -0.909271,0.39008 -1.081021,-0.0386 0.117008,0.37439 0.355127,-0.15962 -0.09469,-0.0376 -0.228416,0.005 -0.317349,0.014 -0.606536,0.0454 -0.33471,-0.0102 -0.357083,-0.42202 -0.601363,-0.31581 -0.247307,0.10711 -0.457262,0.0814 -0.827132,-0.0738 -0.369689,-0.15513 -0.303312,-0.0509 -0.687056,0.0124 -0.383779,0.063 -0.855335,0.0316 -1.097964,-0.16905 -0.242669,-0.20056 -1.212571,0.024 -1.462903,-0.21267 -0.250331,-0.23674 -0.701367,-0.0673 -0.983939,-0.11574 -0.282568,-0.0484 -0.754405,-0.15714 -1.073577,-0.60344 -0.181214,-0.25339 -0.204281,0.10576 -0.455073,0.1806 -0.190928,0.057 -0.633055,-0.17251 -0.6793,-0.24996 -0.107009,-0.17924 0.108937,-0.64229 0.123729,-0.86469 0.01479,-0.22239 -0.195019,-0.54477 -1.51e-4,-0.62969 0.19486,-0.0849 0.07988,-0.36161 0.109299,-0.40893 0.261877,-0.18271 0.2033,-0.54301 0.455242,-0.41146 z"
       style="fill:#f9f9f9;fill-opacity:1;stroke:#e7eaeb;stroke-width:0.27076036;stroke-linecap:butt;stroke-linejoin:miter;stroke-miterlimit:4;stroke-dasharray:none;stroke-opacity:1"
       sodipodi:nodetypes="ccccccccscccccccsccccccccccccscsssccccc" />
    <path
       inkscape:connector-curvature="0"
       id="path1275"
       d="m 87.350895,106.07752 c 0.22341,0.32891 0.108437,0.19954 0.435286,0.24452 0.326848,0.045 0.468814,0.0967 0.394657,0.28964 -0.07415,0.19298 0.06394,0.21935 0.09506,0.42211 0.03111,0.20276 -0.144311,0.13023 -0.196345,0.24198 -0.05203,0.11176 0.188721,0.13101 0.159396,0.3344 -0.03416,0.1436 -0.120923,0.16989 -0.31462,0.26013 -0.193683,0.0902 0.07402,0.1443 -0.226273,0.32873 -0.17777,0.10938 -0.243687,-0.0102 -0.401563,-0.081 -0.157878,-0.0709 -0.22723,0.29428 -0.513087,0.12194 -0.285855,-0.17232 -0.178477,-0.14987 -0.33,-0.29092 -0.2644,-0.20155 -0.380862,0.16653 -0.513981,-0.0812 -0.133117,-0.24763 -0.166258,-0.23823 -0.116767,-0.47929 0.04949,-0.24107 -0.187005,-0.3734 0.0626,-0.55006 0.249605,-0.17665 0.199542,-0.10847 0.239903,-0.29623 0.04035,-0.18778 0.340305,-0.29001 0.390991,-0.29778 0.460206,-0.13596 0.618653,-0.53622 0.834758,-0.16702 z"
       style="fill:#f9f9f9;stroke:#e7eaeb;stroke-width:0.27076036;stroke-linecap:butt;stroke-linejoin:miter;stroke-miterlimit:4;stroke-dasharray:none;stroke-opacity:1"
       sodipodi:nodetypes="cccscccccccscccccc" />
    <path
       sodipodi:nodetypes="cscccccc"
       inkscape:connector-curvature="0"
       id="path1277"
       d="m 84.715651,105.7306 c 0,0 -0.08097,-0.0493 -0.147932,-0.21704 -0.104154,-0.26081 -0.206704,-0.68469 -0.166915,-0.70429 0.04264,-0.0208 0.06877,0.0512 0.08329,0.0731 0.100684,0.31226 0.308852,0.5234 0.441413,0.64062 -0.03662,-0.0197 -0.202859,-0.10623 -0.243141,-0.0558 -0.05314,0.0578 0.157764,0.45313 0.03329,0.26342 z"
       style="fill:#9f191a;fill-opacity:1;stroke:none;stroke-width:0.13538016;stroke-linecap:butt;stroke-linejoin:miter;stroke-miterlimit:4;stroke-dasharray:none;stroke-opacity:1" />
    <path
       style="fill:#e7eaeb;fill-opacity:1;stroke:none;stroke-width:0.29989463px;stroke-linecap:butt;stroke-linejoin:miter;stroke-opacity:1"
       d="m 75.852599,107.5141 c 0.06869,0.91696 0.945886,-0.13584 1.315023,0.10797 0.35785,0.35784 0.145791,0.55665 0.848231,0.60966 0.221678,0.0167 0.584432,-0.10497 0.767048,-0.0957 0.396046,0.02 0.594387,0.15783 1.247501,0.14876 0.954259,-0.0133 0.463875,0.23856 1.683207,0.42411 0.554196,0.0843 0.737903,-0.17575 0.972498,-0.14244 0.281556,0.04 0.578149,0.35692 0.896257,0.24847 0.583159,-0.1988 0.636173,-0.62292 1.219332,-0.3711 0.583157,0.25182 0.543397,0.38436 0.543397,0.38436 l 0.01326,0.70244 -0.06626,0.42411 c -0.254259,0.33833 -0.529271,0.34079 -0.907881,0.37884 -0.284565,-0.13231 -0.25931,-0.46662 -0.334854,-0.47873 0,0 -0.427216,0.0204 -0.493484,-0.0194 -0.06628,-0.0398 -0.530156,-0.35785 -0.530156,-0.35785 l -0.397611,0.10603 -0.954258,-0.23857 -0.941003,0.0795 -0.689189,-0.23857 -0.808471,-0.0132 -0.596408,-0.1723 -0.410863,-0.18555 h -0.954259 l -0.62292,-0.60967 -0.07049,-0.039 c -0.175556,0.93065 -0.645626,-0.0635 -0.96329,-0.014 l -0.06627,-0.3711 z"
       id="path1287"
       inkscape:connector-curvature="0"
       sodipodi:nodetypes="ccsscsscccccccccccccccccccccc" />
    <path
       style="fill:#e7eaeb;fill-opacity:1;stroke:none;stroke-width:0.26458332px;stroke-linecap:butt;stroke-linejoin:miter;stroke-opacity:1"
       d="m 85.851112,107.49161 c 0.06431,0.0819 0.298172,0.27478 0.643118,0.15201 0.344942,-0.12278 0.356637,-0.0526 0.467719,0.0175 0.111086,0.0702 0.140317,0.22801 0.362485,0.11693 0.222168,-0.11108 0.01169,-0.29817 0.380023,-0.30987 0.368332,-0.0117 0.467723,0.0175 0.491109,-0.13447 0.02339,-0.15201 -0.05262,0.38587 -0.05262,0.38587 l -0.175395,0.15786 c 0,0 -0.210473,0.36248 -0.280633,0.3391 -0.07016,-0.0234 -0.444336,-0.12863 -0.444336,-0.12863 l -0.356637,0.18125 -0.304019,-0.23971 -0.391716,-0.0994 c 0,0 -0.292327,-0.0468 -0.298172,-0.11109 -0.0058,-0.0643 -0.04093,-0.3274 -0.04093,-0.3274 z"
       id="path1299"
       inkscape:connector-curvature="0" />
  </g>
</svg>
