<?xml version="1.0" encoding="UTF-8" standalone="no"?>
<svg
   xmlns:dc="http://purl.org/dc/elements/1.1/"
   xmlns:cc="http://creativecommons.org/ns#"
   xmlns:rdf="http://www.w3.org/1999/02/22-rdf-syntax-ns#"
   xmlns:svg="http://www.w3.org/2000/svg"
   xmlns="http://www.w3.org/2000/svg"
   xmlns:sodipodi="http://sodipodi.sourceforge.net/DTD/sodipodi-0.dtd"
   xmlns:inkscape="http://www.inkscape.org/namespaces/inkscape"
   viewBox="0 0 175.45836 175.45836"
   version="1.1"
   id="svg6"
   sodipodi:docname="discord.svg"
   width="175.45836"
   height="175.45836"
   inkscape:version="0.92.5 (2060ec1f9f, 2020-04-08)">
  <metadata
     id="metadata12">
    <rdf:RDF>
      <cc:Work
         rdf:about="">
        <dc:format>image/svg+xml</dc:format>
        <dc:type
           rdf:resource="http://purl.org/dc/dcmitype/StillImage" />
        <dc:title></dc:title>
      </cc:Work>
    </rdf:RDF>
  </metadata>
  <defs
     id="defs10" />
  <sodipodi:namedview
     pagecolor="#ffffff"
     bordercolor="#666666"
     borderopacity="1"
     objecttolerance="10"
     gridtolerance="10"
     guidetolerance="10"
     inkscape:pageopacity="0"
     inkscape:pageshadow="2"
     inkscape:window-width="1848"
     inkscape:window-height="1016"
     id="namedview8"
     showgrid="false"
     fit-margin-top="0"
     fit-margin-left="0"
     fit-margin-right="0"
     fit-margin-bottom="0"
     inkscape:zoom="3.9333333"
     inkscape:cx="142.0462"
     inkscape:cy="108.75141"
     inkscape:window-x="72"
     inkscape:window-y="1107"
     inkscape:window-maximized="1"
     inkscape:current-layer="svg6"
     inkscape:snap-nodes="false" />
  <path
     style="clip-rule:evenodd;fill:#7289da;fill-opacity:1;fill-rule:evenodd;stroke:none;stroke-width:65.0511322;stroke-miterlimit:4;stroke-dasharray:none;stroke-opacity:1"
     d="m 63.857952,24.679379 c 0,0 -5.130408,-0.10634 -12.974074,1.808058 -7.843665,1.914004 -18.389254,5.845033 -29.19775,13.951406 0,0 -5.419685,9.793048 -10.823933,25.630496 C 5.4579466,81.906789 0.06268064,103.7898 0.06268064,127.95879 c 0,0 3.15795726,5.44627 10.45744536,11.01942 3.649743,2.78655 8.323731,5.60577 14.171289,7.7942 5.847571,2.18844 12.865201,3.74436 21.159219,4.00707 0,0 5.53853,-6.75651 10.04207,-12.46099 -9.532493,-2.85224 -16.095078,-7.27954 -20.279617,-10.99496 -4.184539,-3.71541 -5.986142,-6.71915 -5.986142,-6.71915 l 4.202516,2.5655 0.610855,0.43986 0.586336,0.34201 0.171008,0.0739 0.586336,0.342 c 3.752952,2.10167 7.517822,3.75548 10.970537,5.10655 6.154838,2.40189 13.506517,4.79908 22.063243,6.45039 11.25885,2.10164 24.462003,2.84872 38.873324,0.1466 7.05554,-1.20093 14.26414,-3.29789 21.77002,-6.45038 5.25413,-1.95153 11.09505,-4.81609 17.24988,-8.86927 0,0 -1.87138,3.09404 -6.20603,6.86573 -4.33466,3.77171 -11.13103,8.21781 -20.96374,10.995 4.50354,5.70447 9.91989,12.16777 9.91989,12.16777 8.29403,-0.26271 15.29758,-1.81863 21.15922,-4.00708 5.86164,-2.18843 10.57607,-5.00763 14.2446,-7.7942 7.33701,-5.57312 10.53073,-11.01942 10.53073,-11.01942 0,-24.16897 -5.39525,-46.051993 -10.7995,-61.889441 C 159.19191,50.23241 153.77222,40.439362 153.77222,40.439362 142.96372,32.332975 132.41814,28.401948 124.57448,26.487944 116.73081,24.573939 111.60042,24.679885 111.60042,24.679885 l -2.10126,2.394458 c 12.76003,3.903068 22.09,8.670491 28.24484,12.460969 6.15485,3.790481 9.13805,6.621419 9.13805,6.621419 C 131.26977,37.599973 115.94173,33.392366 101.68052,31.741067 90.872025,30.540123 80.516035,30.833354 71.358836,32.034298 l -2.54106,0.29273 c -5.25413,0.450353 -18.021778,2.424569 -34.084404,9.480116 -5.554367,2.552006 -8.844842,4.349118 -8.844842,4.349118 0,0 3.10967,-2.974012 9.602273,-6.914611 6.492605,-3.940598 16.346826,-8.851107 29.857446,-12.754175 z m -4.202528,56.001045 c 4.278362,0 8.14449,1.865531 10.921672,4.886654 2.777184,3.021126 4.473042,7.198246 4.397982,11.776845 0,4.578597 -1.688427,8.731287 -4.446845,11.752407 -2.758419,3.02112 -6.594447,4.91108 -10.872809,4.91108 -4.203305,0 -8.022318,-1.88996 -10.799503,-4.91108 -2.777182,-3.02112 -4.520153,-7.17381 -4.520153,-11.752407 0,-4.578599 1.68844,-8.755719 4.44686,-11.776845 2.758418,-3.021123 6.594433,-4.886654 10.872796,-4.886654 z m 54.779376,0 c 4.27836,0 8.11439,1.865531 10.8728,4.886654 2.75842,3.021126 4.44686,7.198246 4.44686,11.776845 0,4.578597 -1.68844,8.731287 -4.44686,11.752407 -2.75841,3.02112 -6.59444,4.91108 -10.8728,4.91108 -4.20331,0 -8.02233,-1.88996 -10.7995,-4.91108 -2.77718,-3.02112 -4.495714,-7.17381 -4.495714,-11.752407 0,-4.578599 1.688434,-8.755719 4.446864,-11.776845 2.75841,-3.021123 6.56999,-4.886654 10.84835,-4.886654 z"
     id="path822"
     inkscape:connector-curvature="0" />
</svg>
