<?xml version="1.0" encoding="UTF-8" standalone="no"?>
<svg
   xmlns:dc="http://purl.org/dc/elements/1.1/"
   xmlns:cc="http://creativecommons.org/ns#"
   xmlns:rdf="http://www.w3.org/1999/02/22-rdf-syntax-ns#"
   xmlns:svg="http://www.w3.org/2000/svg"
   xmlns="http://www.w3.org/2000/svg"
   xmlns:sodipodi="http://sodipodi.sourceforge.net/DTD/sodipodi-0.dtd"
   xmlns:inkscape="http://www.inkscape.org/namespaces/inkscape"
   width="24"
   height="24"
   viewBox="0 0 24 24"
   version="1.1"
   id="svg4"
   sodipodi:docname="external_link.svg"
   inkscape:version="0.92.5 (2060ec1f9f, 2020-04-08)">
  <metadata
     id="metadata10">
    <rdf:RDF>
      <cc:Work
         rdf:about="">
        <dc:format>image/svg+xml</dc:format>
        <dc:type
           rdf:resource="http://purl.org/dc/dcmitype/StillImage" />
      </cc:Work>
    </rdf:RDF>
  </metadata>
  <defs
     id="defs8" />
  <sodipodi:namedview
     pagecolor="#ffffff"
     bordercolor="#666666"
     borderopacity="1"
     objecttolerance="10"
     gridtolerance="10"
     guidetolerance="10"
     inkscape:pageopacity="0"
     inkscape:pageshadow="2"
     inkscape:window-width="1848"
     inkscape:window-height="1016"
     id="namedview6"
     showgrid="false"
     inkscape:zoom="22.326344"
     inkscape:cx="23.232412"
     inkscape:cy="9.8482207"
     inkscape:window-x="72"
     inkscape:window-y="1107"
     inkscape:window-maximized="1"
     inkscape:current-layer="svg4" />
  <path
     d="m 13.355,11.907 -0.71,0.71 c -0.172,0.171 -0.395,0.252 -0.633,0.26 -0.24,0.011 -0.463,-0.105 -0.633,-0.26 -0.164,-0.152 -0.26,-0.413 -0.26,-0.633 0,-0.23 0.097,-0.47 0.26,-0.633 l 0.013,-0.012 c 0.878579,-0.883461 1.841374,-1.8412825 2.633,-2.633 L 16.07,6.662 16.943,5.79 h -1.808 c -0.241,0 -0.457,-0.102 -0.633,-0.261 -0.175,-0.163 -0.25,-0.402 -0.26,-0.633 -0.011,-0.223 0.105,-0.477 0.26,-0.633 0.163,-0.16 0.404,-0.26 0.633,-0.26 h 3.939 l 0.03,-0.002 c 0.167,-0.008 0.326,0.046 0.464,0.132 0.05,0.03 0.096,0.064 0.137,0.1 l 0.032,0.029 c 0.044,0.04 0.084,0.09 0.118,0.143 0.016,0.025 0.03,0.052 0.044,0.08 0.063,0.126 0.098,0.27 0.1,0.4 v 3.979 c 0,0.241 -0.103,0.457 -0.262,0.632 -0.162,0.176 -0.402,0.25 -0.633,0.261 -0.223,0.011 -0.477,-0.105 -0.633,-0.26 -0.16,-0.163 -0.26,-0.404 -0.26,-0.633 V 7.053 l -1.12,1.119 -2.045,2.044 z m 4.855,1.851 v -1.483 c 0,-0.243 0.102,-0.458 0.263,-0.63 0.163,-0.176 0.402,-0.251 0.633,-0.262 0.224,-0.01 0.477,0.106 0.633,0.261 0.16,0.163 0.261,0.404 0.261,0.633 v 4.075 c 0,0.571 -0.136,1.106 -0.375,1.622 -0.278,0.594 -0.751,1.09 -1.293,1.45 -0.558,0.37 -1.243,0.563 -1.91,0.575 H 7.63 C 6.346,19.996 5.124,19.299 4.484,18.183 4.169,17.637 4.003,17.003 4.001,16.373 V 8.382 7.63 C 4.003,6.963 4.187,6.284 4.544,5.72 4.891,5.17 5.386,4.692 5.973,4.404 c 0.524,-0.257 1.0046173,-0.4 1.67,-0.4 h 4.081 c 0.243,0 0.458,0.1 0.633,0.26 0.175,0.163 0.25,0.403 0.261,0.633 0.01,0.224 -0.105,0.478 -0.26,0.633 -0.164,0.161 -0.405,0.261 -0.634,0.261 H 7.842 c -0.157,0 -0.314,0 -0.47,0.013 C 7.213,5.833 7.058,5.874 6.908,5.93 6.764,5.999 6.626,6.08 6.495,6.172 6.375,6.272 6.265,6.384 6.165,6.503 6.072,6.633 5.992,6.772 5.924,6.916 5.868,7.068 5.826,7.224 5.796,7.383 5.789,7.466 5.785,7.548 5.785,7.632 v 7.972 l -0.003,0.278 c -0.003,0.246 -0.007,0.496 0.015,0.74 0.03,0.16 0.071,0.316 0.128,0.468 0.068,0.144 0.149,0.281 0.241,0.412 0.101,0.12 0.212,0.23 0.331,0.33 0.13,0.093 0.27,0.173 0.414,0.241 0.152,0.056 0.307,0.099 0.467,0.128 0.082,0.007 0.4617347,0.011 0.5447347,0.011 H 15.602 l 0.277,0.003 c 0.247,0.003 0.497,0.007 0.741,-0.015 0.16,-0.03 0.316,-0.072 0.468,-0.127 0.144,-0.069 0.281,-0.15 0.412,-0.242 0.12,-0.1 0.23,-0.212 0.331,-0.331 0.092,-0.13 0.172,-0.269 0.24,-0.413 0.056,-0.15 0.098,-0.304 0.127,-0.461 0.014,-0.17 0.014,-0.34 0.013,-0.512 v -2.356 z"
     id="path2"
     inkscape:connector-curvature="0"
     style="clip-rule:evenodd;fill-rule:evenodd"
     sodipodi:nodetypes="ccccscccccscccsccccccscscccscccccscccssccccccccccsscccssccccccsccccccccsccccccccccc" />
</svg>
