<?xml version="1.0" encoding="UTF-8" standalone="no"?>
<!-- Created with Inkscape (http://www.inkscape.org/) -->

<svg
   xmlns:dc="http://purl.org/dc/elements/1.1/"
   xmlns:cc="http://creativecommons.org/ns#"
   xmlns:rdf="http://www.w3.org/1999/02/22-rdf-syntax-ns#"
   xmlns:svg="http://www.w3.org/2000/svg"
   xmlns="http://www.w3.org/2000/svg"
   xmlns:sodipodi="http://sodipodi.sourceforge.net/DTD/sodipodi-0.dtd"
   xmlns:inkscape="http://www.inkscape.org/namespaces/inkscape"
   width="131.15437mm"
   height="85.047615mm"
   viewBox="0 0 131.15437 85.047615"
   version="1.1"
   id="svg11081"
   inkscape:version="0.92.5 (2060ec1f9f, 2020-04-08)"
   sodipodi:docname="croco-emoji.svg">
  <defs
     id="defs11075" />
  <sodipodi:namedview
     id="base"
     pagecolor="#ffffff"
     bordercolor="#666666"
     borderopacity="1.0"
     inkscape:pageopacity="0.0"
     inkscape:pageshadow="2"
     inkscape:zoom="0.28095703"
     inkscape:cx="-61.802176"
     inkscape:cy="-108.95246"
     inkscape:document-units="mm"
     inkscape:current-layer="layer1"
     showgrid="false"
     fit-margin-top="0"
     fit-margin-left="0"
     fit-margin-right="0"
     fit-margin-bottom="0"
     inkscape:window-width="1848"
     inkscape:window-height="1016"
     inkscape:window-x="72"
     inkscape:window-y="1107"
     inkscape:window-maximized="1" />
  <metadata
     id="metadata11078">
    <rdf:RDF>
      <cc:Work
         rdf:about="">
        <dc:format>image/svg+xml</dc:format>
        <dc:type
           rdf:resource="http://purl.org/dc/dcmitype/StillImage" />
        <dc:title></dc:title>
      </cc:Work>
    </rdf:RDF>
  </metadata>
  <g
     inkscape:label="Layer 1"
     inkscape:groupmode="layer"
     id="layer1"
     transform="translate(-67.803962,-142.55769)">
    <g
       id="g11694">
      <path
         sodipodi:nodetypes="ccccc"
         inkscape:connector-curvature="0"
         id="path11661"
         d="m 159.53754,208.10264 c 0,0 -2.38951,11.89874 1.43941,14.22938 3.82891,2.33064 7.59896,1.22245 10.09608,-0.85852 2.49712,-2.08093 4.19634,-3.54891 4.19634,-3.54891 z"
         style="fill:#3e721d;fill-opacity:1;stroke:none;stroke-width:0.26458332px;stroke-linecap:butt;stroke-linejoin:miter;stroke-opacity:1" />
      <path
         style="fill:#3e721d;fill-opacity:1;stroke:none;stroke-width:0.26458332px;stroke-linecap:butt;stroke-linejoin:miter;stroke-opacity:1"
         d="m 119.27894,208.10264 c 0,0 -2.38951,11.89874 1.43941,14.22938 3.82891,2.33064 7.59896,1.22245 10.09608,-0.85852 2.49712,-2.08093 4.19634,-3.54891 4.19634,-3.54891 z"
         id="path11659"
         inkscape:connector-curvature="0"
         sodipodi:nodetypes="ccccc" />
      <ellipse
         ry="3.454345"
         rx="5.5892472"
         cy="183.83899"
         cx="138.93529"
         id="path11643"
         style="opacity:1;fill:#77b255;fill-opacity:1;stroke:none;stroke-width:0.60299999;stroke-linecap:round;stroke-linejoin:round;stroke-miterlimit:4;stroke-dasharray:none;stroke-dashoffset:0;stroke-opacity:1" />
      <ellipse
         style="opacity:1;fill:#77b255;fill-opacity:1;stroke:none;stroke-width:0.60299999;stroke-linecap:round;stroke-linejoin:round;stroke-miterlimit:4;stroke-dasharray:none;stroke-dashoffset:0;stroke-opacity:1"
         id="ellipse11645"
         cx="152.83591"
         cy="183.58928"
         rx="5.5892472"
         ry="3.454345" />
      <ellipse
         ry="3.454345"
         rx="5.5892472"
         cy="183.58928"
         cx="168.15155"
         id="ellipse11647"
         style="opacity:1;fill:#77b255;fill-opacity:1;stroke:none;stroke-width:0.60299999;stroke-linecap:round;stroke-linejoin:round;stroke-miterlimit:4;stroke-dasharray:none;stroke-dashoffset:0;stroke-opacity:1" />
      <ellipse
         style="opacity:1;fill:#77b255;fill-opacity:1;stroke:none;stroke-width:0.60299999;stroke-linecap:round;stroke-linejoin:round;stroke-miterlimit:4;stroke-dasharray:none;stroke-dashoffset:0;stroke-opacity:1"
         id="ellipse11649"
         cx="160.90991"
         cy="190.99739"
         rx="5.5892472"
         ry="3.454345" />
      <ellipse
         ry="3.454345"
         rx="5.5892472"
         cy="190.99739"
         cx="145.92722"
         id="ellipse11651"
         style="opacity:1;fill:#77b255;fill-opacity:1;stroke:none;stroke-width:0.60299999;stroke-linecap:round;stroke-linejoin:round;stroke-miterlimit:4;stroke-dasharray:none;stroke-dashoffset:0;stroke-opacity:1" />
      <path
         sodipodi:nodetypes="zczcz"
         inkscape:connector-curvature="0"
         id="path11653"
         d="m 109.47515,162.48094 c 3.23148,-0.0621 6.31248,-3.34018 5.4149,0.75043 -0.49766,1.75043 -1.80986,4.45761 -5.48848,4.45846 -3.67862,8.5e-4 -4.89989,-3.03116 -5.09118,-4.32603 -0.46874,-4.62123 1.93328,-0.82079 5.16476,-0.88286 z"
         style="fill:none;stroke:#000000;stroke-width:0.26458332px;stroke-linecap:butt;stroke-linejoin:miter;stroke-opacity:1" />
      <path
         sodipodi:nodetypes="cccccccc"
         inkscape:connector-curvature="0"
         id="path11655"
         d="m 71.188275,172.48673 22.189315,0.14715 c 0,0 -2.413159,3.97289 -3.325453,4.03174 -2.207161,0.0589 -3.972887,-3.4726 -3.972887,-3.4726 0,0 -2.442592,4.85576 -4.031748,4.88519 -1.530299,-0.0589 -3.148883,-4.76747 -3.148883,-4.76747 0,0 -2.501448,6.59205 -4.061174,6.59205 -1.559726,-0.0589 -3.64917,-7.41606 -3.64917,-7.41606 z"
         style="fill:none;stroke:#000000;stroke-width:0.26458332px;stroke-linecap:butt;stroke-linejoin:miter;stroke-opacity:1" />
      <path
         style="fill:#5c913b;fill-opacity:1;stroke:none;stroke-width:0.26458332px;stroke-linecap:butt;stroke-linejoin:miter;stroke-opacity:1"
         d="m 67.803962,164.33495 c 0,0 0.47086,-4.82632 5.297185,-4.12003 4.826323,0.70629 18.069285,1.9423 21.483027,1.58916 3.413738,-0.35315 10.362206,-7.70998 17.523556,-7.00406 15.75406,1.55294 20.00423,18.50985 33.89015,20.65729 8.53279,1.31958 27.63498,4.1782 30.46504,-5.06113 2.4378,-7.95873 -1.34389,-17.62902 -2.91331,-22.09948 -1.37341,-3.91215 -0.32262,-8.60947 4.45319,-3.49597 6.79756,7.27822 16.78512,17.53104 20.10179,33.00356 1.9977,8.65667 1.20694,30.09026 -10.27979,35.16773 -1.61915,1.04674 2.89576,14.79826 -5.19916,14.63179 -10.15416,-0.20881 -12.30147,-8.76356 -12.96737,-10.92773 -0.37456,-0.79076 -21.70411,-0.24971 -21.70411,-0.24971 0,0 0.29134,10.15494 -5.36879,10.82084 -5.66013,0.66589 -16.42804,-12.78161 -16.59451,-14.27989 -9.12773,-0.98128 -22.80547,-20.25782 -25.12234,-25.41662 -1.525066,-3.39575 -4.343635,-3.30094 -12.334409,-4.13331 -7.990774,-0.83237 -19.08397,-3.60674 -19.946637,-9.60849 -0.332949,-0.99884 -0.783512,-9.47395 -0.783512,-9.47395 z"
         id="path11657"
         inkscape:connector-curvature="0"
         sodipodi:nodetypes="cscsssssccsccccsscc" />
      <ellipse
         style="opacity:1;fill:#77b255;fill-opacity:1;stroke:none;stroke-width:0.60299999;stroke-linecap:round;stroke-linejoin:round;stroke-miterlimit:4;stroke-dasharray:none;stroke-dashoffset:0;stroke-opacity:1"
         id="ellipse11663"
         cx="138.93529"
         cy="183.83899"
         rx="5.5892472"
         ry="3.454345" />
      <ellipse
         ry="3.454345"
         rx="5.5892472"
         cy="183.58928"
         cx="152.83591"
         id="ellipse11665"
         style="opacity:1;fill:#77b255;fill-opacity:1;stroke:none;stroke-width:0.60299999;stroke-linecap:round;stroke-linejoin:round;stroke-miterlimit:4;stroke-dasharray:none;stroke-dashoffset:0;stroke-opacity:1" />
      <ellipse
         style="opacity:1;fill:#77b255;fill-opacity:1;stroke:none;stroke-width:0.60299999;stroke-linecap:round;stroke-linejoin:round;stroke-miterlimit:4;stroke-dasharray:none;stroke-dashoffset:0;stroke-opacity:1"
         id="ellipse11667"
         cx="168.15155"
         cy="183.58928"
         rx="5.5892472"
         ry="3.454345" />
      <ellipse
         ry="3.454345"
         rx="5.5892472"
         cy="190.99739"
         cx="160.90991"
         id="ellipse11669"
         style="opacity:1;fill:#77b255;fill-opacity:1;stroke:none;stroke-width:0.60299999;stroke-linecap:round;stroke-linejoin:round;stroke-miterlimit:4;stroke-dasharray:none;stroke-dashoffset:0;stroke-opacity:1" />
      <ellipse
         style="opacity:1;fill:#77b255;fill-opacity:1;stroke:none;stroke-width:0.60299999;stroke-linecap:round;stroke-linejoin:round;stroke-miterlimit:4;stroke-dasharray:none;stroke-dashoffset:0;stroke-opacity:1"
         id="ellipse11671"
         cx="145.92722"
         cy="190.99739"
         rx="5.5892472"
         ry="3.454345" />
      <path
         style="fill:#292f33;fill-opacity:1;stroke:#000000;stroke-width:0.26458332px;stroke-linecap:butt;stroke-linejoin:miter;stroke-opacity:1"
         d="m 109.47515,162.48094 c 3.23148,-0.0621 6.31248,-3.34018 5.4149,0.75043 -0.49766,1.75043 -1.80986,4.45761 -5.48848,4.45846 -3.67862,8.5e-4 -4.89989,-3.03116 -5.09118,-4.32603 -0.46874,-4.62123 1.93328,-0.82079 5.16476,-0.88286 z"
         id="path11673"
         inkscape:connector-curvature="0"
         sodipodi:nodetypes="zczcz" />
      <path
         style="fill:#ffffff;stroke:none;stroke-width:0.26458332px;stroke-linecap:butt;stroke-linejoin:miter;stroke-opacity:1"
         d="m 71.188275,172.48673 22.189315,0.14715 c 0,0 -2.413159,3.97289 -3.325453,4.03174 -2.207161,0.0589 -3.972887,-3.4726 -3.972887,-3.4726 0,0 -2.442592,4.85576 -4.031748,4.88519 -1.530299,-0.0589 -3.148883,-4.76747 -3.148883,-4.76747 0,0 -2.501448,6.59205 -4.061174,6.59205 -1.559726,-0.0589 -3.64917,-7.41606 -3.64917,-7.41606 z"
         id="path11675"
         inkscape:connector-curvature="0"
         sodipodi:nodetypes="cccccccc" />
    </g>
  </g>
</svg>
