<?xml version="1.0" encoding="UTF-8" standalone="no"?>
<svg
   xmlns:dc="http://purl.org/dc/elements/1.1/"
   xmlns:cc="http://creativecommons.org/ns#"
   xmlns:rdf="http://www.w3.org/1999/02/22-rdf-syntax-ns#"
   xmlns:svg="http://www.w3.org/2000/svg"
   xmlns="http://www.w3.org/2000/svg"
   xmlns:sodipodi="http://sodipodi.sourceforge.net/DTD/sodipodi-0.dtd"
   xmlns:inkscape="http://www.inkscape.org/namespaces/inkscape"
   id="svg3716"
   version="1.1"
   viewBox="0 0 5.2916665 5.2916913"
   height="5.2916913mm"
   width="5.2916665mm"
   sodipodi:docname="dashboard.svg"
   inkscape:version="0.92.5 (2060ec1f9f, 2020-04-08)">
  <sodipodi:namedview
     pagecolor="#ffffff"
     bordercolor="#666666"
     borderopacity="1"
     objecttolerance="10"
     gridtolerance="10"
     guidetolerance="10"
     inkscape:pageopacity="0"
     inkscape:pageshadow="2"
     inkscape:window-width="1848"
     inkscape:window-height="1016"
     id="namedview8007"
     showgrid="false"
     inkscape:zoom="18.944443"
     inkscape:cx="11.604872"
     inkscape:cy="4.2920826"
     inkscape:window-x="72"
     inkscape:window-y="27"
     inkscape:window-maximized="1"
     inkscape:current-layer="svg3716" />
  <defs
     id="defs3710" />
  <metadata
     id="metadata3713">
    <rdf:RDF>
      <cc:Work
         rdf:about="">
        <dc:format>image/svg+xml</dc:format>
        <dc:type
           rdf:resource="http://purl.org/dc/dcmitype/StillImage" />
        <dc:title />
      </cc:Work>
    </rdf:RDF>
  </metadata>
  <path
     style="opacity:1;fill:#000000;fill-opacity:1;stroke:none;stroke-width:3.63343692;stroke-linecap:round;stroke-linejoin:round;stroke-miterlimit:4;stroke-dasharray:none;stroke-dashoffset:0;stroke-opacity:1"
     d="M 2.5898438 0 C 1.155295 0 5.9211895e-16 1.155408 0 2.5898438 L 0 9.0195312 L 9.0234375 9.0195312 L 9.0234375 0 L 2.5898438 0 z M 10.980469 0 L 10.980469 9.0195312 L 20 9.0195312 L 20 2.5898438 C 20 1.155408 18.844705 5.9211895e-16 17.410156 0 L 10.980469 0 z M 0 10.978516 L 0 17.410156 C 0 18.844592 1.155295 20 2.5898438 20 L 9.0234375 20 L 9.0234375 10.978516 L 0 10.978516 z M 10.980469 10.978516 L 10.980469 20 L 17.410156 20 C 18.844705 20 20.000998 18.844592 20 17.410156 L 20 10.978516 L 10.980469 10.978516 z "
     transform="scale(0.26458333)"
     id="path4426" />
</svg>
