<?xml version="1.0" encoding="UTF-8" standalone="no"?>
<svg
   xmlns:dc="http://purl.org/dc/elements/1.1/"
   xmlns:cc="http://creativecommons.org/ns#"
   xmlns:rdf="http://www.w3.org/1999/02/22-rdf-syntax-ns#"
   xmlns:svg="http://www.w3.org/2000/svg"
   xmlns="http://www.w3.org/2000/svg"
   xmlns:sodipodi="http://sodipodi.sourceforge.net/DTD/sodipodi-0.dtd"
   xmlns:inkscape="http://www.inkscape.org/namespaces/inkscape"
   id="svg3716"
   version="1.1"
   viewBox="0 0 5.2919311 5.2919311"
   height="5.2919312mm"
   width="5.2919312mm"
   sodipodi:docname="filter.svg"
   inkscape:version="0.92.5 (2060ec1f9f, 2020-04-08)">
  <sodipodi:namedview
     pagecolor="#ffffff"
     bordercolor="#666666"
     borderopacity="1"
     objecttolerance="10"
     gridtolerance="10"
     guidetolerance="10"
     inkscape:pageopacity="0"
     inkscape:pageshadow="2"
     inkscape:window-width="1848"
     inkscape:window-height="1016"
     id="namedview8568"
     showgrid="false"
     inkscape:zoom="26.790274"
     inkscape:cx="14.897207"
     inkscape:cy="7.583151"
     inkscape:window-x="72"
     inkscape:window-y="27"
     inkscape:window-maximized="1"
     inkscape:current-layer="svg3716" />
  <defs
     id="defs3710" />
  <metadata
     id="metadata3713">
    <rdf:RDF>
      <cc:Work
         rdf:about="">
        <dc:format>image/svg+xml</dc:format>
        <dc:type
           rdf:resource="http://purl.org/dc/dcmitype/StillImage" />
        <dc:title />
      </cc:Work>
    </rdf:RDF>
  </metadata>
  <path
     style="color:#000000;font-style:normal;font-variant:normal;font-weight:normal;font-stretch:normal;font-size:medium;line-height:normal;font-family:sans-serif;font-variant-ligatures:normal;font-variant-position:normal;font-variant-caps:normal;font-variant-numeric:normal;font-variant-alternates:normal;font-feature-settings:normal;text-indent:0;text-align:start;text-decoration:none;text-decoration-line:none;text-decoration-style:solid;text-decoration-color:#000000;letter-spacing:normal;word-spacing:normal;text-transform:none;writing-mode:lr-tb;direction:ltr;text-orientation:mixed;dominant-baseline:auto;baseline-shift:baseline;text-anchor:start;white-space:normal;shape-padding:0;clip-rule:nonzero;display:inline;overflow:visible;visibility:visible;opacity:1;isolation:auto;mix-blend-mode:normal;color-interpolation:sRGB;color-interpolation-filters:linearRGB;solid-color:#000000;solid-opacity:1;vector-effect:none;fill:#000000;fill-opacity:1;fill-rule:nonzero;stroke:none;stroke-width:1.36050463;stroke-linecap:round;stroke-linejoin:round;stroke-miterlimit:4;stroke-dasharray:none;stroke-dashoffset:0;stroke-opacity:1;color-rendering:auto;image-rendering:auto;shape-rendering:auto;text-rendering:auto;enable-background:accumulate"
     d="M 6.6855469 1.5292969 C 4.9688341 1.5292969 3.5287116 2.771323 3.2070312 4.3984375 L 0.71875 4.3984375 A 0.68032028 0.68032028 0 0 0 0.6484375 4.3984375 A 0.68032028 0.68032028 0 0 0 0.71875 5.7539062 L 3.2050781 5.7539062 C 3.523224 7.3838063 4.9656978 8.6230469 6.6855469 8.6230469 C 8.6358867 8.6230469 10.228516 7.0303945 10.228516 5.0800781 C 10.228516 3.1297266 8.6358867 1.5292969 6.6855469 1.5292969 z M 6.6855469 2.8945312 C 7.2930846 2.8945312 7.841349 3.1368428 8.2363281 3.53125 C 8.6313072 3.9256572 8.8730469 4.4725346 8.8730469 5.0800781 C 8.8730469 5.6876041 8.6313072 6.2339243 8.2363281 6.6289062 C 7.841349 7.0238883 7.2930846 7.2675781 6.6855469 7.2675781 C 6.078015 7.2675781 5.5330819 7.0238883 5.1386719 6.6289062 C 4.7442618 6.2339243 4.5019531 5.6876041 4.5019531 5.0800781 C 4.5019531 4.4725346 4.7442618 3.9256572 5.1386719 3.53125 C 5.5330819 3.1368428 6.078015 2.8945312 6.6855469 2.8945312 z M 19.326172 4.3964844 A 0.68032029 0.68032029 0 0 0 19.257812 4.3984375 L 12.380859 4.3984375 A 0.68032029 0.68032029 0 0 0 12.3125 4.3984375 A 0.68032029 0.68032029 0 0 0 12.380859 5.7539062 L 19.257812 5.7539062 A 0.68032029 0.68032029 0 1 0 19.326172 4.3964844 z M 13.287109 11.378906 C 11.33677 11.378906 9.7382812 12.977371 9.7382812 14.927734 C 9.7382812 16.878039 11.33677 18.470703 13.287109 18.470703 C 15.003787 18.470703 16.439653 17.23677 16.759766 15.611328 L 19.257812 15.611328 A 0.68359349 0.68359349 0 1 0 19.257812 14.244141 L 16.759766 14.244141 C 16.439653 12.617073 15.003787 11.378906 13.287109 11.378906 z M 13.287109 12.744141 C 13.894641 12.744141 14.44153 12.986454 14.835938 13.380859 C 15.230344 13.775265 15.472656 14.320185 15.472656 14.927734 C 15.472656 15.535255 15.230344 16.082151 14.835938 16.476562 C 14.44153 16.870975 13.894641 17.113281 13.287109 17.113281 C 12.679572 17.113281 12.134643 16.870975 11.740234 16.476562 C 11.345826 16.082151 11.101562 15.535255 11.101562 14.927734 C 11.101562 14.320185 11.345826 13.775265 11.740234 13.380859 C 12.134643 12.986454 12.679572 12.744141 13.287109 12.744141 z M 0.6484375 14.244141 A 0.68435531 0.68435531 0 0 0 0.71875 15.611328 L 7.5839844 15.611328 A 0.68343753 0.68343753 0 1 0 7.5839844 14.244141 L 0.71875 14.244141 A 0.68032029 0.68032029 0 0 0 0.6484375 14.244141 z "
     transform="scale(0.26458333)"
     id="path9126" />
</svg>
