<?xml version="1.0" encoding="UTF-8" standalone="no"?>
<!-- Created with Inkscape (http://www.inkscape.org/) -->

<svg
   xmlns:dc="http://purl.org/dc/elements/1.1/"
   xmlns:cc="http://creativecommons.org/ns#"
   xmlns:rdf="http://www.w3.org/1999/02/22-rdf-syntax-ns#"
   xmlns:svg="http://www.w3.org/2000/svg"
   xmlns="http://www.w3.org/2000/svg"
   xmlns:sodipodi="http://sodipodi.sourceforge.net/DTD/sodipodi-0.dtd"
   xmlns:inkscape="http://www.inkscape.org/namespaces/inkscape"
   width="171.05461mm"
   height="171.05461mm"
   viewBox="0 0 171.05461 171.05461"
   version="1.1"
   id="svg821"
   inkscape:version="0.92.5 (2060ec1f9f, 2020-04-08)"
   sodipodi:docname="heart.svg">
  <defs
     id="defs815" />
  <sodipodi:namedview
     id="base"
     pagecolor="#ffffff"
     bordercolor="#666666"
     borderopacity="1.0"
     inkscape:pageopacity="0.0"
     inkscape:pageshadow="2"
     inkscape:zoom="0.56191406"
     inkscape:cx="352.18579"
     inkscape:cy="442.82053"
     inkscape:document-units="mm"
     inkscape:current-layer="layer1"
     showgrid="false"
     fit-margin-top="0"
     fit-margin-left="0"
     fit-margin-right="0"
     fit-margin-bottom="0"
     inkscape:window-width="1848"
     inkscape:window-height="1016"
     inkscape:window-x="72"
     inkscape:window-y="1107"
     inkscape:window-maximized="1" />
  <metadata
     id="metadata818">
    <rdf:RDF>
      <cc:Work
         rdf:about="">
        <dc:format>image/svg+xml</dc:format>
        <dc:type
           rdf:resource="http://purl.org/dc/dcmitype/StillImage" />
        <dc:title></dc:title>
      </cc:Work>
    </rdf:RDF>
  </metadata>
  <g
     inkscape:label="Layer 1"
     inkscape:groupmode="layer"
     id="layer1"
     transform="translate(-0.16936019,-41.02106)">
    <path
       style="fill:#000000;stroke-width:0.26458332"
       d="m 83.957519,206.23832 c -2.68874,-4.39998 -5.30124,-7.33995 -11.29532,-12.71115 -5.10909,-4.57819 -9.29755,-8.0349 -14.41979,-11.90058 C 38.997205,167.10253 34.486668,163.49933 26.881372,156.57413 13.327299,144.23213 6.4060153,134.02552 3.0960613,120.88346 1.1725943,110.40719 0.06359433,100.80278 2.1020863,91.29839 3.1213763,86.61378 5.4106203,81.530676 8.7682803,76.496569 13.625705,69.21388 19.222999,64.34452 27.342215,60.338191 40.04364,54.75701 52.761628,54.403487 63.610139,59.780834 c 6.55073,3.258607 11.41589,7.283513 16.12944,13.343746 2.53782,3.2629 4.67394,7.870715 5.36415,11.57099 0.10179,0.5457 0.27174,0.99218 0.37766,0.99218 0.10592,0 0.88316,-1.552222 1.7272,-3.449388 3.27054,-7.351293 6.94752,-12.381384 12.17695,-16.658035 7.125061,-5.826899 17.112941,-9.286253 26.715561,-9.253069 16.09288,0.05561 30.50087,8.306611 38.67538,22.148169 3.11316,5.271388 4.64514,10.833603 5.4115,19.64774 0.38499,4.427853 0.16291,13.623773 -0.42171,17.462503 -1.971,12.94192 -7.77388,23.80283 -18.77412,35.13838 -6.27863,6.47002 -12.63998,11.82326 -25.67786,21.60862 -10.01144,7.5139 -15.51155,11.99528 -23.15104,18.86299 -6.718531,6.03978 -15.405181,14.73909 -16.110801,16.13428 -0.31279,0.61846 -0.60741,1.12448 -0.65471,1.12448 -0.0473,0 -0.6954,-0.99725 -1.44022,-2.2161 z"
       id="path1377"
       inkscape:connector-curvature="0"
       sodipodi:nodetypes="ccssccsccccscsssssscscsc" />
  </g>
</svg>
