<?xml version="1.0" encoding="UTF-8" standalone="no"?>
<!-- Created with Inkscape (http://www.inkscape.org/) -->

<svg
   xmlns:dc="http://purl.org/dc/elements/1.1/"
   xmlns:cc="http://creativecommons.org/ns#"
   xmlns:rdf="http://www.w3.org/1999/02/22-rdf-syntax-ns#"
   xmlns:svg="http://www.w3.org/2000/svg"
   xmlns="http://www.w3.org/2000/svg"
   xmlns:sodipodi="http://sodipodi.sourceforge.net/DTD/sodipodi-0.dtd"
   xmlns:inkscape="http://www.inkscape.org/namespaces/inkscape"
   width="45.26976mm"
   height="45.26976mm"
   viewBox="0 0 49.796738 49.796737"
   version="1.1"
   id="svg1003"
   inkscape:version="0.92.5 (2060ec1f9f, 2020-04-08)"
   sodipodi:docname="portis.svg">
  <defs
     id="defs997" />
  <sodipodi:namedview
     id="base"
     pagecolor="#ffffff"
     bordercolor="#666666"
     borderopacity="1.0"
     inkscape:pageopacity="0.0"
     inkscape:pageshadow="2"
     inkscape:zoom="2.8"
     inkscape:cx="90.062817"
     inkscape:cy="87.124604"
     inkscape:document-units="mm"
     inkscape:current-layer="layer1"
     showgrid="false"
     scale-x="1.1"
     fit-margin-top="0"
     fit-margin-left="0"
     fit-margin-right="0"
     fit-margin-bottom="0"
     inkscape:window-width="1920"
     inkscape:window-height="1043"
     inkscape:window-x="0"
     inkscape:window-y="0"
     inkscape:window-maximized="1" />
  <metadata
     id="metadata1000">
    <rdf:RDF>
      <cc:Work
         rdf:about="">
        <dc:format>image/svg+xml</dc:format>
        <dc:type
           rdf:resource="http://purl.org/dc/dcmitype/StillImage" />
        <dc:title></dc:title>
      </cc:Work>
    </rdf:RDF>
  </metadata>
  <g
     inkscape:label="Layer 1"
     inkscape:groupmode="layer"
     id="layer1"
     transform="translate(-49.184971,-134.5183)">
    <rect
       style="opacity:1;fill:none;fill-opacity:1;stroke:none;stroke-width:1.47915447;stroke-linecap:round;stroke-linejoin:round;stroke-miterlimit:4;stroke-dasharray:none;stroke-dashoffset:0;stroke-opacity:1"
       id="rect1632"
       width="49.796738"
       height="49.796738"
       x="49.184971"
       y="134.5183" />
    <polygon
       style="fill:#133444"
       id="polygon4"
       points="22.9,345.6 22,336.2 26.4,334.3 80.6,310.7 139.2,336.2 117.2,381.7 63.4,389.3 "
       class="st0"
       transform="matrix(0.24113592,0,0,0.24113592,54.658695,78.687866)" />
    <path
       style="fill:#c42370;stroke-width:0.24113593"
       inkscape:connector-curvature="0"
       id="path6"
       d="m 85.307071,153.00596 c -2.339019,-2.82129 -5.64258,-4.62981 -9.259619,-5.11209 l -0.241136,-0.0242 c -1.133339,-0.14468 -2.266678,-0.14468 -3.400017,0 l -0.241136,0.0242 c -3.617039,0.48228 -6.920601,2.31491 -9.259619,5.11209 v 0 l -0.578726,0.96454 -0.988657,1.61561 -0.723407,1.18157 v 0 c 0,0.0242 -0.02411,0.0724 -0.04823,0.0964 v 0.0242 l 1.567383,0.94042 10.007142,5.93195 1.929086,1.13334 v -14.15468 l -1.929086,0.86809 v -2.122 l 1.929086,-0.86808 1.929088,0.86808 9.838345,4.48513 z"
       class="st1" />
    <path
       style="fill:#1c4d6b;stroke-width:0.24113593"
       inkscape:connector-curvature="0"
       id="path8"
       d="m 88.658861,163.27835 c -0.02411,4.65391 -2.121998,9.04259 -5.714922,11.98445 -1.374475,1.13333 -2.917745,1.97731 -4.605697,2.55604 -1.374475,0.45816 -2.797176,0.67518 -4.243991,0.67518 -8.05394,0 -14.588723,-7.16173 -14.588723,-15.21567 0,-1.18156 0.144681,-2.36314 0.434044,-3.52059 l 14.130565,8.36742 14.130564,-8.36742 c 0.313478,1.15745 0.482273,2.33903 0.45816,3.52059 z"
       class="st2" />
    <polygon
       id="polygon10"
       points="72.6,293.7 72.6,286.4 73.6,286.9 80.6,290 "
       transform="matrix(0.24113592,0,0,0.24113592,54.658695,78.687866)" />
    <polygon
       id="polygon12"
       points="80.6,357.6 72.6,352.8 72.6,302.5 80.6,298.8 "
       transform="matrix(0.24113592,0,0,0.24113592,54.658695,78.687866)" />
    <polygon
       style="fill:#1d4259"
       id="polygon14"
       points="80.6,357.6 136.8,324.4 80.6,298.8 "
       class="st3"
       transform="matrix(0.24113592,0,0,0.24113592,54.658695,78.687866)" />
    <polygon
       style="fill:#4b6b9a"
       id="polygon16"
       points="80.6,298.8 136.8,324.4 80.6,231.2 "
       class="st4"
       transform="matrix(0.24113592,0,0,0.24113592,54.658695,78.687866)" />
    <path
       style="fill:#343535;stroke-width:0.24113593"
       inkscape:connector-curvature="0"
       id="path18"
       d="m 74.094251,150.73928 v 14.15467 l -1.929088,-1.13334 -11.598637,-6.84825 h -0.02411 0.02411 c 0,-0.0242 0.02411,-0.0724 0.04823,-0.0965 v 0 l 1.687952,-2.82128 9.838345,-4.46102 v 2.09788 z"
       class="st5" />
    <polygon
       style="fill:#3e5578"
       id="polygon20"
       points="24.5,324.4 24.6,324.3 72.6,302.5 80.6,298.8 80.6,357.6 72.6,352.8 "
       class="st6"
       transform="matrix(0.24113592,0,0,0.24113592,54.658695,78.687866)" />
    <polygon
       style="fill:#6db2d8"
       id="polygon22"
       points="80.6,298.8 24.5,324.4 80.6,231.2 "
       class="st7"
       transform="matrix(0.24113592,0,0,0.24113592,54.658695,78.687866)" />
    <path
       style="fill:#335f8a;stroke-width:0.24113593"
       inkscape:connector-curvature="0"
       id="path24"
       d="m 68.620466,177.33657 c 0.192909,0.0965 0.409931,0.16879 0.602839,0.24114 -0.192908,-0.0724 -0.385817,-0.1688 -0.602839,-0.24114 z"
       class="st8" />
    <path
       style="fill:#335f8a;stroke-width:0.24113593"
       inkscape:connector-curvature="0"
       id="path26"
       d="m 69.223305,177.57771 c 0.192909,0.0724 0.409932,0.16878 0.626954,0.21702 -0.192909,-0.0482 -0.409931,-0.12057 -0.626954,-0.21702 z"
       class="st8" />
    <path
       style="fill:#335f8a;stroke-width:0.24113593"
       inkscape:connector-curvature="0"
       id="path28"
       d="m 70.404871,177.96352 c 0.168795,0.0482 0.313477,0.0965 0.482272,0.12056 -0.168795,-0.0242 -0.33759,-0.0724 -0.482272,-0.12056 z"
       class="st8" />
    <path
       style="fill:#6db2d8;stroke-width:0.24113593"
       inkscape:connector-curvature="0"
       id="path30"
       d="m 59.963686,159.75776 14.130565,8.36742 c -0.192909,1.27801 -0.530499,2.50781 -1.012771,3.71349 -1.133339,2.74894 -3.400016,5.64258 -7.836918,3.42413 v 0 c -3.592924,-2.94186 -5.690807,-7.33054 -5.71492,-11.98445 0,-1.18156 0.144682,-2.36314 0.434044,-3.52059 z"
       class="st7" />
    <path
       style="fill:#529bba;stroke-width:0.24113593"
       inkscape:connector-curvature="0"
       id="path32"
       d="m 82.943939,175.2628 -0.04823,0.0241 c -0.07234,0.0482 -0.144681,0.12058 -0.217022,0.1688 l -0.02411,0.0242 c -0.07234,0.0724 -0.168794,0.12056 -0.241136,0.19291 -0.09645,0.0724 -0.168796,0.14468 -0.265249,0.19291 -0.09645,0.0482 -0.192909,0.12057 -0.26525,0.1929 -0.09645,0.0724 -0.168795,0.0965 -0.241135,0.1688 l -0.04823,0.0242 c -0.09645,0.0482 -0.168794,0.0965 -0.241135,0.1688 0,0 -0.02411,0 -0.02411,0.0242 -0.09645,0.0482 -0.168796,0.0965 -0.265249,0.1688 -0.09645,0.0482 -0.192909,0.0965 -0.289363,0.16879 -0.09645,0.0482 -0.192909,0.0965 -0.289364,0.14469 v 0 l -0.289362,0.14468 c -0.09645,0.0482 -0.192909,0.0965 -0.289364,0.14468 -0.09645,0.0482 -0.192909,0.0965 -0.289363,0.14469 -0.192909,0.0964 -0.409931,0.16879 -0.602839,0.24113 -0.192909,0.0724 -0.409932,0.14468 -0.626954,0.21703 -0.07234,0.0242 -0.168795,0.0482 -0.241135,0.0724 l -0.289364,0.0965 c -0.168796,0.0482 -0.313477,0.0965 -0.482272,0.12056 -0.04823,0.0242 -0.120568,0.0242 -0.192909,0.0482 l -0.09645,0.0242 -0.26525,0.0482 c -0.09645,0.0242 -0.144681,0.0242 -0.241135,0.0482 -0.07234,0.0242 -0.144682,0.0242 -0.217023,0.0482 -0.07234,0 -0.168795,0.0242 -0.241135,0.0482 -0.04823,0 -0.07234,0 -0.120569,0.0242 l -0.192909,0.0242 h -0.09645 c -0.07234,0 -0.144682,0.0242 -0.19291,0.0242 -0.07234,0 -0.168795,0.0241 -0.241135,0.0241 -0.07234,0 -0.120569,0 -0.192909,0 -0.07234,0 -0.120568,0 -0.168795,0 v 0 c -0.07234,0 -0.144682,0 -0.192909,0 -0.04823,0 -0.192908,0 -0.265249,0 H 73.87722 c -0.09646,0 -0.192909,0 -0.26525,0 -0.07234,0 -0.144682,0 -0.192909,0 v 0 c -0.04823,0 -0.120568,0 -0.168795,0 -0.04823,0 -0.120568,0 -0.192909,0 -0.07234,0 -0.168795,-0.0241 -0.241135,-0.0241 -0.07234,0 -0.144682,0 -0.192909,-0.0242 h -0.09645 c -0.04823,0 -0.120568,-0.0242 -0.192909,-0.0242 -0.04823,0 -0.07234,0 -0.120567,-0.0242 -0.07234,0 -0.168796,-0.0242 -0.241136,-0.0482 -0.07235,0 -0.144682,-0.0242 -0.217023,-0.0482 -0.07234,0 -0.168795,-0.0242 -0.241136,-0.0482 -0.07234,-0.0242 -0.168795,-0.0482 -0.265249,-0.0482 l -0.09645,-0.0242 c -0.07234,0 -0.144682,-0.0242 -0.192909,-0.0242 -0.168795,-0.0482 -0.33759,-0.0965 -0.482272,-0.12057 l -0.289363,-0.0965 c -0.09645,-0.0242 -0.168796,-0.0482 -0.241136,-0.0724 -0.217022,-0.0724 -0.40993,-0.14468 -0.626953,-0.21703 -0.217023,-0.0724 -0.409931,-0.16879 -0.60284,-0.24113 -0.09645,-0.0482 -0.192908,-0.0965 -0.289364,-0.14468 l -0.289363,-0.14469 -0.289363,-0.14467 v 0 c -0.09645,-0.0482 -0.192908,-0.0965 -0.289363,-0.14468 -0.09646,-0.0482 -0.192908,-0.0965 -0.289363,-0.1688 -0.09645,-0.0482 -0.168795,-0.0965 -0.265249,-0.1688 l -0.02411,-0.0242 c -0.09645,-0.0482 -0.168795,-0.0965 -0.241136,-0.16879 l -0.04823,-0.0242 c -0.07234,-0.0482 -0.168795,-0.0965 -0.241135,-0.16879 -0.07234,-0.0482 -0.192909,-0.12057 -0.265251,-0.19292 -0.09645,-0.0724 -0.192908,-0.12056 -0.265248,-0.1929 l -0.241137,-0.19291 -0.02411,-0.0242 c -0.07234,-0.0482 -0.144682,-0.12056 -0.217022,-0.1688 l -0.04823,-0.0242 c 4.412787,2.19434 6.703579,-0.69929 7.836918,-3.42412 0.48227,-1.18158 0.819861,-2.43548 1.01277,-3.71349 0.192909,1.27801 0.5305,2.50781 1.012771,3.71349 0.988657,2.70072 3.279448,5.59434 7.692236,3.40001 z"
       class="st9" />
    <path
       style="fill:#335f8a;stroke-width:0.24113593"
       inkscape:connector-curvature="0"
       id="path34"
       d="m 77.325472,178.10821 c 0.168796,-0.0482 0.337591,-0.0965 0.482272,-0.12057 -0.144681,0.0242 -0.313476,0.0724 -0.482272,0.12057 z"
       class="st8" />
    <path
       style="fill:#335f8a;stroke-width:0.24113593"
       inkscape:connector-curvature="0"
       id="path36"
       d="m 78.338242,177.79473 c 0.217023,-0.0724 0.409932,-0.14468 0.626954,-0.21702 -0.192909,0.0965 -0.409931,0.16878 -0.626954,0.21702 z"
       class="st8" />
    <path
       style="fill:#335f8a;stroke-width:0.24113593"
       inkscape:connector-curvature="0"
       id="path38"
       d="m 78.965196,177.57771 c 0.192909,-0.0724 0.409931,-0.1688 0.60284,-0.24114 -0.192909,0.0724 -0.385818,0.16879 -0.60284,0.24114 z"
       class="st8" />
    <path
       style="fill:#4b6b9a;stroke-width:0.24113593"
       inkscape:connector-curvature="0"
       id="path40"
       d="m 88.658861,163.27835 c -0.02411,4.65391 -2.121998,9.04259 -5.714922,11.98445 -4.412787,2.19433 -6.703579,-0.69929 -7.836917,-3.42413 -0.482272,-1.18156 -0.819863,-2.43548 -1.012771,-3.71349 l 14.130564,-8.36742 c 0.289364,1.15745 0.434046,2.33903 0.434046,3.52059 z"
       class="st4" />
    <rect
       style="opacity:1;fill:none;fill-opacity:1;stroke:none;stroke-width:1.15510058;stroke-linecap:round;stroke-linejoin:round;stroke-miterlimit:4;stroke-dasharray:none;stroke-dashoffset:0;stroke-opacity:1"
       id="rect945"
       width="49.79673"
       height="49.79673"
       x="49.184971"
       y="134.5183" />
  </g>
</svg>
