<?xml version="1.0" encoding="UTF-8" standalone="no"?>
<!-- Created with Inkscape (http://www.inkscape.org/) -->

<svg
   xmlns:dc="http://purl.org/dc/elements/1.1/"
   xmlns:cc="http://creativecommons.org/ns#"
   xmlns:rdf="http://www.w3.org/1999/02/22-rdf-syntax-ns#"
   xmlns:svg="http://www.w3.org/2000/svg"
   xmlns="http://www.w3.org/2000/svg"
   xmlns:sodipodi="http://sodipodi.sourceforge.net/DTD/sodipodi-0.dtd"
   xmlns:inkscape="http://www.inkscape.org/namespaces/inkscape"
   width="48.843506mm"
   height="25.190153mm"
   viewBox="0 0 48.843506 25.190153"
   version="1.1"
   id="svg8"
   inkscape:version="0.92.5 (2060ec1f9f, 2020-04-08)"
   sodipodi:docname="croco_uni_logo_dark.svg">
  <defs
     id="defs2">
    <clipPath
       id="clipPath1720"
       clipPathUnits="userSpaceOnUse">
      <circle
         style="opacity:1;fill:none;fill-opacity:1;stroke:#000000;stroke-width:0.04603693;stroke-linecap:round;stroke-linejoin:round;stroke-miterlimit:4;stroke-dasharray:none;stroke-dashoffset:0;stroke-opacity:1"
         id="circle1722"
         cx="36.69421"
         cy="-489.96979"
         r="18.456404" />
    </clipPath>
  </defs>
  <sodipodi:namedview
     id="base"
     pagecolor="#ffffff"
     bordercolor="#666666"
     borderopacity="1.0"
     inkscape:pageopacity="0.0"
     inkscape:pageshadow="2"
     inkscape:zoom="3.959798"
     inkscape:cx="88.69968"
     inkscape:cy="40.265423"
     inkscape:document-units="mm"
     inkscape:current-layer="layer1"
     showgrid="false"
     fit-margin-top="0"
     fit-margin-left="0"
     fit-margin-right="0"
     fit-margin-bottom="0"
     inkscape:window-width="1920"
     inkscape:window-height="1043"
     inkscape:window-x="0"
     inkscape:window-y="0"
     inkscape:window-maximized="1" />
  <metadata
     id="metadata5">
    <rdf:RDF>
      <cc:Work
         rdf:about="">
        <dc:format>image/svg+xml</dc:format>
        <dc:type
           rdf:resource="http://purl.org/dc/dcmitype/StillImage" />
        <dc:title></dc:title>
      </cc:Work>
    </rdf:RDF>
  </metadata>
  <g
     inkscape:label="Layer 1"
     inkscape:groupmode="layer"
     id="layer1"
     transform="translate(144.45905,-101.04985)">
    <text
       xml:space="preserve"
       style="font-style:normal;font-weight:normal;font-size:7.66077662px;line-height:1.25;font-family:sans-serif;letter-spacing:0px;word-spacing:0px;fill:#000000;fill-opacity:1;stroke:none;stroke-width:0.19151941"
       x="-576.29877"
       y="-143.74358"
       id="text1439"><tspan
         sodipodi:role="line"
         id="tspan1437"
         x="-576.29877"
         y="-136.96559"
         style="stroke-width:0.19151941" /></text>
    <flowRoot
       xml:space="preserve"
       id="flowRoot1547"
       style="font-style:normal;font-weight:normal;font-size:40px;line-height:1.25;font-family:sans-serif;letter-spacing:0px;word-spacing:0px;fill:#000000;fill-opacity:1;stroke:none"
       transform="matrix(0.19151942,0,0,0.19151942,-521.74195,28.586697)"><flowRegion
         id="flowRegion1549"><rect
           id="rect1551"
           width="278.15015"
           height="84.256859"
           x="-75.637268"
           y="-1002.7184" /></flowRegion><flowPara
         id="flowPara1553" /></flowRoot>    <g
       transform="matrix(0.72385294,0,0,0.72385294,-519.06451,28.586697)"
       id="g938">
      <path
         style="fill:#bbd966;fill-opacity:1;stroke:none;stroke-width:1.25530708;stroke-linecap:butt;stroke-linejoin:miter;stroke-miterlimit:4;stroke-dasharray:none;stroke-opacity:1"
         d="m 571.17943,103.65406 c -0.106,-0.0104 -0.2199,0.0684 -0.3429,0.25284 -1.3115,1.96729 -1.8971,12.17866 -2.7403,10.77345 -0.8431,-1.40522 -2.8898,-11.09101 -4.075,-11.00761 -1.8602,0.13081 1.5081,12.26683 -0.6465,13.81258 -1.3735,0.67809 -6.5609,-4.80054 -6.7483,-3.81688 -0.1674,1.00742 0.3705,3.11832 1.3716,5.50117 2.2988,5.47133 7.3201,12.53462 13.8528,12.0938 4.4317,-0.56492 7.6757,-4.12186 9.8454,-7.84734 2.5441,-4.36859 3.606,-8.96961 3.2963,-9.25868 -1.0703,-0.74239 -4.8927,3.5667 -6.0874,2.79587 -0.4616,-0.29783 -0.6558,-2.34802 0.511,-7.17545 1.1667,-4.82746 -0.4492,-3.4935 -1.9061,-0.89699 -1.4568,2.59649 -3.3592,7.47319 -4.2024,5.48251 -0.8064,-2.16493 -1.1034,-10.60921 -2.1282,-10.70927 z"
         id="path3315"
         inkscape:connector-curvature="0" />
      <path
         inkscape:connector-curvature="0"
         style="fill:#81be40;fill-opacity:1;stroke:none;stroke-width:1.25530708;stroke-linecap:butt;stroke-linejoin:miter;stroke-miterlimit:4;stroke-dasharray:none;stroke-opacity:1"
         d="m 558.04833,119.27738 c 2.3186,5.45622 7.3116,12.42403 13.8025,11.98603 4.4177,-0.56314 7.6528,-4.10025 9.8224,-7.81286 -0.1211,-0.094 -0.2416,-0.21639 -0.3631,-0.30268 -0.473,-0.33604 -0.9495,-0.61221 -1.4347,-0.82036 -0.4853,-0.20815 -0.9793,-0.34826 -1.487,-0.41186 -0.5078,-0.0636 -1.0298,-0.0507 -1.5704,0.0469 -0.5406,0.0976 -1.1001,0.28005 -1.6838,0.55555 -0.5837,0.27551 -1.1918,0.64434 -1.8289,1.11441 -0.6372,0.47005 -1.3034,1.04134 -2.0043,1.72262 -0.3504,0.34063 -0.7095,0.61857 -1.0751,0.83951 -0.3656,0.22098 -0.7379,0.38482 -1.1139,0.49808 -0.376,0.11323 -0.7558,0.17597 -1.1374,0.19346 -0.3817,0.0174 -0.765,-0.0104 -1.1475,-0.0766 -0.3825,-0.0664 -0.764,-0.17122 -1.1427,-0.30937 -0.3786,-0.13812 -0.754,-0.30915 -1.124,-0.50717 -0.3699,-0.198 -0.7348,-0.42312 -1.0914,-0.66903 -0.3566,-0.24588 -0.7051,-0.51264 -1.0435,-0.79449 -0.6769,-0.56369 -1.3126,-1.18751 -1.8883,-1.82318 -0.5757,-0.63571 -1.0913,-1.28353 -1.5278,-1.89552 -0.3983,-0.55849 -0.7091,-1.07094 -0.9611,-1.53345 z"
         id="path3317" />
      <path
         inkscape:connector-curvature="0"
         style="fill:#81be40;fill-opacity:1;stroke:none;stroke-width:1.25530708;stroke-linecap:butt;stroke-linejoin:miter;stroke-miterlimit:4;stroke-dasharray:none;stroke-opacity:1"
         d="m 557.99803,119.16962 c 0.015,0.0349 0.035,0.0726 0.05,0.10775 2.3186,5.45623 7.3116,12.42404 13.8025,11.98603 4.4177,-0.56314 7.6528,-4.10025 9.8224,-7.81285 0.01,-0.0118 0.016,-0.0228 0.023,-0.0345 -0.512,-0.59582 -1.022,-1.14901 -1.5311,-1.58088 -0.2936,-0.2491 -0.5871,-0.47012 -0.8811,-0.6628 -0.2941,-0.19268 -0.589,-0.35696 -0.8846,-0.49185 -0.2956,-0.13487 -0.5921,-0.24034 -0.8903,-0.31605 -0.2981,-0.0757 -0.5976,-0.12179 -0.8994,-0.13697 -0.3017,-0.0152 -0.6058,0 -0.9123,0.0469 -0.3065,0.0467 -0.6154,0.12468 -0.9276,0.23466 -0.3122,0.11 -0.6278,0.25209 -0.9468,0.4267 -0.319,0.17465 -0.6415,0.38194 -0.9683,0.62258 -0.3269,0.24064 -0.6581,0.51475 -0.9938,0.82277 -0.3357,0.30802 -0.6758,0.64999 -1.0215,1.02677 -0.4464,0.4724 -0.8925,0.86096 -1.3361,1.17379 -0.4437,0.31282 -0.8852,0.54979 -1.3233,0.71978 -0.438,0.17002 -0.8722,0.27311 -1.3016,0.31705 -0.4294,0.0439 -0.8538,0.029 -1.2715,-0.0364 -0.4177,-0.0653 -0.8286,-0.18117 -1.2318,-0.33905 -0.403,-0.15797 -0.7983,-0.35821 -1.1838,-0.59194 -0.3855,-0.23372 -0.7615,-0.50129 -1.1264,-0.79403 -0.3648,-0.29274 -0.7185,-0.61082 -1.0598,-0.94584 -0.6825,-0.67003 -1.3148,-1.40788 -1.885,-2.14644 -0.4229,-0.54788 -0.7723,-1.0739 -1.1221,-1.59524 z"
         id="path3319" />
      <path
         inkscape:connector-curvature="0"
         style="fill:#3da02f;fill-opacity:1;stroke:none;stroke-width:1.25530708;stroke-linecap:butt;stroke-linejoin:miter;stroke-miterlimit:4;stroke-dasharray:none;stroke-opacity:1"
         d="m 558.04833,119.27738 c 0.252,0.46251 0.5628,0.97496 0.9611,1.53345 0.4365,0.61199 0.9521,1.25981 1.5278,1.89551 0.5757,0.63568 1.2114,1.2595 1.8883,1.82318 0.3384,0.28186 0.6869,0.54861 1.0435,0.7945 0.3566,0.24591 0.7215,0.47103 1.0914,0.66903 0.37,0.19801 0.7454,0.36904 1.124,0.50716 0.3787,0.13815 0.7602,0.24307 1.1427,0.30938 0.3825,0.0662 0.7658,0.0941 1.1475,0.0766 0.3816,-0.0174 0.7614,-0.0803 1.1374,-0.19346 0.376,-0.11326 0.7483,-0.2771 1.1139,-0.49808 0.3656,-0.22094 0.7247,-0.49888 1.0751,-0.83951 0.7009,-0.68129 1.3671,-1.25257 2.0043,-1.72262 0.6371,-0.47007 1.2452,-0.8389 1.8289,-1.11442 0.5837,-0.2755 1.1432,-0.4579 1.6838,-0.55554 0.5406,-0.0976 1.0626,-0.11051 1.5704,-0.0469 0.5077,0.0636 1.0017,0.2037 1.487,0.41186 0.4852,0.20814 0.9617,0.48431 1.4347,0.82036 0.1215,0.0863 0.242,0.20866 0.3631,0.30268 0.01,-0.0118 0.105,-0.17473 0.1119,-0.18643 -0.5119,-0.59582 -1.1109,-0.99708 -1.6199,-1.42895 -0.2936,-0.24909 -0.5871,-0.47012 -0.8812,-0.6628 -0.2941,-0.19268 -0.5889,-0.35696 -0.8845,-0.49185 -0.2956,-0.13487 -0.5922,-0.24034 -0.8903,-0.31605 -0.2982,-0.0757 -0.5976,-0.12179 -0.8994,-0.13697 -0.3018,-0.0152 -0.6058,0 -0.9123,0.0469 -0.3065,0.0467 -0.6155,0.12468 -0.9277,0.23466 -0.3121,0.11 -0.6278,0.25209 -0.9468,0.4267 -0.3189,0.17465 -0.6415,0.38194 -0.9683,0.62258 -0.3268,0.24064 -0.658,0.51475 -0.9937,0.82277 -0.3357,0.30802 -0.6759,0.64999 -1.0215,1.02677 -0.4464,0.4724 -0.8925,0.86096 -1.3362,1.17379 -0.4437,0.31283 -0.8852,0.54979 -1.3232,0.71978 -0.438,0.17002 -0.8723,0.27311 -1.3017,0.31705 -0.4293,0.0439 -0.8537,0.029 -1.2714,-0.0364 -0.4178,-0.0653 -0.8287,-0.18117 -1.2318,-0.33905 -0.4031,-0.15797 -0.7984,-0.35821 -1.1839,-0.59194 -0.3854,-0.23372 -0.7615,-0.50129 -1.1263,-0.79403 -0.3649,-0.29274 -0.7186,-0.61082 -1.0598,-0.94583 -0.6826,-0.67004 -1.3148,-1.40789 -1.885,-2.14645 -0.423,-0.54788 -0.7724,-1.0739 -1.1221,-1.59524 0.015,0.0349 0.035,0.0727 0.05,0.10776 z"
         id="path3321"
         sodipodi:nodetypes="cccccccccccccccccccccccccccccccsccccccccccc" />
    </g>
    <g
       style="fill:none"
       id="g880"
       transform="matrix(1.4204139,0,0,1.4204139,-143.85019,102.60424)">
      <path
         id="path845"
         d="M 4.15217,1.55141 C 3.96412,1.52242 3.95619,1.51902 4.04468,1.5055 4.21427,1.47958 4.61472,1.51491 4.89067,1.58012 5.53489,1.73232 6.12109,2.12221 6.74683,2.81466 l 0.16624,0.18396 0.23781,-0.038 C 8.15274,2.8006 9.17194,2.92778 10.0244,3.31918 c 0.2345,0.10768 0.6043,0.32203 0.6505,0.37711 0.0147,0.01755 0.0417,0.13055 0.06,0.25113 0.0633,0.41716 0.0316,0.73692 -0.0967,0.97575 -0.0699,0.12996 -0.0738,0.17115 -0.0268,0.28237 0.0375,0.08876 0.142,0.15445 0.2455,0.15431 0.2118,-2.9e-4 0.4398,-0.34065 0.5455,-0.81424 l 0.042,-0.18811 0.0831,0.09359 c 0.456,0.5135 0.8142,1.21379 0.8757,1.71226 l 0.016,0.12997 -0.0766,-0.11815 C 12.2107,5.97186 12.0781,5.83346 11.9084,5.72183 11.6024,5.52062 11.2789,5.45215 10.4222,5.40727 9.64839,5.36675 9.21045,5.30106 8.77621,5.16032 8.03738,4.9209 7.66493,4.60204 6.78729,3.4576 6.39748,2.94928 6.15654,2.66804 5.91687,2.44155 5.37228,1.92691 4.83716,1.65701 4.15217,1.55141 Z"
         inkscape:connector-curvature="0"
         style="fill:#ffffff" />
      <path
         id="path847"
         d="m 10.8494,2.68637 c 0.0195,-0.34062 0.0659,-0.56529 0.1594,-0.77047 0.037,-0.08121 0.0716,-0.14768 0.077,-0.14768 0.0053,0 -0.0108,0.05994 -0.0358,0.1332 -0.0679,0.19912 -0.0791,0.47148 -0.0323,0.78836 0.0594,0.40206 0.0932,0.46007 0.5208,0.89438 0.2005,0.20372 0.4338,0.46064 0.5183,0.57095 L 12.2106,4.35568 12.0568,4.21234 C 11.8688,4.03705 11.4364,3.6952 11.3409,3.64633 11.2768,3.61356 11.2673,3.61413 11.2278,3.65321 11.1914,3.68922 11.1837,3.74333 11.1787,3.99915 11.1708,4.39786 11.1161,4.65377 10.9842,4.90965 10.9128,5.04805 10.9015,5.01851 10.9661,4.8623 11.0143,4.74566 11.0192,4.69439 11.0189,4.30842 11.0181,3.53291 10.9255,3.34647 10.3823,3.02709 10.2447,2.94618 10.0179,2.8295 9.87839,2.76778 9.73887,2.70606 9.62805,2.6523 9.63208,2.64828 c 0.01538,-0.01521 0.54512,0.13847 0.75842,0.22 0.3172,0.12126 0.3695,0.13698 0.408,0.12235 0.0259,-0.00981 0.0384,-0.08455 0.0509,-0.30426 z"
         inkscape:connector-curvature="0"
         style="fill:#ffffff" />
      <path
         id="path849"
         d="M 4.51745,4.01304 C 4.13569,3.49066 3.89948,2.68973 3.95062,2.091 L 3.96643,1.90572 4.05333,1.92148 C 4.21652,1.95106 4.49789,2.05515 4.62964,2.13469 4.9912,2.35293 5.14773,2.64027 5.30697,3.37811 5.35362,3.59423 5.41482,3.8388 5.44298,3.9216 5.48831,4.05487 5.65962,4.36617 5.7989,4.56834 5.89922,4.71395 5.83258,4.78295 5.61082,4.76305 5.27215,4.73267 4.8134,4.41799 4.51745,4.01304 Z"
         inkscape:connector-curvature="0"
         style="fill:#ffffff" />
      <path
         id="path851"
         d="M 10.3863,7.90088 C 8.60224,7.18693 7.97389,6.56721 7.97389,5.52157 c 0,-0.15388 0.00533,-0.27978 0.01182,-0.27978 0.0065,0 0.07553,0.05078 0.15339,0.11286 0.36178,0.2884 0.7669,0.41158 1.8884,0.5742 0.66,0.0957 1.0314,0.173 1.374,0.28592 1.0889,0.35894 1.7626,1.08735 1.9233,2.07949 0.0467,0.28829 0.0193,0.82891 -0.0564,1.11384 -0.0597,0.22505 -0.2421,0.6307 -0.2905,0.6463 -0.0134,0.0043 -0.0265,-0.0468 -0.03,-0.11631 C 12.9296,9.56554 12.7402,9.20285 12.4221,8.93116 12.0604,8.62227 11.5745,8.37633 10.3863,7.90088 Z"
         inkscape:connector-curvature="0"
         style="fill:#ffffff" />
      <path
         id="path853"
         d="M 9.13385,8.19748 C 9.11149,8.06527 9.07272,7.89643 9.04769,7.82228 L 9.00217,7.68748 9.08672,7.7818 C 9.20374,7.91234 9.2962,8.07937 9.37457,8.30185 9.43438,8.47165 9.44111,8.52215 9.44066,8.79807 9.4402,9.06896 9.43273,9.12575 9.3775,9.27859 9.29042,9.51959 9.18233,9.69048 9.00097,9.87391 8.67507,10.2036 8.25607,10.3861 7.65143,10.4618 7.54633,10.4749 7.24,10.4971 6.97069,10.511 6.292,10.5461 5.84531,10.6186 5.44393,10.7587 5.38623,10.7788 5.3347,10.7911 5.32947,10.7859 5.31323,10.7698 5.58651,10.6079 5.81223,10.4998 6.1305,10.3474 6.44733,10.2643 7.15719,10.1468 7.50785,10.0887 7.86998,10.0183 7.96194,9.99029 8.83033,9.72566 9.27671,9.04276 9.13385,8.19748 Z"
         inkscape:connector-curvature="0"
         style="fill:#ffffff" />
      <path
         id="path855"
         d="M 9.95169,9.64109 C 9.71465,9.13463 9.66022,8.64564 9.79008,8.18961 9.80399,8.14088 9.82632,8.101 9.83976,8.101 c 0.01343,0 0.06937,0.03005 0.12428,0.06677 0.10926,0.07309 0.32836,0.19618 0.91196,0.51246 0.7283,0.39467 1.1436,0.70027 1.426,1.04942 0.2473,0.30575 0.4003,0.65405 0.474,1.07875 0.0417,0.2405 0.0172,0.8193 -0.0449,1.0615 -0.1958,0.7638 -0.6509,1.3637 -1.3,1.7138 -0.0951,0.0513 -0.1805,0.0934 -0.1897,0.0936 -0.0093,2e-4 0.0254,-0.0874 0.077,-0.1946 0.2183,-0.4537 0.2432,-0.895 0.0781,-1.3862 C 11.2954,11.7957 11.0893,11.4287 10.6732,10.8084 10.1893,10.0873 10.0707,9.89539 9.95169,9.64109 Z"
         inkscape:connector-curvature="0"
         style="fill:#ffffff" />
      <path
         id="path857"
         d="m 3.25046,12.3737 c 0.66206,-0.5556 1.48583,-0.9503 2.2362,-1.0715 0.32339,-0.0522 0.86211,-0.0315 1.16157,0.0447 0.48001,0.1221 0.9094,0.3956 1.13271,0.7214 0.21824,0.3184 0.31187,0.5959 0.40935,1.2133 0.03846,0.2436 0.08028,0.4881 0.09294,0.5435 0.07321,0.32 0.21567,0.5757 0.39221,0.7042 0.28039,0.204 0.76321,0.2166 1.23818,0.0325 0.08061,-0.0313 0.15058,-0.0529 0.15548,-0.048 0.0173,0.017 -0.22191,0.1761 -0.39063,0.2599 C 9.45143,14.8864 9.2709,14.93 9.03102,14.93 8.59601,14.93 8.23486,14.7101 7.9335,14.2616 7.87419,14.1733 7.7409,13.909 7.63729,13.6741 7.3191,12.9528 7.16199,12.7331 6.79255,12.4926 6.47104,12.2834 6.05641,12.2459 5.74449,12.3979 c -0.40974,0.1997 -0.52406,0.7201 -0.2306,1.0499 0.11664,0.1311 0.33414,0.2441 0.51199,0.2661 0.33273,0.0412 0.61867,-0.2104 0.61867,-0.5443 0,-0.2168 -0.08384,-0.3405 -0.29489,-0.4352 -0.28826,-0.1293 -0.5981,0.0219 -0.59662,0.291 6.4e-4,0.1148 0.05092,0.1868 0.16667,0.2389 0.07426,0.0334 0.07598,0.036 0.01543,0.0235 C 5.67066,13.2333 5.6087,12.9164 5.82135,12.706 c 0.25532,-0.2525 0.78326,-0.1411 0.96456,0.2037 0.07617,0.1448 0.085,0.4332 0.0186,0.6073 C 6.6559,13.9068 6.22256,14.1117 5.78297,14.0002 5.48368,13.9242 5.36181,13.842 5.00097,13.4726 4.37395,12.8306 4.13053,12.7062 3.22657,12.566 L 3.05335,12.5391 Z"
         inkscape:connector-curvature="0"
         style="fill:#ffffff" />
      <path
         id="path859"
         d="M 0.308383,0.883984 C 2.40235,3.40996 3.84457,4.45213 4.00484,4.67231 4.13717,4.85412 4.08737,5.01757 3.86067,5.14567 3.7346,5.21689 3.47541,5.28905 3.34564,5.28905 3.19887,5.28905 3.14847,5.23278 3.14847,5.23278 3.06337,5.15255 3.01544,5.16658 2.5784,4.39555 1.97166,3.45981 1.46389,2.68357 1.45004,2.67057 1.41801,2.64052 1.41856,2.64153 2.51654,4.59413 2.69394,5.0011 2.55182,5.15049 2.55182,5.20845 2.55182,5.32636 2.51946,5.38834 2.37311,5.55059 2.12914,5.8211 2.02008,6.12505 1.94135,6.7541 1.8531,7.45926 1.60492,7.95737 0.917156,8.80989 0.514562,9.30893 0.448686,9.4004 0.3471,9.60153 0.219144,9.85482 0.183961,9.99669 0.169701,10.3165 c -0.015072,0.3382 0.014282,0.5567 0.118233,0.88 0.091005,0.2831 0.185998,0.47 0.428844,0.8438 0.209574,0.3226 0.330242,0.5624 0.330242,0.6562 0,0.0746 0.01434,0.0747 0.33909,0.0018 0.77717,-0.1744 1.40823,-0.4812 1.76314,-0.8572 0.21966,-0.2327 0.27123,-0.3612 0.2729,-0.68 C 3.42325,10.9525 3.41587,10.9088 3.35914,10.7888 3.2668,10.5935 3.09869,10.4311 2.72817,10.1794 2.2427,9.84953 2.03534,9.58398 1.97807,9.21878 1.93108,8.91913 1.98559,8.70771 2.25416,8.14825 2.53214,7.56916 2.60103,7.32239 2.64763,6.73869 2.67773,6.36158 2.71941,6.21286 2.82842,6.09348 2.94212,5.969 3.04447,5.92684 3.32584,5.88863 3.78457,5.82635 4.07667,5.70839 4.31677,5.48849 4.52505,5.29772 4.61221,5.11391 4.62558,4.8372 L 4.63574,4.62747 4.51934,4.49259 C 4.09783,4.00411 0.0261003,0.5 1.60437e-4,0.5 -0.00538105,0.5 0.133325,0.672804 0.308383,0.883984 Z M 1.28364,10.6992 C 1.37894,10.5314 1.3283,10.3158 1.16889,10.2104 1.01827,10.1109 0.78428,10.1578 0.78428,10.2875 c 0,0.0396 0.022023,0.0684 0.071657,0.0938 0.083577,0.0427 0.089644,0.0908 0.023886,0.189 -0.066593,0.0995 -0.061219,0.187 0.015168,0.2464 0.123109,0.0958 0.297379,0.0431 0.388649,-0.1175 z"
         inkscape:connector-curvature="0"
         style="clip-rule:evenodd;fill:#ffffff;fill-rule:evenodd" />
      <path
         id="path861"
         d="M 4.92523,5.99865 C 4.70988,6.06439 4.50054,6.29124 4.43574,6.5291 4.39621,6.67421 4.41864,6.92875 4.47785,7.00736 4.57351,7.13433 4.66602,7.16778 4.91651,7.16603 5.40693,7.16263 5.83327,6.95358 5.88284,6.69224 5.92347,6.47801 5.73622,6.18112 5.4783,6.05078 5.34521,5.98355 5.06217,5.95688 4.92523,5.99865 Z m 0.5733,0.44557 C 5.57416,6.33741 5.54107,6.22198 5.41245,6.14391 5.1675,5.99525 4.79708,6.11827 4.79708,6.34826 c 0,0.11448 0.19317,0.23939 0.37023,0.23939 0.11785,0 0.27913,-0.06985 0.33122,-0.14343 z"
         inkscape:connector-curvature="0"
         style="clip-rule:evenodd;fill:#ffffff;fill-rule:evenodd" />
    </g>
  </g>
</svg>
