<?xml version="1.0" encoding="UTF-8" standalone="no"?>
<!-- Created with Inkscape (http://www.inkscape.org/) -->

<svg
   xmlns:dc="http://purl.org/dc/elements/1.1/"
   xmlns:cc="http://creativecommons.org/ns#"
   xmlns:rdf="http://www.w3.org/1999/02/22-rdf-syntax-ns#"
   xmlns:svg="http://www.w3.org/2000/svg"
   xmlns="http://www.w3.org/2000/svg"
   xmlns:sodipodi="http://sodipodi.sourceforge.net/DTD/sodipodi-0.dtd"
   xmlns:inkscape="http://www.inkscape.org/namespaces/inkscape"
   width="28.448605mm"
   height="27.629921mm"
   viewBox="0 0 28.448605 27.629921"
   version="1.1"
   id="svg8"
   inkscape:version="0.92.5 (2060ec1f9f, 2020-04-08)"
   sodipodi:docname="logo_no_text.svg">
  <defs
     id="defs2">
    <clipPath
       clipPathUnits="userSpaceOnUse"
       id="clipPath1720">
      <circle
         r="18.456404"
         cy="-489.96979"
         cx="36.69421"
         id="circle1722"
         style="opacity:1;fill:none;fill-opacity:1;stroke:#000000;stroke-width:0.04603693;stroke-linecap:round;stroke-linejoin:round;stroke-miterlimit:4;stroke-dasharray:none;stroke-dashoffset:0;stroke-opacity:1" />
    </clipPath>
  </defs>
  <sodipodi:namedview
     id="base"
     pagecolor="#ffffff"
     bordercolor="#666666"
     borderopacity="1.0"
     inkscape:pageopacity="0.0"
     inkscape:pageshadow="2"
     inkscape:zoom="0.5"
     inkscape:cx="-321.99294"
     inkscape:cy="-197.90712"
     inkscape:document-units="mm"
     inkscape:current-layer="layer1"
     showgrid="false"
     showguides="true"
     fit-margin-top="0"
     fit-margin-left="0"
     fit-margin-right="0"
     fit-margin-bottom="0"
     inkscape:window-width="1848"
     inkscape:window-height="1016"
     inkscape:window-x="72"
     inkscape:window-y="27"
     inkscape:window-maximized="1"
     inkscape:snap-nodes="true"
     inkscape:guide-bbox="true"
     inkscape:snap-bbox="true"
     inkscape:object-paths="false"
     inkscape:object-nodes="true" />
  <metadata
     id="metadata5">
    <rdf:RDF>
      <cc:Work
         rdf:about="">
        <dc:format>image/svg+xml</dc:format>
        <dc:type
           rdf:resource="http://purl.org/dc/dcmitype/StillImage" />
        <dc:title></dc:title>
      </cc:Work>
    </rdf:RDF>
  </metadata>
  <g
     inkscape:label="Layer 1"
     inkscape:groupmode="layer"
     id="layer1"
     transform="translate(-556.59621,-103.65315)">
    <text
       xml:space="preserve"
       style="font-style:normal;font-weight:normal;font-size:10.58333302px;line-height:1.25;font-family:sans-serif;letter-spacing:0px;word-spacing:0px;fill:#000000;fill-opacity:1;stroke:none;stroke-width:0.26458332"
       x="-75.370003"
       y="-238.07359"
       id="text1439"><tspan
         sodipodi:role="line"
         id="tspan1437"
         x="-75.370003"
         y="-228.70982"
         style="stroke-width:0.26458332" /></text>
    <flowRoot
       xml:space="preserve"
       id="flowRoot1547"
       style="font-style:normal;font-weight:normal;font-size:40px;line-height:1.25;font-family:sans-serif;letter-spacing:0px;word-spacing:0px;fill:#000000;fill-opacity:1;stroke:none"
       transform="scale(0.26458333)"><flowRegion
         id="flowRegion1549"><rect
           id="rect1551"
           width="278.15015"
           height="84.256859"
           x="-75.637268"
           y="-1002.7184" /></flowRegion><flowPara
         id="flowPara1553" /></flowRoot>    <path
       inkscape:connector-curvature="0"
       id="path3315"
       d="m 571.17943,103.65406 c -0.106,-0.0104 -0.2199,0.0684 -0.3429,0.25284 -1.3115,1.96729 -1.8971,12.17866 -2.7403,10.77345 -0.8431,-1.40522 -2.8898,-11.09101 -4.075,-11.00761 -1.8602,0.13081 1.5081,12.26683 -0.6465,13.81258 -1.3735,0.67809 -6.5609,-4.80054 -6.7483,-3.81688 -0.1674,1.00742 0.3705,3.11832 1.3716,5.50117 2.2988,5.47133 7.3201,12.53462 13.8528,12.0938 4.4317,-0.56492 7.6757,-4.12186 9.8454,-7.84734 2.5441,-4.36859 3.606,-8.96961 3.2963,-9.25868 -1.0703,-0.74239 -4.8927,3.5667 -6.0874,2.79587 -0.4616,-0.29783 -0.6558,-2.34802 0.511,-7.17545 1.1667,-4.82746 -0.4492,-3.4935 -1.9061,-0.89699 -1.4568,2.59649 -3.3592,7.47319 -4.2024,5.48251 -0.8064,-2.16493 -1.1034,-10.60921 -2.1282,-10.70927 z"
       style="fill:#bbd966;fill-opacity:1;stroke:none;stroke-width:1.25530708;stroke-linecap:butt;stroke-linejoin:miter;stroke-miterlimit:4;stroke-dasharray:none;stroke-opacity:1" />
    <path
       id="path3317"
       d="m 558.04833,119.27738 c 2.3186,5.45622 7.3116,12.42403 13.8025,11.98603 4.4177,-0.56314 7.6528,-4.10025 9.8224,-7.81286 -0.1211,-0.094 -0.2416,-0.21639 -0.3631,-0.30268 -0.473,-0.33604 -0.9495,-0.61221 -1.4347,-0.82036 -0.4853,-0.20815 -0.9793,-0.34826 -1.487,-0.41186 -0.5078,-0.0636 -1.0298,-0.0507 -1.5704,0.0469 -0.5406,0.0976 -1.1001,0.28005 -1.6838,0.55555 -0.5837,0.27551 -1.1918,0.64434 -1.8289,1.11441 -0.6372,0.47005 -1.3034,1.04134 -2.0043,1.72262 -0.3504,0.34063 -0.7095,0.61857 -1.0751,0.83951 -0.3656,0.22098 -0.7379,0.38482 -1.1139,0.49808 -0.376,0.11323 -0.7558,0.17597 -1.1374,0.19346 -0.3817,0.0174 -0.765,-0.0104 -1.1475,-0.0766 -0.3825,-0.0664 -0.764,-0.17122 -1.1427,-0.30937 -0.3786,-0.13812 -0.754,-0.30915 -1.124,-0.50717 -0.3699,-0.198 -0.7348,-0.42312 -1.0914,-0.66903 -0.3566,-0.24588 -0.7051,-0.51264 -1.0435,-0.79449 -0.6769,-0.56369 -1.3126,-1.18751 -1.8883,-1.82318 -0.5757,-0.63571 -1.0913,-1.28353 -1.5278,-1.89552 -0.3983,-0.55849 -0.7091,-1.07094 -0.9611,-1.53345 z"
       style="fill:#81be40;fill-opacity:1;stroke:none;stroke-width:1.25530708;stroke-linecap:butt;stroke-linejoin:miter;stroke-miterlimit:4;stroke-dasharray:none;stroke-opacity:1"
       inkscape:connector-curvature="0" />
    <path
       id="path3319"
       d="m 557.99803,119.16962 c 0.015,0.0349 0.035,0.0726 0.05,0.10775 2.3186,5.45623 7.3116,12.42404 13.8025,11.98603 4.4177,-0.56314 7.6528,-4.10025 9.8224,-7.81285 0.01,-0.0118 0.016,-0.0228 0.023,-0.0345 -0.512,-0.59582 -1.022,-1.14901 -1.5311,-1.58088 -0.2936,-0.2491 -0.5871,-0.47012 -0.8811,-0.6628 -0.2941,-0.19268 -0.589,-0.35696 -0.8846,-0.49185 -0.2956,-0.13487 -0.5921,-0.24034 -0.8903,-0.31605 -0.2981,-0.0757 -0.5976,-0.12179 -0.8994,-0.13697 -0.3017,-0.0152 -0.6058,0 -0.9123,0.0469 -0.3065,0.0467 -0.6154,0.12468 -0.9276,0.23466 -0.3122,0.11 -0.6278,0.25209 -0.9468,0.4267 -0.319,0.17465 -0.6415,0.38194 -0.9683,0.62258 -0.3269,0.24064 -0.6581,0.51475 -0.9938,0.82277 -0.3357,0.30802 -0.6758,0.64999 -1.0215,1.02677 -0.4464,0.4724 -0.8925,0.86096 -1.3361,1.17379 -0.4437,0.31282 -0.8852,0.54979 -1.3233,0.71978 -0.438,0.17002 -0.8722,0.27311 -1.3016,0.31705 -0.4294,0.0439 -0.8538,0.029 -1.2715,-0.0364 -0.4177,-0.0653 -0.8286,-0.18117 -1.2318,-0.33905 -0.403,-0.15797 -0.7983,-0.35821 -1.1838,-0.59194 -0.3855,-0.23372 -0.7615,-0.50129 -1.1264,-0.79403 -0.3648,-0.29274 -0.7185,-0.61082 -1.0598,-0.94584 -0.6825,-0.67003 -1.3148,-1.40788 -1.885,-2.14644 -0.4229,-0.54788 -0.7723,-1.0739 -1.1221,-1.59524 z"
       style="fill:#81be40;fill-opacity:1;stroke:none;stroke-width:1.25530708;stroke-linecap:butt;stroke-linejoin:miter;stroke-miterlimit:4;stroke-dasharray:none;stroke-opacity:1"
       inkscape:connector-curvature="0" />
    <path
       sodipodi:nodetypes="cccccccccccccccccccccccccccccccsccccccccccc"
       id="path3321"
       d="m 558.04833,119.27738 c 0.252,0.46251 0.5628,0.97496 0.9611,1.53345 0.4365,0.61199 0.9521,1.25981 1.5278,1.89551 0.5757,0.63568 1.2114,1.2595 1.8883,1.82318 0.3384,0.28186 0.6869,0.54861 1.0435,0.7945 0.3566,0.24591 0.7215,0.47103 1.0914,0.66903 0.37,0.19801 0.7454,0.36904 1.124,0.50716 0.3787,0.13815 0.7602,0.24307 1.1427,0.30938 0.3825,0.0662 0.7658,0.0941 1.1475,0.0766 0.3816,-0.0174 0.7614,-0.0803 1.1374,-0.19346 0.376,-0.11326 0.7483,-0.2771 1.1139,-0.49808 0.3656,-0.22094 0.7247,-0.49888 1.0751,-0.83951 0.7009,-0.68129 1.3671,-1.25257 2.0043,-1.72262 0.6371,-0.47007 1.2452,-0.8389 1.8289,-1.11442 0.5837,-0.2755 1.1432,-0.4579 1.6838,-0.55554 0.5406,-0.0976 1.0626,-0.11051 1.5704,-0.0469 0.5077,0.0636 1.0017,0.2037 1.487,0.41186 0.4852,0.20814 0.9617,0.48431 1.4347,0.82036 0.1215,0.0863 0.242,0.20866 0.3631,0.30268 0.01,-0.0118 0.105,-0.17473 0.1119,-0.18643 -0.5119,-0.59582 -1.1109,-0.99708 -1.6199,-1.42895 -0.2936,-0.24909 -0.5871,-0.47012 -0.8812,-0.6628 -0.2941,-0.19268 -0.5889,-0.35696 -0.8845,-0.49185 -0.2956,-0.13487 -0.5922,-0.24034 -0.8903,-0.31605 -0.2982,-0.0757 -0.5976,-0.12179 -0.8994,-0.13697 -0.3018,-0.0152 -0.6058,0 -0.9123,0.0469 -0.3065,0.0467 -0.6155,0.12468 -0.9277,0.23466 -0.3121,0.11 -0.6278,0.25209 -0.9468,0.4267 -0.3189,0.17465 -0.6415,0.38194 -0.9683,0.62258 -0.3268,0.24064 -0.658,0.51475 -0.9937,0.82277 -0.3357,0.30802 -0.6759,0.64999 -1.0215,1.02677 -0.4464,0.4724 -0.8925,0.86096 -1.3362,1.17379 -0.4437,0.31283 -0.8852,0.54979 -1.3232,0.71978 -0.438,0.17002 -0.8723,0.27311 -1.3017,0.31705 -0.4293,0.0439 -0.8537,0.029 -1.2714,-0.0364 -0.4178,-0.0653 -0.8287,-0.18117 -1.2318,-0.33905 -0.4031,-0.15797 -0.7984,-0.35821 -1.1839,-0.59194 -0.3854,-0.23372 -0.7615,-0.50129 -1.1263,-0.79403 -0.3649,-0.29274 -0.7186,-0.61082 -1.0598,-0.94583 -0.6826,-0.67004 -1.3148,-1.40789 -1.885,-2.14645 -0.423,-0.54788 -0.7724,-1.0739 -1.1221,-1.59524 0.015,0.0349 0.035,0.0727 0.05,0.10776 z"
       style="fill:#3da02f;fill-opacity:1;stroke:none;stroke-width:1.25530708;stroke-linecap:butt;stroke-linejoin:miter;stroke-miterlimit:4;stroke-dasharray:none;stroke-opacity:1"
       inkscape:connector-curvature="0" />
  </g>
</svg>
